%TF.GenerationSoftware,KiCad,Pcbnew,(5.1.9)-1*%
%TF.CreationDate,2021-11-21T17:51:23+01:00*%
%TF.ProjectId,MemoryBrakout,4d656d6f-7279-4427-9261-6b6f75742e6b,rev?*%
%TF.SameCoordinates,Original*%
%TF.FileFunction,Copper,L1,Top*%
%TF.FilePolarity,Positive*%
%FSLAX46Y46*%
G04 Gerber Fmt 4.6, Leading zero omitted, Abs format (unit mm)*
G04 Created by KiCad (PCBNEW (5.1.9)-1) date 2021-11-21 17:51:23*
%MOMM*%
%LPD*%
G01*
G04 APERTURE LIST*
%TA.AperFunction,ComponentPad*%
%ADD10R,1.700000X1.700000*%
%TD*%
%TA.AperFunction,ComponentPad*%
%ADD11O,1.700000X1.700000*%
%TD*%
%TA.AperFunction,SMDPad,CuDef*%
%ADD12R,2.000000X2.000000*%
%TD*%
%TA.AperFunction,ViaPad*%
%ADD13C,0.800000*%
%TD*%
%TA.AperFunction,Conductor*%
%ADD14C,0.250000*%
%TD*%
%TA.AperFunction,Conductor*%
%ADD15C,0.254000*%
%TD*%
%TA.AperFunction,Conductor*%
%ADD16C,0.100000*%
%TD*%
G04 APERTURE END LIST*
D10*
%TO.P,J2,1*%
%TO.N,/BUT1*%
X189230000Y-95250000D03*
D11*
%TO.P,J2,2*%
%TO.N,/BUT2*%
X191770000Y-95250000D03*
%TO.P,J2,3*%
%TO.N,/BUT3*%
X194310000Y-95250000D03*
%TO.P,J2,4*%
%TO.N,/BUT4*%
X196850000Y-95250000D03*
%TO.P,J2,5*%
%TO.N,/BUT5*%
X199390000Y-95250000D03*
%TD*%
D10*
%TO.P,J3,1*%
%TO.N,/SCK*%
X187960000Y-99060000D03*
D11*
%TO.P,J3,2*%
%TO.N,/MOSI*%
X190500000Y-99060000D03*
%TO.P,J3,3*%
%TO.N,/CS*%
X193040000Y-99060000D03*
%TO.P,J3,4*%
%TO.N,/EXTCOMIN*%
X195580000Y-99060000D03*
%TO.P,J3,5*%
%TO.N,/DISPON*%
X198120000Y-99060000D03*
%TO.P,J3,6*%
%TO.N,+3V3*%
X200660000Y-99060000D03*
%TO.P,J3,7*%
%TO.N,+5V*%
X203200000Y-99060000D03*
%TO.P,J3,8*%
%TO.N,/EXTMODE*%
X205740000Y-99060000D03*
%TO.P,J3,9*%
%TO.N,GND*%
X208280000Y-99060000D03*
%TO.P,J3,10*%
X210820000Y-99060000D03*
%TD*%
%TO.P,J4,4*%
%TO.N,/SCL*%
X160020000Y-95250000D03*
%TO.P,J4,3*%
%TO.N,/SDA*%
X157480000Y-95250000D03*
%TO.P,J4,2*%
%TO.N,/RXD*%
X154940000Y-95250000D03*
D10*
%TO.P,J4,1*%
%TO.N,/TXD*%
X152400000Y-95250000D03*
%TD*%
%TO.P,J5,1*%
%TO.N,+3V3*%
X203200000Y-95250000D03*
D11*
%TO.P,J5,2*%
X205740000Y-95250000D03*
%TO.P,J5,3*%
%TO.N,GND*%
X208280000Y-95250000D03*
%TO.P,J5,4*%
X210820000Y-95250000D03*
%TD*%
%TO.P,R2,1*%
%TO.N,Net-(R2-Pad1)*%
%TA.AperFunction,SMDPad,CuDef*%
G36*
G01*
X209152500Y-106452000D02*
X208677500Y-106452000D01*
G75*
G02*
X208440000Y-106214500I0J237500D01*
G01*
X208440000Y-105714500D01*
G75*
G02*
X208677500Y-105477000I237500J0D01*
G01*
X209152500Y-105477000D01*
G75*
G02*
X209390000Y-105714500I0J-237500D01*
G01*
X209390000Y-106214500D01*
G75*
G02*
X209152500Y-106452000I-237500J0D01*
G01*
G37*
%TD.AperFunction*%
%TO.P,R2,2*%
%TO.N,GND*%
%TA.AperFunction,SMDPad,CuDef*%
G36*
G01*
X209152500Y-104627000D02*
X208677500Y-104627000D01*
G75*
G02*
X208440000Y-104389500I0J237500D01*
G01*
X208440000Y-103889500D01*
G75*
G02*
X208677500Y-103652000I237500J0D01*
G01*
X209152500Y-103652000D01*
G75*
G02*
X209390000Y-103889500I0J-237500D01*
G01*
X209390000Y-104389500D01*
G75*
G02*
X209152500Y-104627000I-237500J0D01*
G01*
G37*
%TD.AperFunction*%
%TD*%
%TO.P,R3,1*%
%TO.N,/BUT2*%
%TA.AperFunction,SMDPad,CuDef*%
G36*
G01*
X197882500Y-104010000D02*
X198357500Y-104010000D01*
G75*
G02*
X198595000Y-104247500I0J-237500D01*
G01*
X198595000Y-104747500D01*
G75*
G02*
X198357500Y-104985000I-237500J0D01*
G01*
X197882500Y-104985000D01*
G75*
G02*
X197645000Y-104747500I0J237500D01*
G01*
X197645000Y-104247500D01*
G75*
G02*
X197882500Y-104010000I237500J0D01*
G01*
G37*
%TD.AperFunction*%
%TO.P,R3,2*%
%TO.N,Net-(R2-Pad1)*%
%TA.AperFunction,SMDPad,CuDef*%
G36*
G01*
X197882500Y-105835000D02*
X198357500Y-105835000D01*
G75*
G02*
X198595000Y-106072500I0J-237500D01*
G01*
X198595000Y-106572500D01*
G75*
G02*
X198357500Y-106810000I-237500J0D01*
G01*
X197882500Y-106810000D01*
G75*
G02*
X197645000Y-106572500I0J237500D01*
G01*
X197645000Y-106072500D01*
G75*
G02*
X197882500Y-105835000I237500J0D01*
G01*
G37*
%TD.AperFunction*%
%TD*%
%TO.P,R4,2*%
%TO.N,GND*%
%TA.AperFunction,SMDPad,CuDef*%
G36*
G01*
X170963000Y-97392500D02*
X170963000Y-96917500D01*
G75*
G02*
X171200500Y-96680000I237500J0D01*
G01*
X171700500Y-96680000D01*
G75*
G02*
X171938000Y-96917500I0J-237500D01*
G01*
X171938000Y-97392500D01*
G75*
G02*
X171700500Y-97630000I-237500J0D01*
G01*
X171200500Y-97630000D01*
G75*
G02*
X170963000Y-97392500I0J237500D01*
G01*
G37*
%TD.AperFunction*%
%TO.P,R4,1*%
%TO.N,Net-(R4-Pad1)*%
%TA.AperFunction,SMDPad,CuDef*%
G36*
G01*
X169138000Y-97392500D02*
X169138000Y-96917500D01*
G75*
G02*
X169375500Y-96680000I237500J0D01*
G01*
X169875500Y-96680000D01*
G75*
G02*
X170113000Y-96917500I0J-237500D01*
G01*
X170113000Y-97392500D01*
G75*
G02*
X169875500Y-97630000I-237500J0D01*
G01*
X169375500Y-97630000D01*
G75*
G02*
X169138000Y-97392500I0J237500D01*
G01*
G37*
%TD.AperFunction*%
%TD*%
%TO.P,R5,1*%
%TO.N,/BUT1*%
%TA.AperFunction,SMDPad,CuDef*%
G36*
G01*
X164692000Y-106282500D02*
X164692000Y-105807500D01*
G75*
G02*
X164929500Y-105570000I237500J0D01*
G01*
X165429500Y-105570000D01*
G75*
G02*
X165667000Y-105807500I0J-237500D01*
G01*
X165667000Y-106282500D01*
G75*
G02*
X165429500Y-106520000I-237500J0D01*
G01*
X164929500Y-106520000D01*
G75*
G02*
X164692000Y-106282500I0J237500D01*
G01*
G37*
%TD.AperFunction*%
%TO.P,R5,2*%
%TO.N,Net-(R4-Pad1)*%
%TA.AperFunction,SMDPad,CuDef*%
G36*
G01*
X166517000Y-106282500D02*
X166517000Y-105807500D01*
G75*
G02*
X166754500Y-105570000I237500J0D01*
G01*
X167254500Y-105570000D01*
G75*
G02*
X167492000Y-105807500I0J-237500D01*
G01*
X167492000Y-106282500D01*
G75*
G02*
X167254500Y-106520000I-237500J0D01*
G01*
X166754500Y-106520000D01*
G75*
G02*
X166517000Y-106282500I0J237500D01*
G01*
G37*
%TD.AperFunction*%
%TD*%
%TO.P,R6,2*%
%TO.N,/EXTMODE*%
%TA.AperFunction,SMDPad,CuDef*%
G36*
G01*
X155087000Y-99932500D02*
X155087000Y-99457500D01*
G75*
G02*
X155324500Y-99220000I237500J0D01*
G01*
X155824500Y-99220000D01*
G75*
G02*
X156062000Y-99457500I0J-237500D01*
G01*
X156062000Y-99932500D01*
G75*
G02*
X155824500Y-100170000I-237500J0D01*
G01*
X155324500Y-100170000D01*
G75*
G02*
X155087000Y-99932500I0J237500D01*
G01*
G37*
%TD.AperFunction*%
%TO.P,R6,1*%
%TO.N,+3V3*%
%TA.AperFunction,SMDPad,CuDef*%
G36*
G01*
X153262000Y-99932500D02*
X153262000Y-99457500D01*
G75*
G02*
X153499500Y-99220000I237500J0D01*
G01*
X153999500Y-99220000D01*
G75*
G02*
X154237000Y-99457500I0J-237500D01*
G01*
X154237000Y-99932500D01*
G75*
G02*
X153999500Y-100170000I-237500J0D01*
G01*
X153499500Y-100170000D01*
G75*
G02*
X153262000Y-99932500I0J237500D01*
G01*
G37*
%TD.AperFunction*%
%TD*%
%TO.P,R8,1*%
%TO.N,Net-(R8-Pad1)*%
%TA.AperFunction,SMDPad,CuDef*%
G36*
G01*
X157985000Y-106282500D02*
X157985000Y-105807500D01*
G75*
G02*
X158222500Y-105570000I237500J0D01*
G01*
X158722500Y-105570000D01*
G75*
G02*
X158960000Y-105807500I0J-237500D01*
G01*
X158960000Y-106282500D01*
G75*
G02*
X158722500Y-106520000I-237500J0D01*
G01*
X158222500Y-106520000D01*
G75*
G02*
X157985000Y-106282500I0J237500D01*
G01*
G37*
%TD.AperFunction*%
%TO.P,R8,2*%
%TO.N,GND*%
%TA.AperFunction,SMDPad,CuDef*%
G36*
G01*
X159810000Y-106282500D02*
X159810000Y-105807500D01*
G75*
G02*
X160047500Y-105570000I237500J0D01*
G01*
X160547500Y-105570000D01*
G75*
G02*
X160785000Y-105807500I0J-237500D01*
G01*
X160785000Y-106282500D01*
G75*
G02*
X160547500Y-106520000I-237500J0D01*
G01*
X160047500Y-106520000D01*
G75*
G02*
X159810000Y-106282500I0J237500D01*
G01*
G37*
%TD.AperFunction*%
%TD*%
%TO.P,R9,2*%
%TO.N,Net-(R8-Pad1)*%
%TA.AperFunction,SMDPad,CuDef*%
G36*
G01*
X156993000Y-111489500D02*
X156993000Y-111014500D01*
G75*
G02*
X157230500Y-110777000I237500J0D01*
G01*
X157730500Y-110777000D01*
G75*
G02*
X157968000Y-111014500I0J-237500D01*
G01*
X157968000Y-111489500D01*
G75*
G02*
X157730500Y-111727000I-237500J0D01*
G01*
X157230500Y-111727000D01*
G75*
G02*
X156993000Y-111489500I0J237500D01*
G01*
G37*
%TD.AperFunction*%
%TO.P,R9,1*%
%TO.N,/BUT3*%
%TA.AperFunction,SMDPad,CuDef*%
G36*
G01*
X155168000Y-111489500D02*
X155168000Y-111014500D01*
G75*
G02*
X155405500Y-110777000I237500J0D01*
G01*
X155905500Y-110777000D01*
G75*
G02*
X156143000Y-111014500I0J-237500D01*
G01*
X156143000Y-111489500D01*
G75*
G02*
X155905500Y-111727000I-237500J0D01*
G01*
X155405500Y-111727000D01*
G75*
G02*
X155168000Y-111489500I0J237500D01*
G01*
G37*
%TD.AperFunction*%
%TD*%
%TO.P,R10,1*%
%TO.N,Net-(R10-Pad1)*%
%TA.AperFunction,SMDPad,CuDef*%
G36*
G01*
X169138000Y-94852500D02*
X169138000Y-94377500D01*
G75*
G02*
X169375500Y-94140000I237500J0D01*
G01*
X169875500Y-94140000D01*
G75*
G02*
X170113000Y-94377500I0J-237500D01*
G01*
X170113000Y-94852500D01*
G75*
G02*
X169875500Y-95090000I-237500J0D01*
G01*
X169375500Y-95090000D01*
G75*
G02*
X169138000Y-94852500I0J237500D01*
G01*
G37*
%TD.AperFunction*%
%TO.P,R10,2*%
%TO.N,GND*%
%TA.AperFunction,SMDPad,CuDef*%
G36*
G01*
X170963000Y-94852500D02*
X170963000Y-94377500D01*
G75*
G02*
X171200500Y-94140000I237500J0D01*
G01*
X171700500Y-94140000D01*
G75*
G02*
X171938000Y-94377500I0J-237500D01*
G01*
X171938000Y-94852500D01*
G75*
G02*
X171700500Y-95090000I-237500J0D01*
G01*
X171200500Y-95090000D01*
G75*
G02*
X170963000Y-94852500I0J237500D01*
G01*
G37*
%TD.AperFunction*%
%TD*%
%TO.P,R11,1*%
%TO.N,Net-(R11-Pad1)*%
%TA.AperFunction,SMDPad,CuDef*%
G36*
G01*
X173502000Y-100567500D02*
X173502000Y-100092500D01*
G75*
G02*
X173739500Y-99855000I237500J0D01*
G01*
X174239500Y-99855000D01*
G75*
G02*
X174477000Y-100092500I0J-237500D01*
G01*
X174477000Y-100567500D01*
G75*
G02*
X174239500Y-100805000I-237500J0D01*
G01*
X173739500Y-100805000D01*
G75*
G02*
X173502000Y-100567500I0J237500D01*
G01*
G37*
%TD.AperFunction*%
%TO.P,R11,2*%
%TO.N,GND*%
%TA.AperFunction,SMDPad,CuDef*%
G36*
G01*
X175327000Y-100567500D02*
X175327000Y-100092500D01*
G75*
G02*
X175564500Y-99855000I237500J0D01*
G01*
X176064500Y-99855000D01*
G75*
G02*
X176302000Y-100092500I0J-237500D01*
G01*
X176302000Y-100567500D01*
G75*
G02*
X176064500Y-100805000I-237500J0D01*
G01*
X175564500Y-100805000D01*
G75*
G02*
X175327000Y-100567500I0J237500D01*
G01*
G37*
%TD.AperFunction*%
%TD*%
%TO.P,R12,2*%
%TO.N,Net-(R10-Pad1)*%
%TA.AperFunction,SMDPad,CuDef*%
G36*
G01*
X168423000Y-111362500D02*
X168423000Y-110887500D01*
G75*
G02*
X168660500Y-110650000I237500J0D01*
G01*
X169160500Y-110650000D01*
G75*
G02*
X169398000Y-110887500I0J-237500D01*
G01*
X169398000Y-111362500D01*
G75*
G02*
X169160500Y-111600000I-237500J0D01*
G01*
X168660500Y-111600000D01*
G75*
G02*
X168423000Y-111362500I0J237500D01*
G01*
G37*
%TD.AperFunction*%
%TO.P,R12,1*%
%TO.N,/BUT4*%
%TA.AperFunction,SMDPad,CuDef*%
G36*
G01*
X166598000Y-111362500D02*
X166598000Y-110887500D01*
G75*
G02*
X166835500Y-110650000I237500J0D01*
G01*
X167335500Y-110650000D01*
G75*
G02*
X167573000Y-110887500I0J-237500D01*
G01*
X167573000Y-111362500D01*
G75*
G02*
X167335500Y-111600000I-237500J0D01*
G01*
X166835500Y-111600000D01*
G75*
G02*
X166598000Y-111362500I0J237500D01*
G01*
G37*
%TD.AperFunction*%
%TD*%
%TO.P,R13,2*%
%TO.N,Net-(R11-Pad1)*%
%TA.AperFunction,SMDPad,CuDef*%
G36*
G01*
X170963000Y-100567500D02*
X170963000Y-100092500D01*
G75*
G02*
X171200500Y-99855000I237500J0D01*
G01*
X171700500Y-99855000D01*
G75*
G02*
X171938000Y-100092500I0J-237500D01*
G01*
X171938000Y-100567500D01*
G75*
G02*
X171700500Y-100805000I-237500J0D01*
G01*
X171200500Y-100805000D01*
G75*
G02*
X170963000Y-100567500I0J237500D01*
G01*
G37*
%TD.AperFunction*%
%TO.P,R13,1*%
%TO.N,/BUT5*%
%TA.AperFunction,SMDPad,CuDef*%
G36*
G01*
X169138000Y-100567500D02*
X169138000Y-100092500D01*
G75*
G02*
X169375500Y-99855000I237500J0D01*
G01*
X169875500Y-99855000D01*
G75*
G02*
X170113000Y-100092500I0J-237500D01*
G01*
X170113000Y-100567500D01*
G75*
G02*
X169875500Y-100805000I-237500J0D01*
G01*
X169375500Y-100805000D01*
G75*
G02*
X169138000Y-100567500I0J237500D01*
G01*
G37*
%TD.AperFunction*%
%TD*%
D12*
%TO.P,SW1,2*%
%TO.N,Net-(R2-Pad1)*%
X203200000Y-108855000D03*
%TO.P,SW1,1*%
%TO.N,+3V3*%
X203200000Y-102855000D03*
%TD*%
%TO.P,SW2,1*%
%TO.N,+3V3*%
X162560000Y-97775000D03*
%TO.P,SW2,2*%
%TO.N,Net-(R4-Pad1)*%
X162560000Y-103775000D03*
%TD*%
%TO.P,SW3,1*%
%TO.N,+3V3*%
X154305000Y-102855000D03*
%TO.P,SW3,2*%
%TO.N,Net-(R8-Pad1)*%
X154305000Y-108855000D03*
%TD*%
%TO.P,SW4,2*%
%TO.N,Net-(R10-Pad1)*%
X162560000Y-113935000D03*
%TO.P,SW4,1*%
%TO.N,+3V3*%
X162560000Y-107935000D03*
%TD*%
%TO.P,SW5,2*%
%TO.N,Net-(R11-Pad1)*%
X171450000Y-108855000D03*
%TO.P,SW5,1*%
%TO.N,+3V3*%
X171450000Y-102855000D03*
%TD*%
%TO.P,D1,1*%
%TO.N,Net-(D1-Pad1)*%
%TA.AperFunction,SMDPad,CuDef*%
G36*
G01*
X178103000Y-100017500D02*
X178103000Y-99592500D01*
G75*
G02*
X178315500Y-99380000I212500J0D01*
G01*
X179115500Y-99380000D01*
G75*
G02*
X179328000Y-99592500I0J-212500D01*
G01*
X179328000Y-100017500D01*
G75*
G02*
X179115500Y-100230000I-212500J0D01*
G01*
X178315500Y-100230000D01*
G75*
G02*
X178103000Y-100017500I0J212500D01*
G01*
G37*
%TD.AperFunction*%
%TO.P,D1,2*%
%TO.N,/LEDYellow*%
%TA.AperFunction,SMDPad,CuDef*%
G36*
G01*
X179728000Y-100017500D02*
X179728000Y-99592500D01*
G75*
G02*
X179940500Y-99380000I212500J0D01*
G01*
X180740500Y-99380000D01*
G75*
G02*
X180953000Y-99592500I0J-212500D01*
G01*
X180953000Y-100017500D01*
G75*
G02*
X180740500Y-100230000I-212500J0D01*
G01*
X179940500Y-100230000D01*
G75*
G02*
X179728000Y-100017500I0J212500D01*
G01*
G37*
%TD.AperFunction*%
%TD*%
%TO.P,D2,2*%
%TO.N,/LEDPink*%
%TA.AperFunction,SMDPad,CuDef*%
G36*
G01*
X179728000Y-103082500D02*
X179728000Y-102657500D01*
G75*
G02*
X179940500Y-102445000I212500J0D01*
G01*
X180740500Y-102445000D01*
G75*
G02*
X180953000Y-102657500I0J-212500D01*
G01*
X180953000Y-103082500D01*
G75*
G02*
X180740500Y-103295000I-212500J0D01*
G01*
X179940500Y-103295000D01*
G75*
G02*
X179728000Y-103082500I0J212500D01*
G01*
G37*
%TD.AperFunction*%
%TO.P,D2,1*%
%TO.N,Net-(D2-Pad1)*%
%TA.AperFunction,SMDPad,CuDef*%
G36*
G01*
X178103000Y-103082500D02*
X178103000Y-102657500D01*
G75*
G02*
X178315500Y-102445000I212500J0D01*
G01*
X179115500Y-102445000D01*
G75*
G02*
X179328000Y-102657500I0J-212500D01*
G01*
X179328000Y-103082500D01*
G75*
G02*
X179115500Y-103295000I-212500J0D01*
G01*
X178315500Y-103295000D01*
G75*
G02*
X178103000Y-103082500I0J212500D01*
G01*
G37*
%TD.AperFunction*%
%TD*%
%TO.P,D3,1*%
%TO.N,Net-(D3-Pad1)*%
%TA.AperFunction,SMDPad,CuDef*%
G36*
G01*
X181913000Y-100017500D02*
X181913000Y-99592500D01*
G75*
G02*
X182125500Y-99380000I212500J0D01*
G01*
X182925500Y-99380000D01*
G75*
G02*
X183138000Y-99592500I0J-212500D01*
G01*
X183138000Y-100017500D01*
G75*
G02*
X182925500Y-100230000I-212500J0D01*
G01*
X182125500Y-100230000D01*
G75*
G02*
X181913000Y-100017500I0J212500D01*
G01*
G37*
%TD.AperFunction*%
%TO.P,D3,2*%
%TO.N,/LEDYellow2*%
%TA.AperFunction,SMDPad,CuDef*%
G36*
G01*
X183538000Y-100017500D02*
X183538000Y-99592500D01*
G75*
G02*
X183750500Y-99380000I212500J0D01*
G01*
X184550500Y-99380000D01*
G75*
G02*
X184763000Y-99592500I0J-212500D01*
G01*
X184763000Y-100017500D01*
G75*
G02*
X184550500Y-100230000I-212500J0D01*
G01*
X183750500Y-100230000D01*
G75*
G02*
X183538000Y-100017500I0J212500D01*
G01*
G37*
%TD.AperFunction*%
%TD*%
%TO.P,D4,2*%
%TO.N,/LEDPink2*%
%TA.AperFunction,SMDPad,CuDef*%
G36*
G01*
X183538000Y-103082500D02*
X183538000Y-102657500D01*
G75*
G02*
X183750500Y-102445000I212500J0D01*
G01*
X184550500Y-102445000D01*
G75*
G02*
X184763000Y-102657500I0J-212500D01*
G01*
X184763000Y-103082500D01*
G75*
G02*
X184550500Y-103295000I-212500J0D01*
G01*
X183750500Y-103295000D01*
G75*
G02*
X183538000Y-103082500I0J212500D01*
G01*
G37*
%TD.AperFunction*%
%TO.P,D4,1*%
%TO.N,Net-(D4-Pad1)*%
%TA.AperFunction,SMDPad,CuDef*%
G36*
G01*
X181913000Y-103082500D02*
X181913000Y-102657500D01*
G75*
G02*
X182125500Y-102445000I212500J0D01*
G01*
X182925500Y-102445000D01*
G75*
G02*
X183138000Y-102657500I0J-212500D01*
G01*
X183138000Y-103082500D01*
G75*
G02*
X182925500Y-103295000I-212500J0D01*
G01*
X182125500Y-103295000D01*
G75*
G02*
X181913000Y-103082500I0J212500D01*
G01*
G37*
%TD.AperFunction*%
%TD*%
%TO.P,R14,1*%
%TO.N,Net-(D1-Pad1)*%
%TA.AperFunction,SMDPad,CuDef*%
G36*
G01*
X178080000Y-107622500D02*
X178080000Y-107147500D01*
G75*
G02*
X178317500Y-106910000I237500J0D01*
G01*
X178817500Y-106910000D01*
G75*
G02*
X179055000Y-107147500I0J-237500D01*
G01*
X179055000Y-107622500D01*
G75*
G02*
X178817500Y-107860000I-237500J0D01*
G01*
X178317500Y-107860000D01*
G75*
G02*
X178080000Y-107622500I0J237500D01*
G01*
G37*
%TD.AperFunction*%
%TO.P,R14,2*%
%TO.N,GND*%
%TA.AperFunction,SMDPad,CuDef*%
G36*
G01*
X179905000Y-107622500D02*
X179905000Y-107147500D01*
G75*
G02*
X180142500Y-106910000I237500J0D01*
G01*
X180642500Y-106910000D01*
G75*
G02*
X180880000Y-107147500I0J-237500D01*
G01*
X180880000Y-107622500D01*
G75*
G02*
X180642500Y-107860000I-237500J0D01*
G01*
X180142500Y-107860000D01*
G75*
G02*
X179905000Y-107622500I0J237500D01*
G01*
G37*
%TD.AperFunction*%
%TD*%
%TO.P,R15,2*%
%TO.N,GND*%
%TA.AperFunction,SMDPad,CuDef*%
G36*
G01*
X184355000Y-107672500D02*
X184355000Y-107197500D01*
G75*
G02*
X184592500Y-106960000I237500J0D01*
G01*
X185092500Y-106960000D01*
G75*
G02*
X185330000Y-107197500I0J-237500D01*
G01*
X185330000Y-107672500D01*
G75*
G02*
X185092500Y-107910000I-237500J0D01*
G01*
X184592500Y-107910000D01*
G75*
G02*
X184355000Y-107672500I0J237500D01*
G01*
G37*
%TD.AperFunction*%
%TO.P,R15,1*%
%TO.N,Net-(D2-Pad1)*%
%TA.AperFunction,SMDPad,CuDef*%
G36*
G01*
X182530000Y-107672500D02*
X182530000Y-107197500D01*
G75*
G02*
X182767500Y-106960000I237500J0D01*
G01*
X183267500Y-106960000D01*
G75*
G02*
X183505000Y-107197500I0J-237500D01*
G01*
X183505000Y-107672500D01*
G75*
G02*
X183267500Y-107910000I-237500J0D01*
G01*
X182767500Y-107910000D01*
G75*
G02*
X182530000Y-107672500I0J237500D01*
G01*
G37*
%TD.AperFunction*%
%TD*%
%TO.P,R16,1*%
%TO.N,Net-(D3-Pad1)*%
%TA.AperFunction,SMDPad,CuDef*%
G36*
G01*
X178080000Y-110132500D02*
X178080000Y-109657500D01*
G75*
G02*
X178317500Y-109420000I237500J0D01*
G01*
X178817500Y-109420000D01*
G75*
G02*
X179055000Y-109657500I0J-237500D01*
G01*
X179055000Y-110132500D01*
G75*
G02*
X178817500Y-110370000I-237500J0D01*
G01*
X178317500Y-110370000D01*
G75*
G02*
X178080000Y-110132500I0J237500D01*
G01*
G37*
%TD.AperFunction*%
%TO.P,R16,2*%
%TO.N,GND*%
%TA.AperFunction,SMDPad,CuDef*%
G36*
G01*
X179905000Y-110132500D02*
X179905000Y-109657500D01*
G75*
G02*
X180142500Y-109420000I237500J0D01*
G01*
X180642500Y-109420000D01*
G75*
G02*
X180880000Y-109657500I0J-237500D01*
G01*
X180880000Y-110132500D01*
G75*
G02*
X180642500Y-110370000I-237500J0D01*
G01*
X180142500Y-110370000D01*
G75*
G02*
X179905000Y-110132500I0J237500D01*
G01*
G37*
%TD.AperFunction*%
%TD*%
%TO.P,R17,2*%
%TO.N,GND*%
%TA.AperFunction,SMDPad,CuDef*%
G36*
G01*
X184255000Y-110182500D02*
X184255000Y-109707500D01*
G75*
G02*
X184492500Y-109470000I237500J0D01*
G01*
X184992500Y-109470000D01*
G75*
G02*
X185230000Y-109707500I0J-237500D01*
G01*
X185230000Y-110182500D01*
G75*
G02*
X184992500Y-110420000I-237500J0D01*
G01*
X184492500Y-110420000D01*
G75*
G02*
X184255000Y-110182500I0J237500D01*
G01*
G37*
%TD.AperFunction*%
%TO.P,R17,1*%
%TO.N,Net-(D4-Pad1)*%
%TA.AperFunction,SMDPad,CuDef*%
G36*
G01*
X182430000Y-110182500D02*
X182430000Y-109707500D01*
G75*
G02*
X182667500Y-109470000I237500J0D01*
G01*
X183167500Y-109470000D01*
G75*
G02*
X183405000Y-109707500I0J-237500D01*
G01*
X183405000Y-110182500D01*
G75*
G02*
X183167500Y-110420000I-237500J0D01*
G01*
X182667500Y-110420000D01*
G75*
G02*
X182430000Y-110182500I0J237500D01*
G01*
G37*
%TD.AperFunction*%
%TD*%
D13*
%TO.N,GND*%
X171526200Y-97223580D03*
X164846000Y-75692000D03*
X172974000Y-73660000D03*
X170180000Y-76200000D03*
X183134000Y-75692000D03*
X190754000Y-75946000D03*
X195834000Y-73152000D03*
X200660000Y-76708000D03*
X180340000Y-107442000D03*
X180340000Y-109728000D03*
%TO.N,/DISPON*%
X187428600Y-83688600D03*
%TO.N,GND*%
X182372000Y-104140000D03*
X176022000Y-101854000D03*
X174498000Y-111760000D03*
X175768000Y-109220000D03*
X165608000Y-79756000D03*
X178816000Y-78994000D03*
X176149000Y-84099400D03*
X175260000Y-79375000D03*
X185496200Y-80975200D03*
X189255400Y-79756000D03*
X181737000Y-109016800D03*
X184785000Y-108737400D03*
X168503600Y-93243400D03*
X167005000Y-94525000D03*
X163753800Y-101574600D03*
X166537640Y-97703640D03*
%TO.N,+3V3*%
X165847500Y-94273500D03*
%TO.N,/TXD*%
X198085000Y-79061700D03*
%TO.N,/RXD*%
X195066500Y-79148100D03*
X154037400Y-92760300D03*
%TO.N,/BUT1*%
X192988300Y-79149600D03*
X192910300Y-84677800D03*
X169212500Y-98572300D03*
%TO.N,/CS*%
X184230600Y-87947900D03*
%TO.N,/MOSI*%
X182431800Y-78954700D03*
X185360100Y-84415500D03*
%TO.N,/EXTCOMIN*%
X180693400Y-78859500D03*
X184238100Y-84389400D03*
%TO.N,/SCK*%
X176827700Y-79275100D03*
X183072700Y-88123000D03*
%TO.N,/BUT2*%
X177602300Y-80542100D03*
%TO.N,/BUT3*%
X162968100Y-78954300D03*
%TO.N,/BUT4*%
X195328100Y-101572800D03*
X165389400Y-110702000D03*
%TO.N,/BUT5*%
X158714400Y-79399300D03*
X170991500Y-98272000D03*
%TO.N,/EXTMODE*%
X164541500Y-91377300D03*
%TO.N,/LEDYellow*%
X186901500Y-79522800D03*
X205568800Y-102058300D03*
X181164300Y-101136000D03*
%TO.N,/LEDPink*%
X167687500Y-79254800D03*
%TO.N,/LEDYellow2*%
X166024300Y-81454600D03*
%TO.N,/LEDPink2*%
X173817300Y-79291600D03*
%TD*%
D14*
%TO.N,/DISPON*%
X187428600Y-83688600D02*
X198120000Y-94380000D01*
X198120000Y-94380000D02*
X198120000Y-99060000D01*
%TO.N,GND*%
X176149000Y-84099400D02*
X176149000Y-80289400D01*
X175260000Y-79400400D02*
X175260000Y-79375000D01*
X176149000Y-80289400D02*
X175260000Y-79400400D01*
X185496200Y-80975200D02*
X185496200Y-79349600D01*
X186048001Y-78797799D02*
X188119399Y-78797799D01*
X185496200Y-79349600D02*
X186048001Y-78797799D01*
X189077600Y-79756000D02*
X189255400Y-79756000D01*
X188119399Y-78797799D02*
X189077600Y-79756000D01*
X167005000Y-94525000D02*
X165531800Y-95998200D01*
X165531800Y-99796600D02*
X163753800Y-101574600D01*
X166537640Y-97703640D02*
X165562280Y-97703640D01*
X165562280Y-97703640D02*
X165531800Y-97734120D01*
X165531800Y-97734120D02*
X165531800Y-99796600D01*
X165531800Y-95998200D02*
X165531800Y-97734120D01*
%TO.N,+3V3*%
X162560000Y-97775000D02*
X162560000Y-96449700D01*
X165847500Y-94273500D02*
X163671300Y-96449700D01*
X163671300Y-96449700D02*
X162560000Y-96449700D01*
X203200000Y-95250000D02*
X203200000Y-96425300D01*
X203200000Y-96425300D02*
X201835300Y-97790000D01*
X201835300Y-97790000D02*
X201835300Y-99060000D01*
X171450000Y-104180300D02*
X168107000Y-107523300D01*
X168107000Y-107523300D02*
X162560000Y-107523300D01*
X171450000Y-102855000D02*
X171450000Y-104180300D01*
X162560000Y-107523300D02*
X162560000Y-106609700D01*
X162560000Y-107935000D02*
X162560000Y-107523300D01*
X161234700Y-102855000D02*
X161234700Y-100425600D01*
X161234700Y-100425600D02*
X162560000Y-99100300D01*
X200660000Y-99060000D02*
X201835300Y-99060000D01*
X203200000Y-102855000D02*
X203200000Y-101529700D01*
X203200000Y-101529700D02*
X201835300Y-100165000D01*
X201835300Y-100165000D02*
X201835300Y-99060000D01*
X161234700Y-102855000D02*
X161234700Y-105284400D01*
X161234700Y-105284400D02*
X162560000Y-106609700D01*
X161234700Y-102855000D02*
X154305000Y-102855000D01*
X162560000Y-97775000D02*
X162560000Y-99100300D01*
X154305000Y-102855000D02*
X154305000Y-100250500D01*
X154305000Y-100250500D02*
X153749500Y-99695000D01*
%TO.N,/TXD*%
X152400000Y-95250000D02*
X152400000Y-83384400D01*
X152400000Y-83384400D02*
X158202300Y-77582100D01*
X158202300Y-77582100D02*
X196605400Y-77582100D01*
X196605400Y-77582100D02*
X198085000Y-79061700D01*
%TO.N,/RXD*%
X154037400Y-92760300D02*
X154037400Y-82384300D01*
X154037400Y-82384300D02*
X158354900Y-78066800D01*
X158354900Y-78066800D02*
X193985200Y-78066800D01*
X193985200Y-78066800D02*
X195066500Y-79148100D01*
%TO.N,/BUT1*%
X192988300Y-79149600D02*
X192910300Y-79227600D01*
X192910300Y-79227600D02*
X192910300Y-84677800D01*
X169212500Y-98572300D02*
X168001500Y-99783300D01*
X168001500Y-99783300D02*
X168001500Y-106379400D01*
X168001500Y-106379400D02*
X167481400Y-106899500D01*
X167481400Y-106899500D02*
X166034000Y-106899500D01*
X166034000Y-106899500D02*
X165179500Y-106045000D01*
%TO.N,/CS*%
X193040000Y-99060000D02*
X190405400Y-96425400D01*
X190405400Y-96425400D02*
X190405400Y-94122700D01*
X190405400Y-94122700D02*
X184230600Y-87947900D01*
%TO.N,/MOSI*%
X186489400Y-83012200D02*
X186054600Y-83447000D01*
X186054600Y-83447000D02*
X186054600Y-83584000D01*
X186054600Y-83584000D02*
X185360100Y-84278500D01*
X185360100Y-84278500D02*
X185360100Y-84415500D01*
X191675300Y-99060000D02*
X191675300Y-99691000D01*
X191675300Y-99691000D02*
X197299700Y-105315400D01*
X197299700Y-105315400D02*
X198587900Y-105315400D01*
X198587900Y-105315400D02*
X199390000Y-104513300D01*
X199390000Y-104513300D02*
X199390000Y-97852400D01*
X199390000Y-97852400D02*
X200597100Y-96645300D01*
X200597100Y-96645300D02*
X200597100Y-94740000D01*
X200597100Y-94740000D02*
X188820400Y-82963300D01*
X188820400Y-82963300D02*
X186538300Y-82963300D01*
X186538300Y-82963300D02*
X186489400Y-83012200D01*
X186489400Y-83012200D02*
X182431800Y-78954700D01*
X190500000Y-99060000D02*
X191675300Y-99060000D01*
%TO.N,/EXTCOMIN*%
X180693400Y-78859500D02*
X184238100Y-82404200D01*
X184238100Y-82404200D02*
X184238100Y-84389400D01*
X195580000Y-99060000D02*
X195580000Y-94822200D01*
X195580000Y-94822200D02*
X191402700Y-90644900D01*
X191402700Y-90644900D02*
X190493600Y-90644900D01*
X190493600Y-90644900D02*
X184238100Y-84389400D01*
%TO.N,/SCK*%
X183072700Y-88123000D02*
X176827700Y-81878000D01*
X176827700Y-81878000D02*
X176827700Y-79275100D01*
X187960000Y-99060000D02*
X187960000Y-93010300D01*
X187960000Y-93010300D02*
X183072700Y-88123000D01*
%TO.N,/BUT2*%
X191770000Y-95250000D02*
X191770000Y-96425300D01*
X198120000Y-104497500D02*
X197181000Y-104497500D01*
X197181000Y-104497500D02*
X194310000Y-101626500D01*
X194310000Y-101626500D02*
X194310000Y-98598000D01*
X194310000Y-98598000D02*
X192137300Y-96425300D01*
X192137300Y-96425300D02*
X191770000Y-96425300D01*
X191770000Y-95250000D02*
X191770000Y-94074700D01*
X191770000Y-94074700D02*
X178237400Y-80542100D01*
X178237400Y-80542100D02*
X177602300Y-80542100D01*
%TO.N,/BUT3*%
X162968100Y-78954300D02*
X162687800Y-78674000D01*
X162687800Y-78674000D02*
X158410700Y-78674000D01*
X158410700Y-78674000D02*
X157885500Y-79199200D01*
X157885500Y-79199200D02*
X157885500Y-90590600D01*
X157885500Y-90590600D02*
X153749000Y-94727100D01*
X153749000Y-94727100D02*
X153749000Y-97018200D01*
X153749000Y-97018200D02*
X152906300Y-97860900D01*
X152906300Y-97860900D02*
X152906300Y-109994200D01*
X152906300Y-109994200D02*
X154164100Y-111252000D01*
X154164100Y-111252000D02*
X155655500Y-111252000D01*
X162968100Y-78954300D02*
X163393300Y-78529100D01*
X163393300Y-78529100D02*
X177142200Y-78529100D01*
X177142200Y-78529100D02*
X193134700Y-94521600D01*
X193134700Y-94521600D02*
X193134700Y-95250000D01*
X194310000Y-95250000D02*
X193134700Y-95250000D01*
%TO.N,/BUT4*%
X196850000Y-95250000D02*
X196850000Y-100050900D01*
X196850000Y-100050900D02*
X195328100Y-101572800D01*
X167085500Y-111125000D02*
X165812400Y-111125000D01*
X165812400Y-111125000D02*
X165389400Y-110702000D01*
%TO.N,/BUT5*%
X170991500Y-98272000D02*
X170538000Y-97818500D01*
X170538000Y-97818500D02*
X170538000Y-96782900D01*
X170538000Y-96782900D02*
X169640100Y-95885000D01*
X169640100Y-95885000D02*
X169552000Y-95885000D01*
X169552000Y-95885000D02*
X165298900Y-91631900D01*
X165298900Y-91631900D02*
X165298900Y-85983800D01*
X165298900Y-85983800D02*
X158714400Y-79399300D01*
X169625500Y-100330000D02*
X170991500Y-98964000D01*
X170991500Y-98964000D02*
X170991500Y-98272000D01*
%TO.N,/EXTMODE*%
X164541500Y-91377300D02*
X164541500Y-92426200D01*
X164541500Y-92426200D02*
X157272700Y-99695000D01*
X157272700Y-99695000D02*
X155574500Y-99695000D01*
%TO.N,Net-(R2-Pad1)*%
X203200000Y-108855000D02*
X206024500Y-108855000D01*
X206024500Y-108855000D02*
X208915000Y-105964500D01*
X198120000Y-106322500D02*
X200652500Y-108855000D01*
X200652500Y-108855000D02*
X203200000Y-108855000D01*
%TO.N,Net-(R4-Pad1)*%
X164734500Y-103775000D02*
X167004500Y-106045000D01*
X162560000Y-103775000D02*
X164734500Y-103775000D01*
X164734500Y-103775000D02*
X164734500Y-101934300D01*
X164734500Y-101934300D02*
X169513800Y-97155000D01*
X169513800Y-97155000D02*
X169625500Y-97155000D01*
%TO.N,Net-(R8-Pad1)*%
X158472500Y-106045000D02*
X158440300Y-106045000D01*
X158440300Y-106045000D02*
X155630300Y-108855000D01*
X154305000Y-108855000D02*
X155630300Y-108855000D01*
X155630300Y-108855000D02*
X155630300Y-109401800D01*
X155630300Y-109401800D02*
X157480500Y-111252000D01*
%TO.N,Net-(R10-Pad1)*%
X162560000Y-113935000D02*
X166100500Y-113935000D01*
X166100500Y-113935000D02*
X168910500Y-111125000D01*
X168910500Y-111125000D02*
X171649900Y-111125000D01*
X171649900Y-111125000D02*
X174817600Y-107957300D01*
X174817600Y-107957300D02*
X174817600Y-99237400D01*
X174817600Y-99237400D02*
X171465200Y-95885000D01*
X171465200Y-95885000D02*
X170895500Y-95885000D01*
X170895500Y-95885000D02*
X169625500Y-94615000D01*
%TO.N,Net-(R11-Pad1)*%
X173989500Y-100330000D02*
X171450500Y-100330000D01*
X171450000Y-107529700D02*
X173989500Y-104990200D01*
X173989500Y-104990200D02*
X173989500Y-100330000D01*
X171450000Y-108855000D02*
X171450000Y-107529700D01*
%TO.N,Net-(D1-Pad1)*%
X178715500Y-99805000D02*
X181304700Y-102394200D01*
X181304700Y-102394200D02*
X181304700Y-104647800D01*
X181304700Y-104647800D02*
X178567500Y-107385000D01*
%TO.N,/LEDYellow*%
X186901500Y-79522800D02*
X186901500Y-79694900D01*
X186901500Y-79694900D02*
X192712100Y-85505500D01*
X192712100Y-85505500D02*
X195679300Y-85505500D01*
X195679300Y-85505500D02*
X204375400Y-94201600D01*
X204375400Y-94201600D02*
X204375400Y-100864900D01*
X204375400Y-100864900D02*
X205568800Y-102058300D01*
X180340500Y-99805000D02*
X180340500Y-100312200D01*
X180340500Y-100312200D02*
X181164300Y-101136000D01*
%TO.N,/LEDPink*%
X180340500Y-102870000D02*
X174272100Y-96801600D01*
X174272100Y-96801600D02*
X174272100Y-85839400D01*
X174272100Y-85839400D02*
X167687500Y-79254800D01*
%TO.N,Net-(D2-Pad1)*%
X183017500Y-107435000D02*
X182243800Y-108208700D01*
X182243800Y-108208700D02*
X178068700Y-108208700D01*
X178068700Y-108208700D02*
X177700800Y-107840800D01*
X177700800Y-107840800D02*
X177700800Y-103884700D01*
X177700800Y-103884700D02*
X178715500Y-102870000D01*
%TO.N,Net-(D3-Pad1)*%
X182525500Y-99805000D02*
X185658900Y-102938400D01*
X185658900Y-102938400D02*
X185658900Y-110364500D01*
X185658900Y-110364500D02*
X185247000Y-110776400D01*
X185247000Y-110776400D02*
X179448900Y-110776400D01*
X179448900Y-110776400D02*
X178567500Y-109895000D01*
%TO.N,/LEDYellow2*%
X184150500Y-99805000D02*
X186145700Y-101800200D01*
X186145700Y-101800200D02*
X186145700Y-110516000D01*
X186145700Y-110516000D02*
X185425100Y-111236600D01*
X185425100Y-111236600D02*
X178599400Y-111236600D01*
X178599400Y-111236600D02*
X177234600Y-109871800D01*
X177234600Y-109871800D02*
X177234600Y-100433800D01*
X177234600Y-100433800D02*
X173624600Y-96823800D01*
X173624600Y-96823800D02*
X173624600Y-89054900D01*
X173624600Y-89054900D02*
X166024300Y-81454600D01*
%TO.N,/LEDPink2*%
X184150500Y-102870000D02*
X181433000Y-100152500D01*
X181433000Y-100152500D02*
X181433000Y-99458800D01*
X181433000Y-99458800D02*
X180247800Y-98273600D01*
X180247800Y-98273600D02*
X176728100Y-98273600D01*
X176728100Y-98273600D02*
X175088000Y-96633500D01*
X175088000Y-96633500D02*
X175088000Y-80562300D01*
X175088000Y-80562300D02*
X173817300Y-79291600D01*
%TO.N,Net-(D4-Pad1)*%
X182525500Y-102870000D02*
X183865500Y-104210000D01*
X183865500Y-104210000D02*
X183865500Y-108997000D01*
X183865500Y-108997000D02*
X182917500Y-109945000D01*
%TD*%
D15*
%TO.N,GND*%
X213477869Y-48934722D02*
X213591246Y-48968953D01*
X213695819Y-49024555D01*
X213787596Y-49099407D01*
X213863091Y-49190664D01*
X213919419Y-49294844D01*
X213954440Y-49407976D01*
X213970000Y-49556022D01*
X213970001Y-114267711D01*
X213955278Y-114417869D01*
X213921047Y-114531246D01*
X213865446Y-114635817D01*
X213790594Y-114727595D01*
X213699335Y-114803091D01*
X213595160Y-114859419D01*
X213482024Y-114894440D01*
X213333979Y-114910000D01*
X164198072Y-114910000D01*
X164198072Y-114695000D01*
X166063178Y-114695000D01*
X166100500Y-114698676D01*
X166137822Y-114695000D01*
X166137833Y-114695000D01*
X166249486Y-114684003D01*
X166392747Y-114640546D01*
X166524776Y-114569974D01*
X166640501Y-114475001D01*
X166664304Y-114445997D01*
X168519957Y-112590344D01*
X209951000Y-112590344D01*
X209951000Y-112961656D01*
X210023439Y-113325834D01*
X210165534Y-113668882D01*
X210371825Y-113977618D01*
X210634382Y-114240175D01*
X210943118Y-114446466D01*
X211286166Y-114588561D01*
X211650344Y-114661000D01*
X212021656Y-114661000D01*
X212385834Y-114588561D01*
X212728882Y-114446466D01*
X213037618Y-114240175D01*
X213300175Y-113977618D01*
X213506466Y-113668882D01*
X213648561Y-113325834D01*
X213721000Y-112961656D01*
X213721000Y-112590344D01*
X213648561Y-112226166D01*
X213506466Y-111883118D01*
X213300175Y-111574382D01*
X213037618Y-111311825D01*
X212728882Y-111105534D01*
X212385834Y-110963439D01*
X212021656Y-110891000D01*
X211650344Y-110891000D01*
X211286166Y-110963439D01*
X210943118Y-111105534D01*
X210634382Y-111311825D01*
X210371825Y-111574382D01*
X210165534Y-111883118D01*
X210023439Y-112226166D01*
X209951000Y-112590344D01*
X168519957Y-112590344D01*
X168872230Y-112238072D01*
X169160500Y-112238072D01*
X169331316Y-112221248D01*
X169495567Y-112171423D01*
X169646942Y-112090512D01*
X169779623Y-111981623D01*
X169858920Y-111885000D01*
X171612578Y-111885000D01*
X171649900Y-111888676D01*
X171687222Y-111885000D01*
X171687233Y-111885000D01*
X171798886Y-111874003D01*
X171942147Y-111830546D01*
X172074176Y-111759974D01*
X172189901Y-111665001D01*
X172213704Y-111635997D01*
X175328604Y-108521098D01*
X175357601Y-108497301D01*
X175452574Y-108381576D01*
X175523146Y-108249547D01*
X175566603Y-108106286D01*
X175577600Y-107994633D01*
X175577600Y-107994624D01*
X175581276Y-107957301D01*
X175577600Y-107919978D01*
X175577600Y-101391150D01*
X175687500Y-101281250D01*
X175687500Y-100457000D01*
X175667500Y-100457000D01*
X175667500Y-100203000D01*
X175687500Y-100203000D01*
X175687500Y-100183000D01*
X175908998Y-100183000D01*
X175961500Y-100235502D01*
X175961500Y-100457000D01*
X175941500Y-100457000D01*
X175941500Y-101281250D01*
X176100250Y-101440000D01*
X176302000Y-101443072D01*
X176426482Y-101430812D01*
X176474601Y-101416215D01*
X176474600Y-109834478D01*
X176470924Y-109871800D01*
X176474600Y-109909122D01*
X176474600Y-109909132D01*
X176485597Y-110020785D01*
X176522726Y-110143185D01*
X176529054Y-110164046D01*
X176599626Y-110296076D01*
X176618666Y-110319276D01*
X176694599Y-110411801D01*
X176723603Y-110435604D01*
X178035601Y-111747603D01*
X178059399Y-111776601D01*
X178175124Y-111871574D01*
X178307153Y-111942146D01*
X178450414Y-111985603D01*
X178562067Y-111996600D01*
X178562075Y-111996600D01*
X178599400Y-112000276D01*
X178636725Y-111996600D01*
X185387778Y-111996600D01*
X185425100Y-112000276D01*
X185462422Y-111996600D01*
X185462433Y-111996600D01*
X185574086Y-111985603D01*
X185717347Y-111942146D01*
X185849376Y-111871574D01*
X185965101Y-111776601D01*
X185988903Y-111747598D01*
X186656702Y-111079799D01*
X186685701Y-111056001D01*
X186780674Y-110940276D01*
X186851246Y-110808247D01*
X186894703Y-110664986D01*
X186905700Y-110553333D01*
X186905700Y-110553324D01*
X186909376Y-110516001D01*
X186905700Y-110478678D01*
X186905700Y-101837523D01*
X186909376Y-101800200D01*
X186905700Y-101762877D01*
X186905700Y-101762867D01*
X186894703Y-101651214D01*
X186851246Y-101507953D01*
X186814924Y-101440000D01*
X186780674Y-101375923D01*
X186709499Y-101289197D01*
X186685701Y-101260199D01*
X186656704Y-101236402D01*
X185401072Y-99980771D01*
X185401072Y-99592500D01*
X185384728Y-99426562D01*
X185336326Y-99267000D01*
X185257725Y-99119948D01*
X185151945Y-98991055D01*
X185023052Y-98885275D01*
X184876000Y-98806674D01*
X184716438Y-98758272D01*
X184550500Y-98741928D01*
X183750500Y-98741928D01*
X183584562Y-98758272D01*
X183425000Y-98806674D01*
X183338000Y-98853177D01*
X183251000Y-98806674D01*
X183091438Y-98758272D01*
X182925500Y-98741928D01*
X182125500Y-98741928D01*
X181959562Y-98758272D01*
X181842718Y-98793716D01*
X180811604Y-97762603D01*
X180787801Y-97733599D01*
X180672076Y-97638626D01*
X180540047Y-97568054D01*
X180396786Y-97524597D01*
X180377526Y-97522700D01*
X186957105Y-97522700D01*
X186988150Y-97519642D01*
X186991105Y-97519663D01*
X187001318Y-97518662D01*
X187049201Y-97513629D01*
X187065085Y-97512065D01*
X187065615Y-97511904D01*
X187098367Y-97508462D01*
X187163644Y-97495062D01*
X187200000Y-97488127D01*
X187200000Y-97571928D01*
X187110000Y-97571928D01*
X186985518Y-97584188D01*
X186865820Y-97620498D01*
X186755506Y-97679463D01*
X186658815Y-97758815D01*
X186579463Y-97855506D01*
X186520498Y-97965820D01*
X186484188Y-98085518D01*
X186471928Y-98210000D01*
X186471928Y-99910000D01*
X186484188Y-100034482D01*
X186520498Y-100154180D01*
X186579463Y-100264494D01*
X186658815Y-100361185D01*
X186755506Y-100440537D01*
X186865820Y-100499502D01*
X186985518Y-100535812D01*
X187110000Y-100548072D01*
X188810000Y-100548072D01*
X188934482Y-100535812D01*
X189054180Y-100499502D01*
X189164494Y-100440537D01*
X189261185Y-100361185D01*
X189340537Y-100264494D01*
X189399502Y-100154180D01*
X189421513Y-100081620D01*
X189553368Y-100213475D01*
X189796589Y-100375990D01*
X190066842Y-100487932D01*
X190353740Y-100545000D01*
X190646260Y-100545000D01*
X190933158Y-100487932D01*
X191203411Y-100375990D01*
X191252613Y-100343114D01*
X196735901Y-105826403D01*
X196759699Y-105855401D01*
X196875424Y-105950374D01*
X197007453Y-106020946D01*
X197011874Y-106022287D01*
X197006928Y-106072500D01*
X197006928Y-106572500D01*
X197023752Y-106743316D01*
X197073577Y-106907567D01*
X197154488Y-107058942D01*
X197263377Y-107191623D01*
X197396058Y-107300512D01*
X197547433Y-107381423D01*
X197711684Y-107431248D01*
X197882500Y-107448072D01*
X198170771Y-107448072D01*
X200088701Y-109366003D01*
X200112499Y-109395001D01*
X200228224Y-109489974D01*
X200360253Y-109560546D01*
X200503514Y-109604003D01*
X200615167Y-109615000D01*
X200615177Y-109615000D01*
X200652500Y-109618676D01*
X200689823Y-109615000D01*
X201561928Y-109615000D01*
X201561928Y-109855000D01*
X201574188Y-109979482D01*
X201610498Y-110099180D01*
X201669463Y-110209494D01*
X201748815Y-110306185D01*
X201845506Y-110385537D01*
X201955820Y-110444502D01*
X202075518Y-110480812D01*
X202200000Y-110493072D01*
X204200000Y-110493072D01*
X204324482Y-110480812D01*
X204444180Y-110444502D01*
X204554494Y-110385537D01*
X204651185Y-110306185D01*
X204730537Y-110209494D01*
X204789502Y-110099180D01*
X204825812Y-109979482D01*
X204838072Y-109855000D01*
X204838072Y-109615000D01*
X205987178Y-109615000D01*
X206024500Y-109618676D01*
X206061822Y-109615000D01*
X206061833Y-109615000D01*
X206173486Y-109604003D01*
X206316747Y-109560546D01*
X206448776Y-109489974D01*
X206564501Y-109395001D01*
X206588304Y-109365997D01*
X208864230Y-107090072D01*
X209152500Y-107090072D01*
X209323316Y-107073248D01*
X209487567Y-107023423D01*
X209638942Y-106942512D01*
X209771623Y-106833623D01*
X209880512Y-106700942D01*
X209961423Y-106549567D01*
X210011248Y-106385316D01*
X210028072Y-106214500D01*
X210028072Y-105714500D01*
X210011248Y-105543684D01*
X209961423Y-105379433D01*
X209880512Y-105228058D01*
X209791188Y-105119217D01*
X209841185Y-105078185D01*
X209920537Y-104981494D01*
X209979502Y-104871180D01*
X210015812Y-104751482D01*
X210028072Y-104627000D01*
X210025000Y-104425250D01*
X209866250Y-104266500D01*
X209042000Y-104266500D01*
X209042000Y-104286500D01*
X208788000Y-104286500D01*
X208788000Y-104266500D01*
X207963750Y-104266500D01*
X207805000Y-104425250D01*
X207801928Y-104627000D01*
X207814188Y-104751482D01*
X207850498Y-104871180D01*
X207909463Y-104981494D01*
X207988815Y-105078185D01*
X208038812Y-105119217D01*
X207949488Y-105228058D01*
X207868577Y-105379433D01*
X207818752Y-105543684D01*
X207801928Y-105714500D01*
X207801928Y-106002770D01*
X205709699Y-108095000D01*
X204838072Y-108095000D01*
X204838072Y-107855000D01*
X204825812Y-107730518D01*
X204789502Y-107610820D01*
X204730537Y-107500506D01*
X204651185Y-107403815D01*
X204554494Y-107324463D01*
X204444180Y-107265498D01*
X204324482Y-107229188D01*
X204200000Y-107216928D01*
X202200000Y-107216928D01*
X202075518Y-107229188D01*
X201955820Y-107265498D01*
X201845506Y-107324463D01*
X201748815Y-107403815D01*
X201669463Y-107500506D01*
X201610498Y-107610820D01*
X201574188Y-107730518D01*
X201561928Y-107855000D01*
X201561928Y-108095000D01*
X200967302Y-108095000D01*
X199233072Y-106360771D01*
X199233072Y-106072500D01*
X199216248Y-105901684D01*
X199183703Y-105794398D01*
X199901004Y-105077098D01*
X199930001Y-105053301D01*
X200024974Y-104937576D01*
X200095546Y-104805547D01*
X200139003Y-104662286D01*
X200150000Y-104550633D01*
X200150000Y-104550625D01*
X200153676Y-104513300D01*
X200150000Y-104475975D01*
X200150000Y-100456103D01*
X200226842Y-100487932D01*
X200513740Y-100545000D01*
X200806260Y-100545000D01*
X201093158Y-100487932D01*
X201136549Y-100469959D01*
X201200326Y-100589276D01*
X201201660Y-100590901D01*
X201295299Y-100705001D01*
X201324303Y-100728804D01*
X201894026Y-101298528D01*
X201845506Y-101324463D01*
X201748815Y-101403815D01*
X201669463Y-101500506D01*
X201610498Y-101610820D01*
X201574188Y-101730518D01*
X201561928Y-101855000D01*
X201561928Y-103855000D01*
X201574188Y-103979482D01*
X201610498Y-104099180D01*
X201669463Y-104209494D01*
X201748815Y-104306185D01*
X201845506Y-104385537D01*
X201955820Y-104444502D01*
X202075518Y-104480812D01*
X202200000Y-104493072D01*
X204200000Y-104493072D01*
X204324482Y-104480812D01*
X204444180Y-104444502D01*
X204554494Y-104385537D01*
X204651185Y-104306185D01*
X204730537Y-104209494D01*
X204789502Y-104099180D01*
X204825812Y-103979482D01*
X204838072Y-103855000D01*
X204838072Y-103652000D01*
X207801928Y-103652000D01*
X207805000Y-103853750D01*
X207963750Y-104012500D01*
X208788000Y-104012500D01*
X208788000Y-103175750D01*
X209042000Y-103175750D01*
X209042000Y-104012500D01*
X209866250Y-104012500D01*
X210025000Y-103853750D01*
X210028072Y-103652000D01*
X210015812Y-103527518D01*
X209979502Y-103407820D01*
X209920537Y-103297506D01*
X209841185Y-103200815D01*
X209744494Y-103121463D01*
X209634180Y-103062498D01*
X209514482Y-103026188D01*
X209390000Y-103013928D01*
X209200750Y-103017000D01*
X209042000Y-103175750D01*
X208788000Y-103175750D01*
X208629250Y-103017000D01*
X208440000Y-103013928D01*
X208315518Y-103026188D01*
X208195820Y-103062498D01*
X208085506Y-103121463D01*
X207988815Y-103200815D01*
X207909463Y-103297506D01*
X207850498Y-103407820D01*
X207814188Y-103527518D01*
X207801928Y-103652000D01*
X204838072Y-103652000D01*
X204838072Y-102791283D01*
X204909026Y-102862237D01*
X205078544Y-102975505D01*
X205266902Y-103053526D01*
X205466861Y-103093300D01*
X205670739Y-103093300D01*
X205870698Y-103053526D01*
X206059056Y-102975505D01*
X206228574Y-102862237D01*
X206372737Y-102718074D01*
X206486005Y-102548556D01*
X206564026Y-102360198D01*
X206603800Y-102160239D01*
X206603800Y-101956361D01*
X206564026Y-101756402D01*
X206486005Y-101568044D01*
X206372737Y-101398526D01*
X206228574Y-101254363D01*
X206059056Y-101141095D01*
X205870698Y-101063074D01*
X205670739Y-101023300D01*
X205608602Y-101023300D01*
X205135400Y-100550099D01*
X205135400Y-100416919D01*
X205306842Y-100487932D01*
X205593740Y-100545000D01*
X205886260Y-100545000D01*
X206173158Y-100487932D01*
X206443411Y-100375990D01*
X206686632Y-100213475D01*
X206893475Y-100006632D01*
X207015195Y-99824466D01*
X207084822Y-99941355D01*
X207279731Y-100157588D01*
X207513080Y-100331641D01*
X207775901Y-100456825D01*
X207923110Y-100501476D01*
X208153000Y-100380155D01*
X208153000Y-99187000D01*
X208407000Y-99187000D01*
X208407000Y-100380155D01*
X208636890Y-100501476D01*
X208784099Y-100456825D01*
X209046920Y-100331641D01*
X209280269Y-100157588D01*
X209475178Y-99941355D01*
X209550000Y-99815745D01*
X209624822Y-99941355D01*
X209819731Y-100157588D01*
X210053080Y-100331641D01*
X210315901Y-100456825D01*
X210463110Y-100501476D01*
X210693000Y-100380155D01*
X210693000Y-99187000D01*
X210947000Y-99187000D01*
X210947000Y-100380155D01*
X211176890Y-100501476D01*
X211324099Y-100456825D01*
X211586920Y-100331641D01*
X211820269Y-100157588D01*
X212015178Y-99941355D01*
X212164157Y-99691252D01*
X212261481Y-99416891D01*
X212140814Y-99187000D01*
X210947000Y-99187000D01*
X210693000Y-99187000D01*
X208407000Y-99187000D01*
X208153000Y-99187000D01*
X208133000Y-99187000D01*
X208133000Y-98933000D01*
X208153000Y-98933000D01*
X208153000Y-97739845D01*
X208407000Y-97739845D01*
X208407000Y-98933000D01*
X210693000Y-98933000D01*
X210693000Y-97739845D01*
X210947000Y-97739845D01*
X210947000Y-98933000D01*
X212140814Y-98933000D01*
X212261481Y-98703109D01*
X212164157Y-98428748D01*
X212015178Y-98178645D01*
X211820269Y-97962412D01*
X211586920Y-97788359D01*
X211324099Y-97663175D01*
X211176890Y-97618524D01*
X210947000Y-97739845D01*
X210693000Y-97739845D01*
X210463110Y-97618524D01*
X210315901Y-97663175D01*
X210053080Y-97788359D01*
X209819731Y-97962412D01*
X209624822Y-98178645D01*
X209550000Y-98304255D01*
X209475178Y-98178645D01*
X209280269Y-97962412D01*
X209046920Y-97788359D01*
X208784099Y-97663175D01*
X208636890Y-97618524D01*
X208407000Y-97739845D01*
X208153000Y-97739845D01*
X207923110Y-97618524D01*
X207775901Y-97663175D01*
X207513080Y-97788359D01*
X207279731Y-97962412D01*
X207084822Y-98178645D01*
X207015195Y-98295534D01*
X206893475Y-98113368D01*
X206686632Y-97906525D01*
X206443411Y-97744010D01*
X206173158Y-97632068D01*
X205886260Y-97575000D01*
X205593740Y-97575000D01*
X205306842Y-97632068D01*
X205135400Y-97703081D01*
X205135400Y-96606919D01*
X205306842Y-96677932D01*
X205593740Y-96735000D01*
X205886260Y-96735000D01*
X206173158Y-96677932D01*
X206443411Y-96565990D01*
X206686632Y-96403475D01*
X206893475Y-96196632D01*
X207015195Y-96014466D01*
X207084822Y-96131355D01*
X207279731Y-96347588D01*
X207513080Y-96521641D01*
X207775901Y-96646825D01*
X207923110Y-96691476D01*
X208153000Y-96570155D01*
X208153000Y-95377000D01*
X208407000Y-95377000D01*
X208407000Y-96570155D01*
X208636890Y-96691476D01*
X208784099Y-96646825D01*
X209046920Y-96521641D01*
X209280269Y-96347588D01*
X209475178Y-96131355D01*
X209550000Y-96005745D01*
X209624822Y-96131355D01*
X209819731Y-96347588D01*
X210053080Y-96521641D01*
X210315901Y-96646825D01*
X210463110Y-96691476D01*
X210693000Y-96570155D01*
X210693000Y-95377000D01*
X210947000Y-95377000D01*
X210947000Y-96570155D01*
X211176890Y-96691476D01*
X211324099Y-96646825D01*
X211586920Y-96521641D01*
X211820269Y-96347588D01*
X212015178Y-96131355D01*
X212164157Y-95881252D01*
X212261481Y-95606891D01*
X212140814Y-95377000D01*
X210947000Y-95377000D01*
X210693000Y-95377000D01*
X208407000Y-95377000D01*
X208153000Y-95377000D01*
X208133000Y-95377000D01*
X208133000Y-95123000D01*
X208153000Y-95123000D01*
X208153000Y-93929845D01*
X208407000Y-93929845D01*
X208407000Y-95123000D01*
X210693000Y-95123000D01*
X210693000Y-93929845D01*
X210947000Y-93929845D01*
X210947000Y-95123000D01*
X212140814Y-95123000D01*
X212261481Y-94893109D01*
X212164157Y-94618748D01*
X212015178Y-94368645D01*
X211820269Y-94152412D01*
X211586920Y-93978359D01*
X211324099Y-93853175D01*
X211176890Y-93808524D01*
X210947000Y-93929845D01*
X210693000Y-93929845D01*
X210463110Y-93808524D01*
X210315901Y-93853175D01*
X210053080Y-93978359D01*
X209819731Y-94152412D01*
X209624822Y-94368645D01*
X209550000Y-94494255D01*
X209475178Y-94368645D01*
X209280269Y-94152412D01*
X209046920Y-93978359D01*
X208784099Y-93853175D01*
X208636890Y-93808524D01*
X208407000Y-93929845D01*
X208153000Y-93929845D01*
X207923110Y-93808524D01*
X207775901Y-93853175D01*
X207513080Y-93978359D01*
X207279731Y-94152412D01*
X207084822Y-94368645D01*
X207015195Y-94485534D01*
X206893475Y-94303368D01*
X206686632Y-94096525D01*
X206443411Y-93934010D01*
X206173158Y-93822068D01*
X205886260Y-93765000D01*
X205593740Y-93765000D01*
X205306842Y-93822068D01*
X205082639Y-93914935D01*
X205080946Y-93909353D01*
X205010374Y-93777324D01*
X204915401Y-93661599D01*
X204886404Y-93637802D01*
X196243104Y-84994503D01*
X196219301Y-84965499D01*
X196103576Y-84870526D01*
X195971547Y-84799954D01*
X195828286Y-84756497D01*
X195716633Y-84745500D01*
X195716622Y-84745500D01*
X195679300Y-84741824D01*
X195641978Y-84745500D01*
X193945300Y-84745500D01*
X193945300Y-84575861D01*
X193905526Y-84375902D01*
X193827505Y-84187544D01*
X193714237Y-84018026D01*
X193670300Y-83974089D01*
X193670300Y-79931311D01*
X193792237Y-79809374D01*
X193905505Y-79639856D01*
X193983526Y-79451498D01*
X194023300Y-79251539D01*
X194023300Y-79179702D01*
X194031500Y-79187902D01*
X194031500Y-79250039D01*
X194071274Y-79449998D01*
X194149295Y-79638356D01*
X194262563Y-79807874D01*
X194406726Y-79952037D01*
X194576244Y-80065305D01*
X194764602Y-80143326D01*
X194964561Y-80183100D01*
X195168439Y-80183100D01*
X195368398Y-80143326D01*
X195556756Y-80065305D01*
X195726274Y-79952037D01*
X195870437Y-79807874D01*
X195983705Y-79638356D01*
X196061726Y-79449998D01*
X196101500Y-79250039D01*
X196101500Y-79046161D01*
X196061726Y-78846202D01*
X195983705Y-78657844D01*
X195870437Y-78488326D01*
X195726274Y-78344163D01*
X195723186Y-78342100D01*
X196290599Y-78342100D01*
X197050000Y-79101502D01*
X197050000Y-79163639D01*
X197089774Y-79363598D01*
X197167795Y-79551956D01*
X197281063Y-79721474D01*
X197425226Y-79865637D01*
X197594744Y-79978905D01*
X197783102Y-80056926D01*
X197983061Y-80096700D01*
X198186939Y-80096700D01*
X198386898Y-80056926D01*
X198575256Y-79978905D01*
X198744774Y-79865637D01*
X198888937Y-79721474D01*
X199002205Y-79551956D01*
X199080226Y-79363598D01*
X199120000Y-79163639D01*
X199120000Y-78959761D01*
X199080226Y-78759802D01*
X199002205Y-78571444D01*
X198888937Y-78401926D01*
X198744774Y-78257763D01*
X198575256Y-78144495D01*
X198386898Y-78066474D01*
X198186939Y-78026700D01*
X198124802Y-78026700D01*
X197169203Y-77071102D01*
X197145401Y-77042099D01*
X197029676Y-76947126D01*
X196897647Y-76876554D01*
X196754386Y-76833097D01*
X196642733Y-76822100D01*
X196642722Y-76822100D01*
X196605400Y-76818424D01*
X196568078Y-76822100D01*
X158239622Y-76822100D01*
X158202299Y-76818424D01*
X158164976Y-76822100D01*
X158164967Y-76822100D01*
X158053314Y-76833097D01*
X157910053Y-76876554D01*
X157778024Y-76947126D01*
X157662299Y-77042099D01*
X157638501Y-77071097D01*
X151888998Y-82820601D01*
X151860000Y-82844399D01*
X151836202Y-82873397D01*
X151836201Y-82873398D01*
X151765026Y-82960124D01*
X151694454Y-83092154D01*
X151650998Y-83235415D01*
X151636324Y-83384400D01*
X151640001Y-83421732D01*
X151640000Y-93761928D01*
X151550000Y-93761928D01*
X151425518Y-93774188D01*
X151305820Y-93810498D01*
X151195506Y-93869463D01*
X151098815Y-93948815D01*
X151019463Y-94045506D01*
X150960498Y-94155820D01*
X150924188Y-94275518D01*
X150911928Y-94400000D01*
X150911928Y-96100000D01*
X150924188Y-96224482D01*
X150960498Y-96344180D01*
X151019463Y-96454494D01*
X151098815Y-96551185D01*
X151195506Y-96630537D01*
X151305820Y-96689502D01*
X151425518Y-96725812D01*
X151550000Y-96738072D01*
X152954326Y-96738072D01*
X152395302Y-97297097D01*
X152366299Y-97320899D01*
X152315742Y-97382503D01*
X152271326Y-97436624D01*
X152217513Y-97537300D01*
X152200754Y-97568654D01*
X152157297Y-97711915D01*
X152146300Y-97823568D01*
X152146300Y-97823578D01*
X152142624Y-97860900D01*
X152146300Y-97898222D01*
X152146301Y-109956868D01*
X152142624Y-109994200D01*
X152146301Y-110031533D01*
X152152230Y-110091725D01*
X152157298Y-110143185D01*
X152200754Y-110286446D01*
X152271326Y-110418476D01*
X152342501Y-110505202D01*
X152366300Y-110534201D01*
X152395298Y-110557999D01*
X153600301Y-111763003D01*
X153624099Y-111792001D01*
X153739824Y-111886974D01*
X153871853Y-111957546D01*
X154015114Y-112001003D01*
X154126767Y-112012000D01*
X154126777Y-112012000D01*
X154164100Y-112015676D01*
X154201423Y-112012000D01*
X154707080Y-112012000D01*
X154786377Y-112108623D01*
X154919058Y-112217512D01*
X155070433Y-112298423D01*
X155234684Y-112348248D01*
X155405500Y-112365072D01*
X155905500Y-112365072D01*
X156076316Y-112348248D01*
X156240567Y-112298423D01*
X156391942Y-112217512D01*
X156524623Y-112108623D01*
X156568000Y-112055768D01*
X156611377Y-112108623D01*
X156744058Y-112217512D01*
X156895433Y-112298423D01*
X157059684Y-112348248D01*
X157230500Y-112365072D01*
X157730500Y-112365072D01*
X157901316Y-112348248D01*
X158065567Y-112298423D01*
X158216942Y-112217512D01*
X158349623Y-112108623D01*
X158458512Y-111975942D01*
X158539423Y-111824567D01*
X158589248Y-111660316D01*
X158606072Y-111489500D01*
X158606072Y-111014500D01*
X158589248Y-110843684D01*
X158539423Y-110679433D01*
X158458512Y-110528058D01*
X158349623Y-110395377D01*
X158216942Y-110286488D01*
X158065567Y-110205577D01*
X157901316Y-110155752D01*
X157730500Y-110138928D01*
X157442230Y-110138928D01*
X156431701Y-109128400D01*
X158402030Y-107158072D01*
X158722500Y-107158072D01*
X158893316Y-107141248D01*
X159057567Y-107091423D01*
X159208942Y-107010512D01*
X159317783Y-106921188D01*
X159358815Y-106971185D01*
X159455506Y-107050537D01*
X159565820Y-107109502D01*
X159685518Y-107145812D01*
X159810000Y-107158072D01*
X160011750Y-107155000D01*
X160170500Y-106996250D01*
X160170500Y-106172000D01*
X160150500Y-106172000D01*
X160150500Y-105918000D01*
X160170500Y-105918000D01*
X160170500Y-105093750D01*
X160011750Y-104935000D01*
X159810000Y-104931928D01*
X159685518Y-104944188D01*
X159565820Y-104980498D01*
X159455506Y-105039463D01*
X159358815Y-105118815D01*
X159317783Y-105168812D01*
X159208942Y-105079488D01*
X159057567Y-104998577D01*
X158893316Y-104948752D01*
X158722500Y-104931928D01*
X158222500Y-104931928D01*
X158051684Y-104948752D01*
X157887433Y-104998577D01*
X157736058Y-105079488D01*
X157603377Y-105188377D01*
X157494488Y-105321058D01*
X157413577Y-105472433D01*
X157363752Y-105636684D01*
X157346928Y-105807500D01*
X157346928Y-106063570D01*
X155861472Y-107549027D01*
X155835537Y-107500506D01*
X155756185Y-107403815D01*
X155659494Y-107324463D01*
X155549180Y-107265498D01*
X155429482Y-107229188D01*
X155305000Y-107216928D01*
X153666300Y-107216928D01*
X153666300Y-104493072D01*
X155305000Y-104493072D01*
X155429482Y-104480812D01*
X155549180Y-104444502D01*
X155659494Y-104385537D01*
X155756185Y-104306185D01*
X155835537Y-104209494D01*
X155894502Y-104099180D01*
X155930812Y-103979482D01*
X155943072Y-103855000D01*
X155943072Y-103615000D01*
X160474700Y-103615000D01*
X160474701Y-105043549D01*
X160424500Y-105093750D01*
X160424500Y-105918000D01*
X160444500Y-105918000D01*
X160444500Y-106172000D01*
X160424500Y-106172000D01*
X160424500Y-106996250D01*
X160583250Y-107155000D01*
X160785000Y-107158072D01*
X160909482Y-107145812D01*
X160921928Y-107142037D01*
X160921928Y-108935000D01*
X160934188Y-109059482D01*
X160970498Y-109179180D01*
X161029463Y-109289494D01*
X161108815Y-109386185D01*
X161205506Y-109465537D01*
X161315820Y-109524502D01*
X161435518Y-109560812D01*
X161560000Y-109573072D01*
X163560000Y-109573072D01*
X163684482Y-109560812D01*
X163804180Y-109524502D01*
X163914494Y-109465537D01*
X164011185Y-109386185D01*
X164090537Y-109289494D01*
X164149502Y-109179180D01*
X164185812Y-109059482D01*
X164198072Y-108935000D01*
X164198072Y-108283300D01*
X168069678Y-108283300D01*
X168107000Y-108286976D01*
X168144322Y-108283300D01*
X168144333Y-108283300D01*
X168255986Y-108272303D01*
X168399247Y-108228846D01*
X168531276Y-108158274D01*
X168647001Y-108063301D01*
X168670804Y-108034297D01*
X171961003Y-104744099D01*
X171990001Y-104720301D01*
X172037613Y-104662286D01*
X172084974Y-104604577D01*
X172144575Y-104493072D01*
X172450000Y-104493072D01*
X172574482Y-104480812D01*
X172694180Y-104444502D01*
X172804494Y-104385537D01*
X172901185Y-104306185D01*
X172980537Y-104209494D01*
X173039502Y-104099180D01*
X173075812Y-103979482D01*
X173088072Y-103855000D01*
X173088072Y-101855000D01*
X173075812Y-101730518D01*
X173039502Y-101610820D01*
X172980537Y-101500506D01*
X172901185Y-101403815D01*
X172804494Y-101324463D01*
X172694180Y-101265498D01*
X172574482Y-101229188D01*
X172450000Y-101216928D01*
X172282696Y-101216928D01*
X172319623Y-101186623D01*
X172398920Y-101090000D01*
X173041080Y-101090000D01*
X173120377Y-101186623D01*
X173229501Y-101276179D01*
X173229500Y-104675398D01*
X170938998Y-106965901D01*
X170910000Y-106989699D01*
X170886202Y-107018697D01*
X170886201Y-107018698D01*
X170815026Y-107105424D01*
X170755425Y-107216928D01*
X170450000Y-107216928D01*
X170325518Y-107229188D01*
X170205820Y-107265498D01*
X170095506Y-107324463D01*
X169998815Y-107403815D01*
X169919463Y-107500506D01*
X169860498Y-107610820D01*
X169824188Y-107730518D01*
X169811928Y-107855000D01*
X169811928Y-109855000D01*
X169824188Y-109979482D01*
X169860498Y-110099180D01*
X169919463Y-110209494D01*
X169998815Y-110306185D01*
X170070482Y-110365000D01*
X169858920Y-110365000D01*
X169779623Y-110268377D01*
X169646942Y-110159488D01*
X169495567Y-110078577D01*
X169331316Y-110028752D01*
X169160500Y-110011928D01*
X168660500Y-110011928D01*
X168489684Y-110028752D01*
X168325433Y-110078577D01*
X168174058Y-110159488D01*
X168041377Y-110268377D01*
X167998000Y-110321232D01*
X167954623Y-110268377D01*
X167821942Y-110159488D01*
X167670567Y-110078577D01*
X167506316Y-110028752D01*
X167335500Y-110011928D01*
X166835500Y-110011928D01*
X166664684Y-110028752D01*
X166500433Y-110078577D01*
X166349058Y-110159488D01*
X166299090Y-110200496D01*
X166193337Y-110042226D01*
X166049174Y-109898063D01*
X165879656Y-109784795D01*
X165691298Y-109706774D01*
X165491339Y-109667000D01*
X165287461Y-109667000D01*
X165087502Y-109706774D01*
X164899144Y-109784795D01*
X164729626Y-109898063D01*
X164585463Y-110042226D01*
X164472195Y-110211744D01*
X164394174Y-110400102D01*
X164354400Y-110600061D01*
X164354400Y-110803939D01*
X164394174Y-111003898D01*
X164472195Y-111192256D01*
X164585463Y-111361774D01*
X164729626Y-111505937D01*
X164899144Y-111619205D01*
X165087502Y-111697226D01*
X165287461Y-111737000D01*
X165360130Y-111737000D01*
X165388124Y-111759974D01*
X165520153Y-111830546D01*
X165663414Y-111874003D01*
X165775067Y-111885000D01*
X165775076Y-111885000D01*
X165812399Y-111888676D01*
X165849722Y-111885000D01*
X166137080Y-111885000D01*
X166216377Y-111981623D01*
X166349058Y-112090512D01*
X166500433Y-112171423D01*
X166664684Y-112221248D01*
X166732747Y-112227952D01*
X165785699Y-113175000D01*
X164198072Y-113175000D01*
X164198072Y-112935000D01*
X164185812Y-112810518D01*
X164149502Y-112690820D01*
X164090537Y-112580506D01*
X164011185Y-112483815D01*
X163914494Y-112404463D01*
X163804180Y-112345498D01*
X163684482Y-112309188D01*
X163560000Y-112296928D01*
X161560000Y-112296928D01*
X161435518Y-112309188D01*
X161315820Y-112345498D01*
X161205506Y-112404463D01*
X161108815Y-112483815D01*
X161029463Y-112580506D01*
X160970498Y-112690820D01*
X160934188Y-112810518D01*
X160921928Y-112935000D01*
X160921928Y-114910000D01*
X149892279Y-114910000D01*
X149742131Y-114895278D01*
X149628754Y-114861047D01*
X149524183Y-114805446D01*
X149432405Y-114730594D01*
X149356909Y-114639335D01*
X149300581Y-114535160D01*
X149265560Y-114422024D01*
X149250000Y-114273979D01*
X149250000Y-112590344D01*
X149499000Y-112590344D01*
X149499000Y-112961656D01*
X149571439Y-113325834D01*
X149713534Y-113668882D01*
X149919825Y-113977618D01*
X150182382Y-114240175D01*
X150491118Y-114446466D01*
X150834166Y-114588561D01*
X151198344Y-114661000D01*
X151569656Y-114661000D01*
X151933834Y-114588561D01*
X152276882Y-114446466D01*
X152585618Y-114240175D01*
X152848175Y-113977618D01*
X153054466Y-113668882D01*
X153196561Y-113325834D01*
X153269000Y-112961656D01*
X153269000Y-112590344D01*
X153196561Y-112226166D01*
X153054466Y-111883118D01*
X152848175Y-111574382D01*
X152585618Y-111311825D01*
X152276882Y-111105534D01*
X151933834Y-110963439D01*
X151569656Y-110891000D01*
X151198344Y-110891000D01*
X150834166Y-110963439D01*
X150491118Y-111105534D01*
X150182382Y-111311825D01*
X149919825Y-111574382D01*
X149713534Y-111883118D01*
X149571439Y-112226166D01*
X149499000Y-112590344D01*
X149250000Y-112590344D01*
X149250000Y-49562279D01*
X149264722Y-49412131D01*
X149298953Y-49298754D01*
X149354555Y-49194181D01*
X149429407Y-49102404D01*
X149520664Y-49026909D01*
X149624844Y-48970581D01*
X149737976Y-48935560D01*
X149886022Y-48920000D01*
X213327721Y-48920000D01*
X213477869Y-48934722D01*
%TA.AperFunction,Conductor*%
D16*
G36*
X213477869Y-48934722D02*
G01*
X213591246Y-48968953D01*
X213695819Y-49024555D01*
X213787596Y-49099407D01*
X213863091Y-49190664D01*
X213919419Y-49294844D01*
X213954440Y-49407976D01*
X213970000Y-49556022D01*
X213970001Y-114267711D01*
X213955278Y-114417869D01*
X213921047Y-114531246D01*
X213865446Y-114635817D01*
X213790594Y-114727595D01*
X213699335Y-114803091D01*
X213595160Y-114859419D01*
X213482024Y-114894440D01*
X213333979Y-114910000D01*
X164198072Y-114910000D01*
X164198072Y-114695000D01*
X166063178Y-114695000D01*
X166100500Y-114698676D01*
X166137822Y-114695000D01*
X166137833Y-114695000D01*
X166249486Y-114684003D01*
X166392747Y-114640546D01*
X166524776Y-114569974D01*
X166640501Y-114475001D01*
X166664304Y-114445997D01*
X168519957Y-112590344D01*
X209951000Y-112590344D01*
X209951000Y-112961656D01*
X210023439Y-113325834D01*
X210165534Y-113668882D01*
X210371825Y-113977618D01*
X210634382Y-114240175D01*
X210943118Y-114446466D01*
X211286166Y-114588561D01*
X211650344Y-114661000D01*
X212021656Y-114661000D01*
X212385834Y-114588561D01*
X212728882Y-114446466D01*
X213037618Y-114240175D01*
X213300175Y-113977618D01*
X213506466Y-113668882D01*
X213648561Y-113325834D01*
X213721000Y-112961656D01*
X213721000Y-112590344D01*
X213648561Y-112226166D01*
X213506466Y-111883118D01*
X213300175Y-111574382D01*
X213037618Y-111311825D01*
X212728882Y-111105534D01*
X212385834Y-110963439D01*
X212021656Y-110891000D01*
X211650344Y-110891000D01*
X211286166Y-110963439D01*
X210943118Y-111105534D01*
X210634382Y-111311825D01*
X210371825Y-111574382D01*
X210165534Y-111883118D01*
X210023439Y-112226166D01*
X209951000Y-112590344D01*
X168519957Y-112590344D01*
X168872230Y-112238072D01*
X169160500Y-112238072D01*
X169331316Y-112221248D01*
X169495567Y-112171423D01*
X169646942Y-112090512D01*
X169779623Y-111981623D01*
X169858920Y-111885000D01*
X171612578Y-111885000D01*
X171649900Y-111888676D01*
X171687222Y-111885000D01*
X171687233Y-111885000D01*
X171798886Y-111874003D01*
X171942147Y-111830546D01*
X172074176Y-111759974D01*
X172189901Y-111665001D01*
X172213704Y-111635997D01*
X175328604Y-108521098D01*
X175357601Y-108497301D01*
X175452574Y-108381576D01*
X175523146Y-108249547D01*
X175566603Y-108106286D01*
X175577600Y-107994633D01*
X175577600Y-107994624D01*
X175581276Y-107957301D01*
X175577600Y-107919978D01*
X175577600Y-101391150D01*
X175687500Y-101281250D01*
X175687500Y-100457000D01*
X175667500Y-100457000D01*
X175667500Y-100203000D01*
X175687500Y-100203000D01*
X175687500Y-100183000D01*
X175908998Y-100183000D01*
X175961500Y-100235502D01*
X175961500Y-100457000D01*
X175941500Y-100457000D01*
X175941500Y-101281250D01*
X176100250Y-101440000D01*
X176302000Y-101443072D01*
X176426482Y-101430812D01*
X176474601Y-101416215D01*
X176474600Y-109834478D01*
X176470924Y-109871800D01*
X176474600Y-109909122D01*
X176474600Y-109909132D01*
X176485597Y-110020785D01*
X176522726Y-110143185D01*
X176529054Y-110164046D01*
X176599626Y-110296076D01*
X176618666Y-110319276D01*
X176694599Y-110411801D01*
X176723603Y-110435604D01*
X178035601Y-111747603D01*
X178059399Y-111776601D01*
X178175124Y-111871574D01*
X178307153Y-111942146D01*
X178450414Y-111985603D01*
X178562067Y-111996600D01*
X178562075Y-111996600D01*
X178599400Y-112000276D01*
X178636725Y-111996600D01*
X185387778Y-111996600D01*
X185425100Y-112000276D01*
X185462422Y-111996600D01*
X185462433Y-111996600D01*
X185574086Y-111985603D01*
X185717347Y-111942146D01*
X185849376Y-111871574D01*
X185965101Y-111776601D01*
X185988903Y-111747598D01*
X186656702Y-111079799D01*
X186685701Y-111056001D01*
X186780674Y-110940276D01*
X186851246Y-110808247D01*
X186894703Y-110664986D01*
X186905700Y-110553333D01*
X186905700Y-110553324D01*
X186909376Y-110516001D01*
X186905700Y-110478678D01*
X186905700Y-101837523D01*
X186909376Y-101800200D01*
X186905700Y-101762877D01*
X186905700Y-101762867D01*
X186894703Y-101651214D01*
X186851246Y-101507953D01*
X186814924Y-101440000D01*
X186780674Y-101375923D01*
X186709499Y-101289197D01*
X186685701Y-101260199D01*
X186656704Y-101236402D01*
X185401072Y-99980771D01*
X185401072Y-99592500D01*
X185384728Y-99426562D01*
X185336326Y-99267000D01*
X185257725Y-99119948D01*
X185151945Y-98991055D01*
X185023052Y-98885275D01*
X184876000Y-98806674D01*
X184716438Y-98758272D01*
X184550500Y-98741928D01*
X183750500Y-98741928D01*
X183584562Y-98758272D01*
X183425000Y-98806674D01*
X183338000Y-98853177D01*
X183251000Y-98806674D01*
X183091438Y-98758272D01*
X182925500Y-98741928D01*
X182125500Y-98741928D01*
X181959562Y-98758272D01*
X181842718Y-98793716D01*
X180811604Y-97762603D01*
X180787801Y-97733599D01*
X180672076Y-97638626D01*
X180540047Y-97568054D01*
X180396786Y-97524597D01*
X180377526Y-97522700D01*
X186957105Y-97522700D01*
X186988150Y-97519642D01*
X186991105Y-97519663D01*
X187001318Y-97518662D01*
X187049201Y-97513629D01*
X187065085Y-97512065D01*
X187065615Y-97511904D01*
X187098367Y-97508462D01*
X187163644Y-97495062D01*
X187200000Y-97488127D01*
X187200000Y-97571928D01*
X187110000Y-97571928D01*
X186985518Y-97584188D01*
X186865820Y-97620498D01*
X186755506Y-97679463D01*
X186658815Y-97758815D01*
X186579463Y-97855506D01*
X186520498Y-97965820D01*
X186484188Y-98085518D01*
X186471928Y-98210000D01*
X186471928Y-99910000D01*
X186484188Y-100034482D01*
X186520498Y-100154180D01*
X186579463Y-100264494D01*
X186658815Y-100361185D01*
X186755506Y-100440537D01*
X186865820Y-100499502D01*
X186985518Y-100535812D01*
X187110000Y-100548072D01*
X188810000Y-100548072D01*
X188934482Y-100535812D01*
X189054180Y-100499502D01*
X189164494Y-100440537D01*
X189261185Y-100361185D01*
X189340537Y-100264494D01*
X189399502Y-100154180D01*
X189421513Y-100081620D01*
X189553368Y-100213475D01*
X189796589Y-100375990D01*
X190066842Y-100487932D01*
X190353740Y-100545000D01*
X190646260Y-100545000D01*
X190933158Y-100487932D01*
X191203411Y-100375990D01*
X191252613Y-100343114D01*
X196735901Y-105826403D01*
X196759699Y-105855401D01*
X196875424Y-105950374D01*
X197007453Y-106020946D01*
X197011874Y-106022287D01*
X197006928Y-106072500D01*
X197006928Y-106572500D01*
X197023752Y-106743316D01*
X197073577Y-106907567D01*
X197154488Y-107058942D01*
X197263377Y-107191623D01*
X197396058Y-107300512D01*
X197547433Y-107381423D01*
X197711684Y-107431248D01*
X197882500Y-107448072D01*
X198170771Y-107448072D01*
X200088701Y-109366003D01*
X200112499Y-109395001D01*
X200228224Y-109489974D01*
X200360253Y-109560546D01*
X200503514Y-109604003D01*
X200615167Y-109615000D01*
X200615177Y-109615000D01*
X200652500Y-109618676D01*
X200689823Y-109615000D01*
X201561928Y-109615000D01*
X201561928Y-109855000D01*
X201574188Y-109979482D01*
X201610498Y-110099180D01*
X201669463Y-110209494D01*
X201748815Y-110306185D01*
X201845506Y-110385537D01*
X201955820Y-110444502D01*
X202075518Y-110480812D01*
X202200000Y-110493072D01*
X204200000Y-110493072D01*
X204324482Y-110480812D01*
X204444180Y-110444502D01*
X204554494Y-110385537D01*
X204651185Y-110306185D01*
X204730537Y-110209494D01*
X204789502Y-110099180D01*
X204825812Y-109979482D01*
X204838072Y-109855000D01*
X204838072Y-109615000D01*
X205987178Y-109615000D01*
X206024500Y-109618676D01*
X206061822Y-109615000D01*
X206061833Y-109615000D01*
X206173486Y-109604003D01*
X206316747Y-109560546D01*
X206448776Y-109489974D01*
X206564501Y-109395001D01*
X206588304Y-109365997D01*
X208864230Y-107090072D01*
X209152500Y-107090072D01*
X209323316Y-107073248D01*
X209487567Y-107023423D01*
X209638942Y-106942512D01*
X209771623Y-106833623D01*
X209880512Y-106700942D01*
X209961423Y-106549567D01*
X210011248Y-106385316D01*
X210028072Y-106214500D01*
X210028072Y-105714500D01*
X210011248Y-105543684D01*
X209961423Y-105379433D01*
X209880512Y-105228058D01*
X209791188Y-105119217D01*
X209841185Y-105078185D01*
X209920537Y-104981494D01*
X209979502Y-104871180D01*
X210015812Y-104751482D01*
X210028072Y-104627000D01*
X210025000Y-104425250D01*
X209866250Y-104266500D01*
X209042000Y-104266500D01*
X209042000Y-104286500D01*
X208788000Y-104286500D01*
X208788000Y-104266500D01*
X207963750Y-104266500D01*
X207805000Y-104425250D01*
X207801928Y-104627000D01*
X207814188Y-104751482D01*
X207850498Y-104871180D01*
X207909463Y-104981494D01*
X207988815Y-105078185D01*
X208038812Y-105119217D01*
X207949488Y-105228058D01*
X207868577Y-105379433D01*
X207818752Y-105543684D01*
X207801928Y-105714500D01*
X207801928Y-106002770D01*
X205709699Y-108095000D01*
X204838072Y-108095000D01*
X204838072Y-107855000D01*
X204825812Y-107730518D01*
X204789502Y-107610820D01*
X204730537Y-107500506D01*
X204651185Y-107403815D01*
X204554494Y-107324463D01*
X204444180Y-107265498D01*
X204324482Y-107229188D01*
X204200000Y-107216928D01*
X202200000Y-107216928D01*
X202075518Y-107229188D01*
X201955820Y-107265498D01*
X201845506Y-107324463D01*
X201748815Y-107403815D01*
X201669463Y-107500506D01*
X201610498Y-107610820D01*
X201574188Y-107730518D01*
X201561928Y-107855000D01*
X201561928Y-108095000D01*
X200967302Y-108095000D01*
X199233072Y-106360771D01*
X199233072Y-106072500D01*
X199216248Y-105901684D01*
X199183703Y-105794398D01*
X199901004Y-105077098D01*
X199930001Y-105053301D01*
X200024974Y-104937576D01*
X200095546Y-104805547D01*
X200139003Y-104662286D01*
X200150000Y-104550633D01*
X200150000Y-104550625D01*
X200153676Y-104513300D01*
X200150000Y-104475975D01*
X200150000Y-100456103D01*
X200226842Y-100487932D01*
X200513740Y-100545000D01*
X200806260Y-100545000D01*
X201093158Y-100487932D01*
X201136549Y-100469959D01*
X201200326Y-100589276D01*
X201201660Y-100590901D01*
X201295299Y-100705001D01*
X201324303Y-100728804D01*
X201894026Y-101298528D01*
X201845506Y-101324463D01*
X201748815Y-101403815D01*
X201669463Y-101500506D01*
X201610498Y-101610820D01*
X201574188Y-101730518D01*
X201561928Y-101855000D01*
X201561928Y-103855000D01*
X201574188Y-103979482D01*
X201610498Y-104099180D01*
X201669463Y-104209494D01*
X201748815Y-104306185D01*
X201845506Y-104385537D01*
X201955820Y-104444502D01*
X202075518Y-104480812D01*
X202200000Y-104493072D01*
X204200000Y-104493072D01*
X204324482Y-104480812D01*
X204444180Y-104444502D01*
X204554494Y-104385537D01*
X204651185Y-104306185D01*
X204730537Y-104209494D01*
X204789502Y-104099180D01*
X204825812Y-103979482D01*
X204838072Y-103855000D01*
X204838072Y-103652000D01*
X207801928Y-103652000D01*
X207805000Y-103853750D01*
X207963750Y-104012500D01*
X208788000Y-104012500D01*
X208788000Y-103175750D01*
X209042000Y-103175750D01*
X209042000Y-104012500D01*
X209866250Y-104012500D01*
X210025000Y-103853750D01*
X210028072Y-103652000D01*
X210015812Y-103527518D01*
X209979502Y-103407820D01*
X209920537Y-103297506D01*
X209841185Y-103200815D01*
X209744494Y-103121463D01*
X209634180Y-103062498D01*
X209514482Y-103026188D01*
X209390000Y-103013928D01*
X209200750Y-103017000D01*
X209042000Y-103175750D01*
X208788000Y-103175750D01*
X208629250Y-103017000D01*
X208440000Y-103013928D01*
X208315518Y-103026188D01*
X208195820Y-103062498D01*
X208085506Y-103121463D01*
X207988815Y-103200815D01*
X207909463Y-103297506D01*
X207850498Y-103407820D01*
X207814188Y-103527518D01*
X207801928Y-103652000D01*
X204838072Y-103652000D01*
X204838072Y-102791283D01*
X204909026Y-102862237D01*
X205078544Y-102975505D01*
X205266902Y-103053526D01*
X205466861Y-103093300D01*
X205670739Y-103093300D01*
X205870698Y-103053526D01*
X206059056Y-102975505D01*
X206228574Y-102862237D01*
X206372737Y-102718074D01*
X206486005Y-102548556D01*
X206564026Y-102360198D01*
X206603800Y-102160239D01*
X206603800Y-101956361D01*
X206564026Y-101756402D01*
X206486005Y-101568044D01*
X206372737Y-101398526D01*
X206228574Y-101254363D01*
X206059056Y-101141095D01*
X205870698Y-101063074D01*
X205670739Y-101023300D01*
X205608602Y-101023300D01*
X205135400Y-100550099D01*
X205135400Y-100416919D01*
X205306842Y-100487932D01*
X205593740Y-100545000D01*
X205886260Y-100545000D01*
X206173158Y-100487932D01*
X206443411Y-100375990D01*
X206686632Y-100213475D01*
X206893475Y-100006632D01*
X207015195Y-99824466D01*
X207084822Y-99941355D01*
X207279731Y-100157588D01*
X207513080Y-100331641D01*
X207775901Y-100456825D01*
X207923110Y-100501476D01*
X208153000Y-100380155D01*
X208153000Y-99187000D01*
X208407000Y-99187000D01*
X208407000Y-100380155D01*
X208636890Y-100501476D01*
X208784099Y-100456825D01*
X209046920Y-100331641D01*
X209280269Y-100157588D01*
X209475178Y-99941355D01*
X209550000Y-99815745D01*
X209624822Y-99941355D01*
X209819731Y-100157588D01*
X210053080Y-100331641D01*
X210315901Y-100456825D01*
X210463110Y-100501476D01*
X210693000Y-100380155D01*
X210693000Y-99187000D01*
X210947000Y-99187000D01*
X210947000Y-100380155D01*
X211176890Y-100501476D01*
X211324099Y-100456825D01*
X211586920Y-100331641D01*
X211820269Y-100157588D01*
X212015178Y-99941355D01*
X212164157Y-99691252D01*
X212261481Y-99416891D01*
X212140814Y-99187000D01*
X210947000Y-99187000D01*
X210693000Y-99187000D01*
X208407000Y-99187000D01*
X208153000Y-99187000D01*
X208133000Y-99187000D01*
X208133000Y-98933000D01*
X208153000Y-98933000D01*
X208153000Y-97739845D01*
X208407000Y-97739845D01*
X208407000Y-98933000D01*
X210693000Y-98933000D01*
X210693000Y-97739845D01*
X210947000Y-97739845D01*
X210947000Y-98933000D01*
X212140814Y-98933000D01*
X212261481Y-98703109D01*
X212164157Y-98428748D01*
X212015178Y-98178645D01*
X211820269Y-97962412D01*
X211586920Y-97788359D01*
X211324099Y-97663175D01*
X211176890Y-97618524D01*
X210947000Y-97739845D01*
X210693000Y-97739845D01*
X210463110Y-97618524D01*
X210315901Y-97663175D01*
X210053080Y-97788359D01*
X209819731Y-97962412D01*
X209624822Y-98178645D01*
X209550000Y-98304255D01*
X209475178Y-98178645D01*
X209280269Y-97962412D01*
X209046920Y-97788359D01*
X208784099Y-97663175D01*
X208636890Y-97618524D01*
X208407000Y-97739845D01*
X208153000Y-97739845D01*
X207923110Y-97618524D01*
X207775901Y-97663175D01*
X207513080Y-97788359D01*
X207279731Y-97962412D01*
X207084822Y-98178645D01*
X207015195Y-98295534D01*
X206893475Y-98113368D01*
X206686632Y-97906525D01*
X206443411Y-97744010D01*
X206173158Y-97632068D01*
X205886260Y-97575000D01*
X205593740Y-97575000D01*
X205306842Y-97632068D01*
X205135400Y-97703081D01*
X205135400Y-96606919D01*
X205306842Y-96677932D01*
X205593740Y-96735000D01*
X205886260Y-96735000D01*
X206173158Y-96677932D01*
X206443411Y-96565990D01*
X206686632Y-96403475D01*
X206893475Y-96196632D01*
X207015195Y-96014466D01*
X207084822Y-96131355D01*
X207279731Y-96347588D01*
X207513080Y-96521641D01*
X207775901Y-96646825D01*
X207923110Y-96691476D01*
X208153000Y-96570155D01*
X208153000Y-95377000D01*
X208407000Y-95377000D01*
X208407000Y-96570155D01*
X208636890Y-96691476D01*
X208784099Y-96646825D01*
X209046920Y-96521641D01*
X209280269Y-96347588D01*
X209475178Y-96131355D01*
X209550000Y-96005745D01*
X209624822Y-96131355D01*
X209819731Y-96347588D01*
X210053080Y-96521641D01*
X210315901Y-96646825D01*
X210463110Y-96691476D01*
X210693000Y-96570155D01*
X210693000Y-95377000D01*
X210947000Y-95377000D01*
X210947000Y-96570155D01*
X211176890Y-96691476D01*
X211324099Y-96646825D01*
X211586920Y-96521641D01*
X211820269Y-96347588D01*
X212015178Y-96131355D01*
X212164157Y-95881252D01*
X212261481Y-95606891D01*
X212140814Y-95377000D01*
X210947000Y-95377000D01*
X210693000Y-95377000D01*
X208407000Y-95377000D01*
X208153000Y-95377000D01*
X208133000Y-95377000D01*
X208133000Y-95123000D01*
X208153000Y-95123000D01*
X208153000Y-93929845D01*
X208407000Y-93929845D01*
X208407000Y-95123000D01*
X210693000Y-95123000D01*
X210693000Y-93929845D01*
X210947000Y-93929845D01*
X210947000Y-95123000D01*
X212140814Y-95123000D01*
X212261481Y-94893109D01*
X212164157Y-94618748D01*
X212015178Y-94368645D01*
X211820269Y-94152412D01*
X211586920Y-93978359D01*
X211324099Y-93853175D01*
X211176890Y-93808524D01*
X210947000Y-93929845D01*
X210693000Y-93929845D01*
X210463110Y-93808524D01*
X210315901Y-93853175D01*
X210053080Y-93978359D01*
X209819731Y-94152412D01*
X209624822Y-94368645D01*
X209550000Y-94494255D01*
X209475178Y-94368645D01*
X209280269Y-94152412D01*
X209046920Y-93978359D01*
X208784099Y-93853175D01*
X208636890Y-93808524D01*
X208407000Y-93929845D01*
X208153000Y-93929845D01*
X207923110Y-93808524D01*
X207775901Y-93853175D01*
X207513080Y-93978359D01*
X207279731Y-94152412D01*
X207084822Y-94368645D01*
X207015195Y-94485534D01*
X206893475Y-94303368D01*
X206686632Y-94096525D01*
X206443411Y-93934010D01*
X206173158Y-93822068D01*
X205886260Y-93765000D01*
X205593740Y-93765000D01*
X205306842Y-93822068D01*
X205082639Y-93914935D01*
X205080946Y-93909353D01*
X205010374Y-93777324D01*
X204915401Y-93661599D01*
X204886404Y-93637802D01*
X196243104Y-84994503D01*
X196219301Y-84965499D01*
X196103576Y-84870526D01*
X195971547Y-84799954D01*
X195828286Y-84756497D01*
X195716633Y-84745500D01*
X195716622Y-84745500D01*
X195679300Y-84741824D01*
X195641978Y-84745500D01*
X193945300Y-84745500D01*
X193945300Y-84575861D01*
X193905526Y-84375902D01*
X193827505Y-84187544D01*
X193714237Y-84018026D01*
X193670300Y-83974089D01*
X193670300Y-79931311D01*
X193792237Y-79809374D01*
X193905505Y-79639856D01*
X193983526Y-79451498D01*
X194023300Y-79251539D01*
X194023300Y-79179702D01*
X194031500Y-79187902D01*
X194031500Y-79250039D01*
X194071274Y-79449998D01*
X194149295Y-79638356D01*
X194262563Y-79807874D01*
X194406726Y-79952037D01*
X194576244Y-80065305D01*
X194764602Y-80143326D01*
X194964561Y-80183100D01*
X195168439Y-80183100D01*
X195368398Y-80143326D01*
X195556756Y-80065305D01*
X195726274Y-79952037D01*
X195870437Y-79807874D01*
X195983705Y-79638356D01*
X196061726Y-79449998D01*
X196101500Y-79250039D01*
X196101500Y-79046161D01*
X196061726Y-78846202D01*
X195983705Y-78657844D01*
X195870437Y-78488326D01*
X195726274Y-78344163D01*
X195723186Y-78342100D01*
X196290599Y-78342100D01*
X197050000Y-79101502D01*
X197050000Y-79163639D01*
X197089774Y-79363598D01*
X197167795Y-79551956D01*
X197281063Y-79721474D01*
X197425226Y-79865637D01*
X197594744Y-79978905D01*
X197783102Y-80056926D01*
X197983061Y-80096700D01*
X198186939Y-80096700D01*
X198386898Y-80056926D01*
X198575256Y-79978905D01*
X198744774Y-79865637D01*
X198888937Y-79721474D01*
X199002205Y-79551956D01*
X199080226Y-79363598D01*
X199120000Y-79163639D01*
X199120000Y-78959761D01*
X199080226Y-78759802D01*
X199002205Y-78571444D01*
X198888937Y-78401926D01*
X198744774Y-78257763D01*
X198575256Y-78144495D01*
X198386898Y-78066474D01*
X198186939Y-78026700D01*
X198124802Y-78026700D01*
X197169203Y-77071102D01*
X197145401Y-77042099D01*
X197029676Y-76947126D01*
X196897647Y-76876554D01*
X196754386Y-76833097D01*
X196642733Y-76822100D01*
X196642722Y-76822100D01*
X196605400Y-76818424D01*
X196568078Y-76822100D01*
X158239622Y-76822100D01*
X158202299Y-76818424D01*
X158164976Y-76822100D01*
X158164967Y-76822100D01*
X158053314Y-76833097D01*
X157910053Y-76876554D01*
X157778024Y-76947126D01*
X157662299Y-77042099D01*
X157638501Y-77071097D01*
X151888998Y-82820601D01*
X151860000Y-82844399D01*
X151836202Y-82873397D01*
X151836201Y-82873398D01*
X151765026Y-82960124D01*
X151694454Y-83092154D01*
X151650998Y-83235415D01*
X151636324Y-83384400D01*
X151640001Y-83421732D01*
X151640000Y-93761928D01*
X151550000Y-93761928D01*
X151425518Y-93774188D01*
X151305820Y-93810498D01*
X151195506Y-93869463D01*
X151098815Y-93948815D01*
X151019463Y-94045506D01*
X150960498Y-94155820D01*
X150924188Y-94275518D01*
X150911928Y-94400000D01*
X150911928Y-96100000D01*
X150924188Y-96224482D01*
X150960498Y-96344180D01*
X151019463Y-96454494D01*
X151098815Y-96551185D01*
X151195506Y-96630537D01*
X151305820Y-96689502D01*
X151425518Y-96725812D01*
X151550000Y-96738072D01*
X152954326Y-96738072D01*
X152395302Y-97297097D01*
X152366299Y-97320899D01*
X152315742Y-97382503D01*
X152271326Y-97436624D01*
X152217513Y-97537300D01*
X152200754Y-97568654D01*
X152157297Y-97711915D01*
X152146300Y-97823568D01*
X152146300Y-97823578D01*
X152142624Y-97860900D01*
X152146300Y-97898222D01*
X152146301Y-109956868D01*
X152142624Y-109994200D01*
X152146301Y-110031533D01*
X152152230Y-110091725D01*
X152157298Y-110143185D01*
X152200754Y-110286446D01*
X152271326Y-110418476D01*
X152342501Y-110505202D01*
X152366300Y-110534201D01*
X152395298Y-110557999D01*
X153600301Y-111763003D01*
X153624099Y-111792001D01*
X153739824Y-111886974D01*
X153871853Y-111957546D01*
X154015114Y-112001003D01*
X154126767Y-112012000D01*
X154126777Y-112012000D01*
X154164100Y-112015676D01*
X154201423Y-112012000D01*
X154707080Y-112012000D01*
X154786377Y-112108623D01*
X154919058Y-112217512D01*
X155070433Y-112298423D01*
X155234684Y-112348248D01*
X155405500Y-112365072D01*
X155905500Y-112365072D01*
X156076316Y-112348248D01*
X156240567Y-112298423D01*
X156391942Y-112217512D01*
X156524623Y-112108623D01*
X156568000Y-112055768D01*
X156611377Y-112108623D01*
X156744058Y-112217512D01*
X156895433Y-112298423D01*
X157059684Y-112348248D01*
X157230500Y-112365072D01*
X157730500Y-112365072D01*
X157901316Y-112348248D01*
X158065567Y-112298423D01*
X158216942Y-112217512D01*
X158349623Y-112108623D01*
X158458512Y-111975942D01*
X158539423Y-111824567D01*
X158589248Y-111660316D01*
X158606072Y-111489500D01*
X158606072Y-111014500D01*
X158589248Y-110843684D01*
X158539423Y-110679433D01*
X158458512Y-110528058D01*
X158349623Y-110395377D01*
X158216942Y-110286488D01*
X158065567Y-110205577D01*
X157901316Y-110155752D01*
X157730500Y-110138928D01*
X157442230Y-110138928D01*
X156431701Y-109128400D01*
X158402030Y-107158072D01*
X158722500Y-107158072D01*
X158893316Y-107141248D01*
X159057567Y-107091423D01*
X159208942Y-107010512D01*
X159317783Y-106921188D01*
X159358815Y-106971185D01*
X159455506Y-107050537D01*
X159565820Y-107109502D01*
X159685518Y-107145812D01*
X159810000Y-107158072D01*
X160011750Y-107155000D01*
X160170500Y-106996250D01*
X160170500Y-106172000D01*
X160150500Y-106172000D01*
X160150500Y-105918000D01*
X160170500Y-105918000D01*
X160170500Y-105093750D01*
X160011750Y-104935000D01*
X159810000Y-104931928D01*
X159685518Y-104944188D01*
X159565820Y-104980498D01*
X159455506Y-105039463D01*
X159358815Y-105118815D01*
X159317783Y-105168812D01*
X159208942Y-105079488D01*
X159057567Y-104998577D01*
X158893316Y-104948752D01*
X158722500Y-104931928D01*
X158222500Y-104931928D01*
X158051684Y-104948752D01*
X157887433Y-104998577D01*
X157736058Y-105079488D01*
X157603377Y-105188377D01*
X157494488Y-105321058D01*
X157413577Y-105472433D01*
X157363752Y-105636684D01*
X157346928Y-105807500D01*
X157346928Y-106063570D01*
X155861472Y-107549027D01*
X155835537Y-107500506D01*
X155756185Y-107403815D01*
X155659494Y-107324463D01*
X155549180Y-107265498D01*
X155429482Y-107229188D01*
X155305000Y-107216928D01*
X153666300Y-107216928D01*
X153666300Y-104493072D01*
X155305000Y-104493072D01*
X155429482Y-104480812D01*
X155549180Y-104444502D01*
X155659494Y-104385537D01*
X155756185Y-104306185D01*
X155835537Y-104209494D01*
X155894502Y-104099180D01*
X155930812Y-103979482D01*
X155943072Y-103855000D01*
X155943072Y-103615000D01*
X160474700Y-103615000D01*
X160474701Y-105043549D01*
X160424500Y-105093750D01*
X160424500Y-105918000D01*
X160444500Y-105918000D01*
X160444500Y-106172000D01*
X160424500Y-106172000D01*
X160424500Y-106996250D01*
X160583250Y-107155000D01*
X160785000Y-107158072D01*
X160909482Y-107145812D01*
X160921928Y-107142037D01*
X160921928Y-108935000D01*
X160934188Y-109059482D01*
X160970498Y-109179180D01*
X161029463Y-109289494D01*
X161108815Y-109386185D01*
X161205506Y-109465537D01*
X161315820Y-109524502D01*
X161435518Y-109560812D01*
X161560000Y-109573072D01*
X163560000Y-109573072D01*
X163684482Y-109560812D01*
X163804180Y-109524502D01*
X163914494Y-109465537D01*
X164011185Y-109386185D01*
X164090537Y-109289494D01*
X164149502Y-109179180D01*
X164185812Y-109059482D01*
X164198072Y-108935000D01*
X164198072Y-108283300D01*
X168069678Y-108283300D01*
X168107000Y-108286976D01*
X168144322Y-108283300D01*
X168144333Y-108283300D01*
X168255986Y-108272303D01*
X168399247Y-108228846D01*
X168531276Y-108158274D01*
X168647001Y-108063301D01*
X168670804Y-108034297D01*
X171961003Y-104744099D01*
X171990001Y-104720301D01*
X172037613Y-104662286D01*
X172084974Y-104604577D01*
X172144575Y-104493072D01*
X172450000Y-104493072D01*
X172574482Y-104480812D01*
X172694180Y-104444502D01*
X172804494Y-104385537D01*
X172901185Y-104306185D01*
X172980537Y-104209494D01*
X173039502Y-104099180D01*
X173075812Y-103979482D01*
X173088072Y-103855000D01*
X173088072Y-101855000D01*
X173075812Y-101730518D01*
X173039502Y-101610820D01*
X172980537Y-101500506D01*
X172901185Y-101403815D01*
X172804494Y-101324463D01*
X172694180Y-101265498D01*
X172574482Y-101229188D01*
X172450000Y-101216928D01*
X172282696Y-101216928D01*
X172319623Y-101186623D01*
X172398920Y-101090000D01*
X173041080Y-101090000D01*
X173120377Y-101186623D01*
X173229501Y-101276179D01*
X173229500Y-104675398D01*
X170938998Y-106965901D01*
X170910000Y-106989699D01*
X170886202Y-107018697D01*
X170886201Y-107018698D01*
X170815026Y-107105424D01*
X170755425Y-107216928D01*
X170450000Y-107216928D01*
X170325518Y-107229188D01*
X170205820Y-107265498D01*
X170095506Y-107324463D01*
X169998815Y-107403815D01*
X169919463Y-107500506D01*
X169860498Y-107610820D01*
X169824188Y-107730518D01*
X169811928Y-107855000D01*
X169811928Y-109855000D01*
X169824188Y-109979482D01*
X169860498Y-110099180D01*
X169919463Y-110209494D01*
X169998815Y-110306185D01*
X170070482Y-110365000D01*
X169858920Y-110365000D01*
X169779623Y-110268377D01*
X169646942Y-110159488D01*
X169495567Y-110078577D01*
X169331316Y-110028752D01*
X169160500Y-110011928D01*
X168660500Y-110011928D01*
X168489684Y-110028752D01*
X168325433Y-110078577D01*
X168174058Y-110159488D01*
X168041377Y-110268377D01*
X167998000Y-110321232D01*
X167954623Y-110268377D01*
X167821942Y-110159488D01*
X167670567Y-110078577D01*
X167506316Y-110028752D01*
X167335500Y-110011928D01*
X166835500Y-110011928D01*
X166664684Y-110028752D01*
X166500433Y-110078577D01*
X166349058Y-110159488D01*
X166299090Y-110200496D01*
X166193337Y-110042226D01*
X166049174Y-109898063D01*
X165879656Y-109784795D01*
X165691298Y-109706774D01*
X165491339Y-109667000D01*
X165287461Y-109667000D01*
X165087502Y-109706774D01*
X164899144Y-109784795D01*
X164729626Y-109898063D01*
X164585463Y-110042226D01*
X164472195Y-110211744D01*
X164394174Y-110400102D01*
X164354400Y-110600061D01*
X164354400Y-110803939D01*
X164394174Y-111003898D01*
X164472195Y-111192256D01*
X164585463Y-111361774D01*
X164729626Y-111505937D01*
X164899144Y-111619205D01*
X165087502Y-111697226D01*
X165287461Y-111737000D01*
X165360130Y-111737000D01*
X165388124Y-111759974D01*
X165520153Y-111830546D01*
X165663414Y-111874003D01*
X165775067Y-111885000D01*
X165775076Y-111885000D01*
X165812399Y-111888676D01*
X165849722Y-111885000D01*
X166137080Y-111885000D01*
X166216377Y-111981623D01*
X166349058Y-112090512D01*
X166500433Y-112171423D01*
X166664684Y-112221248D01*
X166732747Y-112227952D01*
X165785699Y-113175000D01*
X164198072Y-113175000D01*
X164198072Y-112935000D01*
X164185812Y-112810518D01*
X164149502Y-112690820D01*
X164090537Y-112580506D01*
X164011185Y-112483815D01*
X163914494Y-112404463D01*
X163804180Y-112345498D01*
X163684482Y-112309188D01*
X163560000Y-112296928D01*
X161560000Y-112296928D01*
X161435518Y-112309188D01*
X161315820Y-112345498D01*
X161205506Y-112404463D01*
X161108815Y-112483815D01*
X161029463Y-112580506D01*
X160970498Y-112690820D01*
X160934188Y-112810518D01*
X160921928Y-112935000D01*
X160921928Y-114910000D01*
X149892279Y-114910000D01*
X149742131Y-114895278D01*
X149628754Y-114861047D01*
X149524183Y-114805446D01*
X149432405Y-114730594D01*
X149356909Y-114639335D01*
X149300581Y-114535160D01*
X149265560Y-114422024D01*
X149250000Y-114273979D01*
X149250000Y-112590344D01*
X149499000Y-112590344D01*
X149499000Y-112961656D01*
X149571439Y-113325834D01*
X149713534Y-113668882D01*
X149919825Y-113977618D01*
X150182382Y-114240175D01*
X150491118Y-114446466D01*
X150834166Y-114588561D01*
X151198344Y-114661000D01*
X151569656Y-114661000D01*
X151933834Y-114588561D01*
X152276882Y-114446466D01*
X152585618Y-114240175D01*
X152848175Y-113977618D01*
X153054466Y-113668882D01*
X153196561Y-113325834D01*
X153269000Y-112961656D01*
X153269000Y-112590344D01*
X153196561Y-112226166D01*
X153054466Y-111883118D01*
X152848175Y-111574382D01*
X152585618Y-111311825D01*
X152276882Y-111105534D01*
X151933834Y-110963439D01*
X151569656Y-110891000D01*
X151198344Y-110891000D01*
X150834166Y-110963439D01*
X150491118Y-111105534D01*
X150182382Y-111311825D01*
X149919825Y-111574382D01*
X149713534Y-111883118D01*
X149571439Y-112226166D01*
X149499000Y-112590344D01*
X149250000Y-112590344D01*
X149250000Y-49562279D01*
X149264722Y-49412131D01*
X149298953Y-49298754D01*
X149354555Y-49194181D01*
X149429407Y-49102404D01*
X149520664Y-49026909D01*
X149624844Y-48970581D01*
X149737976Y-48935560D01*
X149886022Y-48920000D01*
X213327721Y-48920000D01*
X213477869Y-48934722D01*
G37*
%TD.AperFunction*%
D15*
X184898901Y-108964349D02*
X184869500Y-108993750D01*
X184869500Y-109818000D01*
X184889500Y-109818000D01*
X184889500Y-110016400D01*
X184595500Y-110016400D01*
X184595500Y-109818000D01*
X184615500Y-109818000D01*
X184615500Y-109135863D01*
X184625500Y-109034333D01*
X184625500Y-109034324D01*
X184629176Y-108997001D01*
X184625500Y-108959678D01*
X184625500Y-108476250D01*
X184715500Y-108386250D01*
X184715500Y-107562000D01*
X184695500Y-107562000D01*
X184695500Y-107308000D01*
X184715500Y-107308000D01*
X184715500Y-106483750D01*
X184625500Y-106393750D01*
X184625500Y-104247322D01*
X184629176Y-104209999D01*
X184625500Y-104172676D01*
X184625500Y-104172667D01*
X184614503Y-104061014D01*
X184574962Y-103930663D01*
X184716438Y-103916728D01*
X184876000Y-103868326D01*
X184898900Y-103856086D01*
X184898901Y-108964349D01*
%TA.AperFunction,Conductor*%
D16*
G36*
X184898901Y-108964349D02*
G01*
X184869500Y-108993750D01*
X184869500Y-109818000D01*
X184889500Y-109818000D01*
X184889500Y-110016400D01*
X184595500Y-110016400D01*
X184595500Y-109818000D01*
X184615500Y-109818000D01*
X184615500Y-109135863D01*
X184625500Y-109034333D01*
X184625500Y-109034324D01*
X184629176Y-108997001D01*
X184625500Y-108959678D01*
X184625500Y-108476250D01*
X184715500Y-108386250D01*
X184715500Y-107562000D01*
X184695500Y-107562000D01*
X184695500Y-107308000D01*
X184715500Y-107308000D01*
X184715500Y-106483750D01*
X184625500Y-106393750D01*
X184625500Y-104247322D01*
X184629176Y-104209999D01*
X184625500Y-104172676D01*
X184625500Y-104172667D01*
X184614503Y-104061014D01*
X184574962Y-103930663D01*
X184716438Y-103916728D01*
X184876000Y-103868326D01*
X184898900Y-103856086D01*
X184898901Y-108964349D01*
G37*
%TD.AperFunction*%
D15*
X182181058Y-108979488D02*
X182048377Y-109088377D01*
X181939488Y-109221058D01*
X181858577Y-109372433D01*
X181808752Y-109536684D01*
X181791928Y-109707500D01*
X181791928Y-110016400D01*
X180245500Y-110016400D01*
X180245500Y-109768000D01*
X180265500Y-109768000D01*
X180265500Y-109748000D01*
X180519500Y-109748000D01*
X180519500Y-109768000D01*
X181356250Y-109768000D01*
X181515000Y-109609250D01*
X181518072Y-109420000D01*
X181505812Y-109295518D01*
X181469502Y-109175820D01*
X181410537Y-109065506D01*
X181331185Y-108968815D01*
X181331045Y-108968700D01*
X182201241Y-108968700D01*
X182181058Y-108979488D01*
%TA.AperFunction,Conductor*%
D16*
G36*
X182181058Y-108979488D02*
G01*
X182048377Y-109088377D01*
X181939488Y-109221058D01*
X181858577Y-109372433D01*
X181808752Y-109536684D01*
X181791928Y-109707500D01*
X181791928Y-110016400D01*
X180245500Y-110016400D01*
X180245500Y-109768000D01*
X180265500Y-109768000D01*
X180265500Y-109748000D01*
X180519500Y-109748000D01*
X180519500Y-109768000D01*
X181356250Y-109768000D01*
X181515000Y-109609250D01*
X181518072Y-109420000D01*
X181505812Y-109295518D01*
X181469502Y-109175820D01*
X181410537Y-109065506D01*
X181331185Y-108968815D01*
X181331045Y-108968700D01*
X182201241Y-108968700D01*
X182181058Y-108979488D01*
G37*
%TD.AperFunction*%
D15*
X182125500Y-103933072D02*
X182513771Y-103933072D01*
X183105500Y-104524802D01*
X183105500Y-106321928D01*
X182767500Y-106321928D01*
X182596684Y-106338752D01*
X182432433Y-106388577D01*
X182281058Y-106469488D01*
X182148377Y-106578377D01*
X182039488Y-106711058D01*
X181958577Y-106862433D01*
X181908752Y-107026684D01*
X181891928Y-107197500D01*
X181891928Y-107448700D01*
X180245500Y-107448700D01*
X180245500Y-107258000D01*
X180265500Y-107258000D01*
X180265500Y-107238000D01*
X180519500Y-107238000D01*
X180519500Y-107258000D01*
X181356250Y-107258000D01*
X181515000Y-107099250D01*
X181518072Y-106910000D01*
X181505812Y-106785518D01*
X181469502Y-106665820D01*
X181410537Y-106555506D01*
X181331185Y-106458815D01*
X181234494Y-106379463D01*
X181124180Y-106320498D01*
X181004482Y-106284188D01*
X180880000Y-106271928D01*
X180753447Y-106273855D01*
X181815703Y-105211599D01*
X181844701Y-105187801D01*
X181939674Y-105072076D01*
X182010246Y-104940047D01*
X182053703Y-104796786D01*
X182064700Y-104685133D01*
X182064700Y-104685124D01*
X182068376Y-104647801D01*
X182064700Y-104610478D01*
X182064700Y-103927084D01*
X182125500Y-103933072D01*
%TA.AperFunction,Conductor*%
D16*
G36*
X182125500Y-103933072D02*
G01*
X182513771Y-103933072D01*
X183105500Y-104524802D01*
X183105500Y-106321928D01*
X182767500Y-106321928D01*
X182596684Y-106338752D01*
X182432433Y-106388577D01*
X182281058Y-106469488D01*
X182148377Y-106578377D01*
X182039488Y-106711058D01*
X181958577Y-106862433D01*
X181908752Y-107026684D01*
X181891928Y-107197500D01*
X181891928Y-107448700D01*
X180245500Y-107448700D01*
X180245500Y-107258000D01*
X180265500Y-107258000D01*
X180265500Y-107238000D01*
X180519500Y-107238000D01*
X180519500Y-107258000D01*
X181356250Y-107258000D01*
X181515000Y-107099250D01*
X181518072Y-106910000D01*
X181505812Y-106785518D01*
X181469502Y-106665820D01*
X181410537Y-106555506D01*
X181331185Y-106458815D01*
X181234494Y-106379463D01*
X181124180Y-106320498D01*
X181004482Y-106284188D01*
X180880000Y-106271928D01*
X180753447Y-106273855D01*
X181815703Y-105211599D01*
X181844701Y-105187801D01*
X181939674Y-105072076D01*
X182010246Y-104940047D01*
X182053703Y-104796786D01*
X182064700Y-104685133D01*
X182064700Y-104685124D01*
X182068376Y-104647801D01*
X182064700Y-104610478D01*
X182064700Y-103927084D01*
X182125500Y-103933072D01*
G37*
%TD.AperFunction*%
D15*
X168830085Y-96237886D02*
X168756377Y-96298377D01*
X168647488Y-96431058D01*
X168566577Y-96582433D01*
X168516752Y-96746684D01*
X168499928Y-96917500D01*
X168499928Y-97094070D01*
X164223498Y-101370501D01*
X164194500Y-101394299D01*
X164170702Y-101423297D01*
X164170701Y-101423298D01*
X164099526Y-101510024D01*
X164028954Y-101642054D01*
X164022348Y-101663833D01*
X163985498Y-101785314D01*
X163974501Y-101896967D01*
X163970824Y-101934300D01*
X163974501Y-101971632D01*
X163974501Y-102293709D01*
X163914494Y-102244463D01*
X163804180Y-102185498D01*
X163684482Y-102149188D01*
X163560000Y-102136928D01*
X161994700Y-102136928D01*
X161994700Y-100740401D01*
X163071003Y-99664099D01*
X163100001Y-99640301D01*
X163194974Y-99524576D01*
X163254575Y-99413072D01*
X163560000Y-99413072D01*
X163684482Y-99400812D01*
X163804180Y-99364502D01*
X163914494Y-99305537D01*
X164011185Y-99226185D01*
X164090537Y-99129494D01*
X164149502Y-99019180D01*
X164185812Y-98899482D01*
X164198072Y-98775000D01*
X164198072Y-97000558D01*
X164211301Y-96989701D01*
X164235104Y-96960697D01*
X165887302Y-95308500D01*
X165949439Y-95308500D01*
X166149398Y-95268726D01*
X166337756Y-95190705D01*
X166507274Y-95077437D01*
X166651437Y-94933274D01*
X166764705Y-94763756D01*
X166842726Y-94575398D01*
X166882500Y-94375439D01*
X166882500Y-94290301D01*
X168830085Y-96237886D01*
%TA.AperFunction,Conductor*%
D16*
G36*
X168830085Y-96237886D02*
G01*
X168756377Y-96298377D01*
X168647488Y-96431058D01*
X168566577Y-96582433D01*
X168516752Y-96746684D01*
X168499928Y-96917500D01*
X168499928Y-97094070D01*
X164223498Y-101370501D01*
X164194500Y-101394299D01*
X164170702Y-101423297D01*
X164170701Y-101423298D01*
X164099526Y-101510024D01*
X164028954Y-101642054D01*
X164022348Y-101663833D01*
X163985498Y-101785314D01*
X163974501Y-101896967D01*
X163970824Y-101934300D01*
X163974501Y-101971632D01*
X163974501Y-102293709D01*
X163914494Y-102244463D01*
X163804180Y-102185498D01*
X163684482Y-102149188D01*
X163560000Y-102136928D01*
X161994700Y-102136928D01*
X161994700Y-100740401D01*
X163071003Y-99664099D01*
X163100001Y-99640301D01*
X163194974Y-99524576D01*
X163254575Y-99413072D01*
X163560000Y-99413072D01*
X163684482Y-99400812D01*
X163804180Y-99364502D01*
X163914494Y-99305537D01*
X164011185Y-99226185D01*
X164090537Y-99129494D01*
X164149502Y-99019180D01*
X164185812Y-98899482D01*
X164198072Y-98775000D01*
X164198072Y-97000558D01*
X164211301Y-96989701D01*
X164235104Y-96960697D01*
X165887302Y-95308500D01*
X165949439Y-95308500D01*
X166149398Y-95268726D01*
X166337756Y-95190705D01*
X166507274Y-95077437D01*
X166651437Y-94933274D01*
X166764705Y-94763756D01*
X166842726Y-94575398D01*
X166882500Y-94375439D01*
X166882500Y-94290301D01*
X168830085Y-96237886D01*
G37*
%TD.AperFunction*%
D15*
X171597500Y-97092101D02*
X171597500Y-97282000D01*
X171577500Y-97282000D01*
X171577500Y-97302000D01*
X171354298Y-97302000D01*
X171323500Y-97289243D01*
X171323500Y-97282000D01*
X171306015Y-97282000D01*
X171303500Y-97280958D01*
X171303500Y-97028000D01*
X171323500Y-97028000D01*
X171323500Y-97008000D01*
X171513399Y-97008000D01*
X171597500Y-97092101D01*
%TA.AperFunction,Conductor*%
D16*
G36*
X171597500Y-97092101D02*
G01*
X171597500Y-97282000D01*
X171577500Y-97282000D01*
X171577500Y-97302000D01*
X171354298Y-97302000D01*
X171323500Y-97289243D01*
X171323500Y-97282000D01*
X171306015Y-97282000D01*
X171303500Y-97280958D01*
X171303500Y-97028000D01*
X171323500Y-97028000D01*
X171323500Y-97008000D01*
X171513399Y-97008000D01*
X171597500Y-97092101D01*
G37*
%TD.AperFunction*%
D15*
X166652500Y-79356739D02*
X166692274Y-79556698D01*
X166770295Y-79745056D01*
X166883563Y-79914574D01*
X167027726Y-80058737D01*
X167197244Y-80172005D01*
X167385602Y-80250026D01*
X167585561Y-80289800D01*
X167647699Y-80289800D01*
X173512101Y-86154203D01*
X173512101Y-87867599D01*
X167059300Y-81414799D01*
X167059300Y-81352661D01*
X167019526Y-81152702D01*
X166941505Y-80964344D01*
X166828237Y-80794826D01*
X166684074Y-80650663D01*
X166514556Y-80537395D01*
X166326198Y-80459374D01*
X166126239Y-80419600D01*
X165922361Y-80419600D01*
X165722402Y-80459374D01*
X165534044Y-80537395D01*
X165364526Y-80650663D01*
X165220363Y-80794826D01*
X165107095Y-80964344D01*
X165029074Y-81152702D01*
X164989300Y-81352661D01*
X164989300Y-81556539D01*
X165029074Y-81756498D01*
X165107095Y-81944856D01*
X165220363Y-82114374D01*
X165364526Y-82258537D01*
X165534044Y-82371805D01*
X165722402Y-82449826D01*
X165922361Y-82489600D01*
X165984499Y-82489600D01*
X172864601Y-89369703D01*
X172864600Y-96209599D01*
X172281444Y-95626443D01*
X172292494Y-95620537D01*
X172389185Y-95541185D01*
X172468537Y-95444494D01*
X172527502Y-95334180D01*
X172563812Y-95214482D01*
X172576072Y-95090000D01*
X172573000Y-94900750D01*
X172414250Y-94742000D01*
X171577500Y-94742000D01*
X171577500Y-94762000D01*
X171323500Y-94762000D01*
X171323500Y-94742000D01*
X171303500Y-94742000D01*
X171303500Y-94488000D01*
X171323500Y-94488000D01*
X171323500Y-93663750D01*
X171577500Y-93663750D01*
X171577500Y-94488000D01*
X172414250Y-94488000D01*
X172573000Y-94329250D01*
X172576072Y-94140000D01*
X172563812Y-94015518D01*
X172527502Y-93895820D01*
X172468537Y-93785506D01*
X172389185Y-93688815D01*
X172292494Y-93609463D01*
X172182180Y-93550498D01*
X172062482Y-93514188D01*
X171938000Y-93501928D01*
X171736250Y-93505000D01*
X171577500Y-93663750D01*
X171323500Y-93663750D01*
X171164750Y-93505000D01*
X170963000Y-93501928D01*
X170838518Y-93514188D01*
X170718820Y-93550498D01*
X170608506Y-93609463D01*
X170511815Y-93688815D01*
X170470783Y-93738812D01*
X170361942Y-93649488D01*
X170210567Y-93568577D01*
X170046316Y-93518752D01*
X169875500Y-93501928D01*
X169375500Y-93501928D01*
X169204684Y-93518752D01*
X169040433Y-93568577D01*
X168889058Y-93649488D01*
X168756377Y-93758377D01*
X168647488Y-93891058D01*
X168642393Y-93900591D01*
X166058900Y-91317099D01*
X166058900Y-86021122D01*
X166062576Y-85983799D01*
X166058900Y-85946476D01*
X166058900Y-85946467D01*
X166047903Y-85834814D01*
X166004446Y-85691553D01*
X165933874Y-85559524D01*
X165838901Y-85443799D01*
X165809903Y-85420001D01*
X159823901Y-79434000D01*
X162046523Y-79434000D01*
X162050895Y-79444556D01*
X162164163Y-79614074D01*
X162308326Y-79758237D01*
X162477844Y-79871505D01*
X162666202Y-79949526D01*
X162866161Y-79989300D01*
X163070039Y-79989300D01*
X163269998Y-79949526D01*
X163458356Y-79871505D01*
X163627874Y-79758237D01*
X163772037Y-79614074D01*
X163885305Y-79444556D01*
X163949697Y-79289100D01*
X166652500Y-79289100D01*
X166652500Y-79356739D01*
%TA.AperFunction,Conductor*%
D16*
G36*
X166652500Y-79356739D02*
G01*
X166692274Y-79556698D01*
X166770295Y-79745056D01*
X166883563Y-79914574D01*
X167027726Y-80058737D01*
X167197244Y-80172005D01*
X167385602Y-80250026D01*
X167585561Y-80289800D01*
X167647699Y-80289800D01*
X173512101Y-86154203D01*
X173512101Y-87867599D01*
X167059300Y-81414799D01*
X167059300Y-81352661D01*
X167019526Y-81152702D01*
X166941505Y-80964344D01*
X166828237Y-80794826D01*
X166684074Y-80650663D01*
X166514556Y-80537395D01*
X166326198Y-80459374D01*
X166126239Y-80419600D01*
X165922361Y-80419600D01*
X165722402Y-80459374D01*
X165534044Y-80537395D01*
X165364526Y-80650663D01*
X165220363Y-80794826D01*
X165107095Y-80964344D01*
X165029074Y-81152702D01*
X164989300Y-81352661D01*
X164989300Y-81556539D01*
X165029074Y-81756498D01*
X165107095Y-81944856D01*
X165220363Y-82114374D01*
X165364526Y-82258537D01*
X165534044Y-82371805D01*
X165722402Y-82449826D01*
X165922361Y-82489600D01*
X165984499Y-82489600D01*
X172864601Y-89369703D01*
X172864600Y-96209599D01*
X172281444Y-95626443D01*
X172292494Y-95620537D01*
X172389185Y-95541185D01*
X172468537Y-95444494D01*
X172527502Y-95334180D01*
X172563812Y-95214482D01*
X172576072Y-95090000D01*
X172573000Y-94900750D01*
X172414250Y-94742000D01*
X171577500Y-94742000D01*
X171577500Y-94762000D01*
X171323500Y-94762000D01*
X171323500Y-94742000D01*
X171303500Y-94742000D01*
X171303500Y-94488000D01*
X171323500Y-94488000D01*
X171323500Y-93663750D01*
X171577500Y-93663750D01*
X171577500Y-94488000D01*
X172414250Y-94488000D01*
X172573000Y-94329250D01*
X172576072Y-94140000D01*
X172563812Y-94015518D01*
X172527502Y-93895820D01*
X172468537Y-93785506D01*
X172389185Y-93688815D01*
X172292494Y-93609463D01*
X172182180Y-93550498D01*
X172062482Y-93514188D01*
X171938000Y-93501928D01*
X171736250Y-93505000D01*
X171577500Y-93663750D01*
X171323500Y-93663750D01*
X171164750Y-93505000D01*
X170963000Y-93501928D01*
X170838518Y-93514188D01*
X170718820Y-93550498D01*
X170608506Y-93609463D01*
X170511815Y-93688815D01*
X170470783Y-93738812D01*
X170361942Y-93649488D01*
X170210567Y-93568577D01*
X170046316Y-93518752D01*
X169875500Y-93501928D01*
X169375500Y-93501928D01*
X169204684Y-93518752D01*
X169040433Y-93568577D01*
X168889058Y-93649488D01*
X168756377Y-93758377D01*
X168647488Y-93891058D01*
X168642393Y-93900591D01*
X166058900Y-91317099D01*
X166058900Y-86021122D01*
X166062576Y-85983799D01*
X166058900Y-85946476D01*
X166058900Y-85946467D01*
X166047903Y-85834814D01*
X166004446Y-85691553D01*
X165933874Y-85559524D01*
X165838901Y-85443799D01*
X165809903Y-85420001D01*
X159823901Y-79434000D01*
X162046523Y-79434000D01*
X162050895Y-79444556D01*
X162164163Y-79614074D01*
X162308326Y-79758237D01*
X162477844Y-79871505D01*
X162666202Y-79949526D01*
X162866161Y-79989300D01*
X163070039Y-79989300D01*
X163269998Y-79949526D01*
X163458356Y-79871505D01*
X163627874Y-79758237D01*
X163772037Y-79614074D01*
X163885305Y-79444556D01*
X163949697Y-79289100D01*
X166652500Y-79289100D01*
X166652500Y-79356739D01*
G37*
%TD.AperFunction*%
D15*
X175792700Y-79377039D02*
X175832474Y-79576998D01*
X175910495Y-79765356D01*
X176023763Y-79934874D01*
X176067701Y-79978812D01*
X176067700Y-81840677D01*
X176064024Y-81878000D01*
X176067700Y-81915322D01*
X176067700Y-81915332D01*
X176078697Y-82026985D01*
X176104472Y-82111954D01*
X176122154Y-82170246D01*
X176192726Y-82302276D01*
X176214105Y-82328326D01*
X176287699Y-82418001D01*
X176316703Y-82441804D01*
X182037700Y-88162802D01*
X182037700Y-88224939D01*
X182077474Y-88424898D01*
X182155495Y-88613256D01*
X182268763Y-88782774D01*
X182412926Y-88926937D01*
X182582444Y-89040205D01*
X182770802Y-89118226D01*
X182970761Y-89158000D01*
X183032899Y-89158000D01*
X187200001Y-93325103D01*
X187200001Y-93587542D01*
X187165172Y-93580646D01*
X187100044Y-93566803D01*
X187089851Y-93565731D01*
X187089844Y-93565730D01*
X187089838Y-93565730D01*
X186993310Y-93556266D01*
X186957105Y-93552700D01*
X175884895Y-93552700D01*
X175853850Y-93555758D01*
X175850895Y-93555737D01*
X175848000Y-93556021D01*
X175848000Y-80599622D01*
X175851676Y-80562299D01*
X175848000Y-80524976D01*
X175848000Y-80524967D01*
X175837003Y-80413314D01*
X175793546Y-80270053D01*
X175722974Y-80138024D01*
X175628001Y-80022299D01*
X175599003Y-79998501D01*
X174889601Y-79289100D01*
X175792700Y-79289100D01*
X175792700Y-79377039D01*
%TA.AperFunction,Conductor*%
D16*
G36*
X175792700Y-79377039D02*
G01*
X175832474Y-79576998D01*
X175910495Y-79765356D01*
X176023763Y-79934874D01*
X176067701Y-79978812D01*
X176067700Y-81840677D01*
X176064024Y-81878000D01*
X176067700Y-81915322D01*
X176067700Y-81915332D01*
X176078697Y-82026985D01*
X176104472Y-82111954D01*
X176122154Y-82170246D01*
X176192726Y-82302276D01*
X176214105Y-82328326D01*
X176287699Y-82418001D01*
X176316703Y-82441804D01*
X182037700Y-88162802D01*
X182037700Y-88224939D01*
X182077474Y-88424898D01*
X182155495Y-88613256D01*
X182268763Y-88782774D01*
X182412926Y-88926937D01*
X182582444Y-89040205D01*
X182770802Y-89118226D01*
X182970761Y-89158000D01*
X183032899Y-89158000D01*
X187200001Y-93325103D01*
X187200001Y-93587542D01*
X187165172Y-93580646D01*
X187100044Y-93566803D01*
X187089851Y-93565731D01*
X187089844Y-93565730D01*
X187089838Y-93565730D01*
X186993310Y-93556266D01*
X186957105Y-93552700D01*
X175884895Y-93552700D01*
X175853850Y-93555758D01*
X175850895Y-93555737D01*
X175848000Y-93556021D01*
X175848000Y-80599622D01*
X175851676Y-80562299D01*
X175848000Y-80524976D01*
X175848000Y-80524967D01*
X175837003Y-80413314D01*
X175793546Y-80270053D01*
X175722974Y-80138024D01*
X175628001Y-80022299D01*
X175599003Y-79998501D01*
X174889601Y-79289100D01*
X175792700Y-79289100D01*
X175792700Y-79377039D01*
G37*
%TD.AperFunction*%
D15*
X191993074Y-78847702D02*
X191953300Y-79047661D01*
X191953300Y-79251539D01*
X191993074Y-79451498D01*
X192071095Y-79639856D01*
X192150300Y-79758395D01*
X192150301Y-83868899D01*
X187931463Y-79650062D01*
X187936500Y-79624739D01*
X187936500Y-79420861D01*
X187896726Y-79220902D01*
X187818705Y-79032544D01*
X187705437Y-78863026D01*
X187669211Y-78826800D01*
X192001732Y-78826800D01*
X191993074Y-78847702D01*
%TA.AperFunction,Conductor*%
D16*
G36*
X191993074Y-78847702D02*
G01*
X191953300Y-79047661D01*
X191953300Y-79251539D01*
X191993074Y-79451498D01*
X192071095Y-79639856D01*
X192150300Y-79758395D01*
X192150301Y-83868899D01*
X187931463Y-79650062D01*
X187936500Y-79624739D01*
X187936500Y-79420861D01*
X187896726Y-79220902D01*
X187818705Y-79032544D01*
X187705437Y-78863026D01*
X187669211Y-78826800D01*
X192001732Y-78826800D01*
X191993074Y-78847702D01*
G37*
%TD.AperFunction*%
D15*
X179658400Y-78961439D02*
X179698174Y-79161398D01*
X179776195Y-79349756D01*
X179889463Y-79519274D01*
X180033626Y-79663437D01*
X180203144Y-79776705D01*
X180391502Y-79854726D01*
X180591461Y-79894500D01*
X180653599Y-79894500D01*
X183478100Y-82719002D01*
X183478101Y-83685688D01*
X183434163Y-83729626D01*
X183427500Y-83739598D01*
X178514701Y-78826800D01*
X179658400Y-78826800D01*
X179658400Y-78961439D01*
%TA.AperFunction,Conductor*%
D16*
G36*
X179658400Y-78961439D02*
G01*
X179698174Y-79161398D01*
X179776195Y-79349756D01*
X179889463Y-79519274D01*
X180033626Y-79663437D01*
X180203144Y-79776705D01*
X180391502Y-79854726D01*
X180591461Y-79894500D01*
X180653599Y-79894500D01*
X183478100Y-82719002D01*
X183478101Y-83685688D01*
X183434163Y-83729626D01*
X183427500Y-83739598D01*
X178514701Y-78826800D01*
X179658400Y-78826800D01*
X179658400Y-78961439D01*
G37*
%TD.AperFunction*%
D15*
X186097563Y-78863026D02*
X185984295Y-79032544D01*
X185906274Y-79220902D01*
X185866500Y-79420861D01*
X185866500Y-79624739D01*
X185906274Y-79824698D01*
X185984295Y-80013056D01*
X186097563Y-80182574D01*
X186241726Y-80326737D01*
X186411244Y-80440005D01*
X186599602Y-80518026D01*
X186662295Y-80530496D01*
X188335099Y-82203300D01*
X186755296Y-82203300D01*
X183466800Y-78914887D01*
X183466800Y-78852761D01*
X183461636Y-78826800D01*
X186133789Y-78826800D01*
X186097563Y-78863026D01*
%TA.AperFunction,Conductor*%
D16*
G36*
X186097563Y-78863026D02*
G01*
X185984295Y-79032544D01*
X185906274Y-79220902D01*
X185866500Y-79420861D01*
X185866500Y-79624739D01*
X185906274Y-79824698D01*
X185984295Y-80013056D01*
X186097563Y-80182574D01*
X186241726Y-80326737D01*
X186411244Y-80440005D01*
X186599602Y-80518026D01*
X186662295Y-80530496D01*
X188335099Y-82203300D01*
X186755296Y-82203300D01*
X183466800Y-78914887D01*
X183466800Y-78852761D01*
X183461636Y-78826800D01*
X186133789Y-78826800D01*
X186097563Y-78863026D01*
G37*
%TD.AperFunction*%
%TD*%
M02*
