%TF.GenerationSoftware,KiCad,Pcbnew,(5.1.9)-1*%
%TF.CreationDate,2021-11-21T17:51:23+01:00*%
%TF.ProjectId,MemoryBrakout,4d656d6f-7279-4427-9261-6b6f75742e6b,rev?*%
%TF.SameCoordinates,Original*%
%TF.FileFunction,Copper,L2,Bot*%
%TF.FilePolarity,Positive*%
%FSLAX46Y46*%
G04 Gerber Fmt 4.6, Leading zero omitted, Abs format (unit mm)*
G04 Created by KiCad (PCBNEW (5.1.9)-1) date 2021-11-21 17:51:23*
%MOMM*%
%LPD*%
G01*
G04 APERTURE LIST*
%TA.AperFunction,SMDPad,CuDef*%
%ADD10R,1.700000X3.000000*%
%TD*%
%TA.AperFunction,ComponentPad*%
%ADD11R,1.700000X1.700000*%
%TD*%
%TA.AperFunction,ComponentPad*%
%ADD12O,1.700000X1.700000*%
%TD*%
%TA.AperFunction,SMDPad,CuDef*%
%ADD13R,0.300000X1.300000*%
%TD*%
%TA.AperFunction,SMDPad,CuDef*%
%ADD14R,2.700000X1.300000*%
%TD*%
%TA.AperFunction,SMDPad,CuDef*%
%ADD15R,1.300000X2.200000*%
%TD*%
%TA.AperFunction,ViaPad*%
%ADD16C,0.800000*%
%TD*%
%TA.AperFunction,Conductor*%
%ADD17C,0.250000*%
%TD*%
%TA.AperFunction,Conductor*%
%ADD18C,0.254000*%
%TD*%
%TA.AperFunction,Conductor*%
%ADD19C,0.100000*%
%TD*%
G04 APERTURE END LIST*
%TO.P,C1,1*%
%TO.N,/DISPON*%
%TA.AperFunction,SMDPad,CuDef*%
G36*
G01*
X185657500Y-83315000D02*
X185182500Y-83315000D01*
G75*
G02*
X184945000Y-83077500I0J237500D01*
G01*
X184945000Y-82477500D01*
G75*
G02*
X185182500Y-82240000I237500J0D01*
G01*
X185657500Y-82240000D01*
G75*
G02*
X185895000Y-82477500I0J-237500D01*
G01*
X185895000Y-83077500D01*
G75*
G02*
X185657500Y-83315000I-237500J0D01*
G01*
G37*
%TD.AperFunction*%
%TO.P,C1,2*%
%TO.N,GND*%
%TA.AperFunction,SMDPad,CuDef*%
G36*
G01*
X185657500Y-81590000D02*
X185182500Y-81590000D01*
G75*
G02*
X184945000Y-81352500I0J237500D01*
G01*
X184945000Y-80752500D01*
G75*
G02*
X185182500Y-80515000I237500J0D01*
G01*
X185657500Y-80515000D01*
G75*
G02*
X185895000Y-80752500I0J-237500D01*
G01*
X185895000Y-81352500D01*
G75*
G02*
X185657500Y-81590000I-237500J0D01*
G01*
G37*
%TD.AperFunction*%
%TD*%
%TO.P,C2,2*%
%TO.N,GND*%
%TA.AperFunction,SMDPad,CuDef*%
G36*
G01*
X181847500Y-81817500D02*
X181372500Y-81817500D01*
G75*
G02*
X181135000Y-81580000I0J237500D01*
G01*
X181135000Y-80980000D01*
G75*
G02*
X181372500Y-80742500I237500J0D01*
G01*
X181847500Y-80742500D01*
G75*
G02*
X182085000Y-80980000I0J-237500D01*
G01*
X182085000Y-81580000D01*
G75*
G02*
X181847500Y-81817500I-237500J0D01*
G01*
G37*
%TD.AperFunction*%
%TO.P,C2,1*%
%TO.N,+3V3*%
%TA.AperFunction,SMDPad,CuDef*%
G36*
G01*
X181847500Y-83542500D02*
X181372500Y-83542500D01*
G75*
G02*
X181135000Y-83305000I0J237500D01*
G01*
X181135000Y-82705000D01*
G75*
G02*
X181372500Y-82467500I237500J0D01*
G01*
X181847500Y-82467500D01*
G75*
G02*
X182085000Y-82705000I0J-237500D01*
G01*
X182085000Y-83305000D01*
G75*
G02*
X181847500Y-83542500I-237500J0D01*
G01*
G37*
%TD.AperFunction*%
%TD*%
%TO.P,C3,1*%
%TO.N,+3V3*%
%TA.AperFunction,SMDPad,CuDef*%
G36*
G01*
X179942500Y-83542500D02*
X179467500Y-83542500D01*
G75*
G02*
X179230000Y-83305000I0J237500D01*
G01*
X179230000Y-82705000D01*
G75*
G02*
X179467500Y-82467500I237500J0D01*
G01*
X179942500Y-82467500D01*
G75*
G02*
X180180000Y-82705000I0J-237500D01*
G01*
X180180000Y-83305000D01*
G75*
G02*
X179942500Y-83542500I-237500J0D01*
G01*
G37*
%TD.AperFunction*%
%TO.P,C3,2*%
%TO.N,GND*%
%TA.AperFunction,SMDPad,CuDef*%
G36*
G01*
X179942500Y-81817500D02*
X179467500Y-81817500D01*
G75*
G02*
X179230000Y-81580000I0J237500D01*
G01*
X179230000Y-80980000D01*
G75*
G02*
X179467500Y-80742500I237500J0D01*
G01*
X179942500Y-80742500D01*
G75*
G02*
X180180000Y-80980000I0J-237500D01*
G01*
X180180000Y-81580000D01*
G75*
G02*
X179942500Y-81817500I-237500J0D01*
G01*
G37*
%TD.AperFunction*%
%TD*%
D10*
%TO.P,J1,2*%
%TO.N,+5V*%
X205885000Y-76685000D03*
%TO.P,J1,1*%
%TO.N,+3V3*%
X205885000Y-72811500D03*
%TO.P,J1,4*%
%TO.N,+5V*%
X203345000Y-76685000D03*
%TO.P,J1,3*%
%TO.N,/SDA*%
X203345000Y-72811500D03*
%TO.P,J1,6*%
%TO.N,GND*%
X200805000Y-76685000D03*
%TO.P,J1,5*%
%TO.N,/SCL*%
X200805000Y-72811500D03*
%TO.P,J1,8*%
%TO.N,/TXD*%
X198265000Y-76685000D03*
%TO.P,J1,7*%
%TO.N,N/C*%
X198265000Y-72811500D03*
%TO.P,J1,10*%
%TO.N,/RXD*%
X195725000Y-76685000D03*
%TO.P,J1,9*%
%TO.N,GND*%
X195725000Y-72811500D03*
%TO.P,J1,12*%
%TO.N,/BUT1*%
X193185000Y-76685000D03*
%TO.P,J1,11*%
%TO.N,N/C*%
X193185000Y-72811500D03*
%TO.P,J1,14*%
%TO.N,GND*%
X190645000Y-76685000D03*
%TO.P,J1,13*%
%TO.N,N/C*%
X190645000Y-72811500D03*
%TO.P,J1,16*%
%TO.N,/CS*%
X188105000Y-76685000D03*
%TO.P,J1,15*%
%TO.N,/LEDYellow*%
X188105000Y-72811500D03*
%TO.P,J1,18*%
%TO.N,/DISPON*%
X185565000Y-76685000D03*
%TO.P,J1,17*%
%TO.N,+3V3*%
X185565000Y-72811500D03*
%TO.P,J1,20*%
%TO.N,GND*%
X183025000Y-76685000D03*
%TO.P,J1,19*%
%TO.N,/MOSI*%
X183025000Y-72875000D03*
%TO.P,J1,22*%
%TO.N,/EXTCOMIN*%
X180485000Y-76685000D03*
%TO.P,J1,21*%
%TO.N,N/C*%
X180467000Y-72834500D03*
%TO.P,J1,24*%
X177945000Y-76685000D03*
%TO.P,J1,23*%
%TO.N,/SCK*%
X177927000Y-72834500D03*
%TO.P,J1,26*%
%TO.N,N/C*%
X175405000Y-76685000D03*
%TO.P,J1,25*%
X175387000Y-72834500D03*
%TO.P,J1,28*%
X172865000Y-76685000D03*
%TO.P,J1,27*%
%TO.N,GND*%
X172847000Y-72834500D03*
%TO.P,J1,30*%
X170325000Y-76685000D03*
%TO.P,J1,29*%
%TO.N,N/C*%
X170307000Y-72834500D03*
%TO.P,J1,32*%
%TO.N,/BUT2*%
X167785000Y-76685000D03*
%TO.P,J1,31*%
%TO.N,N/C*%
X167767000Y-72834500D03*
%TO.P,J1,34*%
%TO.N,GND*%
X165245000Y-76685000D03*
%TO.P,J1,33*%
%TO.N,/LEDPink2*%
X165227000Y-72834500D03*
%TO.P,J1,36*%
%TO.N,/BUT3*%
X162705000Y-76685000D03*
%TO.P,J1,35*%
%TO.N,/LEDPink*%
X162750500Y-72834500D03*
%TO.P,J1,38*%
%TO.N,/BUT4*%
X160165000Y-76685000D03*
%TO.P,J1,37*%
%TO.N,/LEDYellow2*%
X160147000Y-72834500D03*
%TO.P,J1,40*%
%TO.N,/BUT5*%
X157607000Y-76708000D03*
%TO.P,J1,39*%
%TO.N,GND*%
X157607000Y-72834500D03*
%TD*%
D11*
%TO.P,J2,1*%
%TO.N,/BUT1*%
X189230000Y-95250000D03*
D12*
%TO.P,J2,2*%
%TO.N,/BUT2*%
X191770000Y-95250000D03*
%TO.P,J2,3*%
%TO.N,/BUT3*%
X194310000Y-95250000D03*
%TO.P,J2,4*%
%TO.N,/BUT4*%
X196850000Y-95250000D03*
%TO.P,J2,5*%
%TO.N,/BUT5*%
X199390000Y-95250000D03*
%TD*%
D11*
%TO.P,J3,1*%
%TO.N,/SCK*%
X187960000Y-99060000D03*
D12*
%TO.P,J3,2*%
%TO.N,/MOSI*%
X190500000Y-99060000D03*
%TO.P,J3,3*%
%TO.N,/CS*%
X193040000Y-99060000D03*
%TO.P,J3,4*%
%TO.N,/EXTCOMIN*%
X195580000Y-99060000D03*
%TO.P,J3,5*%
%TO.N,/DISPON*%
X198120000Y-99060000D03*
%TO.P,J3,6*%
%TO.N,+3V3*%
X200660000Y-99060000D03*
%TO.P,J3,7*%
%TO.N,+5V*%
X203200000Y-99060000D03*
%TO.P,J3,8*%
%TO.N,/EXTMODE*%
X205740000Y-99060000D03*
%TO.P,J3,9*%
%TO.N,GND*%
X208280000Y-99060000D03*
%TO.P,J3,10*%
X210820000Y-99060000D03*
%TD*%
%TO.P,J4,4*%
%TO.N,/SCL*%
X160020000Y-95250000D03*
%TO.P,J4,3*%
%TO.N,/SDA*%
X157480000Y-95250000D03*
%TO.P,J4,2*%
%TO.N,/RXD*%
X154940000Y-95250000D03*
D11*
%TO.P,J4,1*%
%TO.N,/TXD*%
X152400000Y-95250000D03*
%TD*%
%TO.P,J5,1*%
%TO.N,+3V3*%
X203200000Y-95250000D03*
D12*
%TO.P,J5,2*%
X205740000Y-95250000D03*
%TO.P,J5,3*%
%TO.N,GND*%
X208280000Y-95250000D03*
%TO.P,J5,4*%
X210820000Y-95250000D03*
%TD*%
%TO.P,R1,2*%
%TO.N,+3V3*%
%TA.AperFunction,SMDPad,CuDef*%
G36*
G01*
X174862500Y-81767500D02*
X174387500Y-81767500D01*
G75*
G02*
X174150000Y-81530000I0J237500D01*
G01*
X174150000Y-81030000D01*
G75*
G02*
X174387500Y-80792500I237500J0D01*
G01*
X174862500Y-80792500D01*
G75*
G02*
X175100000Y-81030000I0J-237500D01*
G01*
X175100000Y-81530000D01*
G75*
G02*
X174862500Y-81767500I-237500J0D01*
G01*
G37*
%TD.AperFunction*%
%TO.P,R1,1*%
%TO.N,/EXTMODE*%
%TA.AperFunction,SMDPad,CuDef*%
G36*
G01*
X174862500Y-83592500D02*
X174387500Y-83592500D01*
G75*
G02*
X174150000Y-83355000I0J237500D01*
G01*
X174150000Y-82855000D01*
G75*
G02*
X174387500Y-82617500I237500J0D01*
G01*
X174862500Y-82617500D01*
G75*
G02*
X175100000Y-82855000I0J-237500D01*
G01*
X175100000Y-83355000D01*
G75*
G02*
X174862500Y-83592500I-237500J0D01*
G01*
G37*
%TD.AperFunction*%
%TD*%
%TO.P,R7,1*%
%TO.N,/EXTMODE*%
%TA.AperFunction,SMDPad,CuDef*%
G36*
G01*
X171687500Y-83592500D02*
X171212500Y-83592500D01*
G75*
G02*
X170975000Y-83355000I0J237500D01*
G01*
X170975000Y-82855000D01*
G75*
G02*
X171212500Y-82617500I237500J0D01*
G01*
X171687500Y-82617500D01*
G75*
G02*
X171925000Y-82855000I0J-237500D01*
G01*
X171925000Y-83355000D01*
G75*
G02*
X171687500Y-83592500I-237500J0D01*
G01*
G37*
%TD.AperFunction*%
%TO.P,R7,2*%
%TO.N,GND*%
%TA.AperFunction,SMDPad,CuDef*%
G36*
G01*
X171687500Y-81767500D02*
X171212500Y-81767500D01*
G75*
G02*
X170975000Y-81530000I0J237500D01*
G01*
X170975000Y-81030000D01*
G75*
G02*
X171212500Y-80792500I237500J0D01*
G01*
X171687500Y-80792500D01*
G75*
G02*
X171925000Y-81030000I0J-237500D01*
G01*
X171925000Y-81530000D01*
G75*
G02*
X171687500Y-81767500I-237500J0D01*
G01*
G37*
%TD.AperFunction*%
%TD*%
D13*
%TO.P,U1,8*%
%TO.N,/EXTMODE*%
X180316300Y-86133800D03*
%TO.P,U1,1*%
%TO.N,/SCK*%
X183816300Y-86133800D03*
%TO.P,U1,7*%
%TO.N,+3V3*%
X180816300Y-86133800D03*
%TO.P,U1,5*%
%TO.N,/DISPON*%
X181816300Y-86133800D03*
%TO.P,U1,9*%
%TO.N,GND*%
X179816300Y-86133800D03*
%TO.P,U1,10*%
X179316300Y-86133800D03*
%TO.P,U1,3*%
%TO.N,/CS*%
X182816300Y-86133800D03*
%TO.P,U1,2*%
%TO.N,/MOSI*%
X183316300Y-86133800D03*
%TO.P,U1,4*%
%TO.N,/EXTCOMIN*%
X182316300Y-86133800D03*
%TO.P,U1,6*%
%TO.N,+3V3*%
X181316300Y-86133800D03*
D14*
%TO.P,U1,11*%
%TO.N,N/C*%
X176956200Y-87374200D03*
D15*
X177603900Y-88237800D03*
D14*
X186252600Y-87374200D03*
D15*
X185579500Y-88237800D03*
%TD*%
D16*
%TO.N,GND*%
X171526200Y-97223580D03*
X164846000Y-75692000D03*
X172974000Y-73660000D03*
X170180000Y-76200000D03*
X183134000Y-75692000D03*
X190754000Y-75946000D03*
X195834000Y-73152000D03*
X200660000Y-76708000D03*
X180340000Y-107442000D03*
X180340000Y-109728000D03*
%TO.N,/DISPON*%
X187428600Y-83688600D03*
%TO.N,GND*%
X182372000Y-104140000D03*
X176022000Y-101854000D03*
X174498000Y-111760000D03*
X175768000Y-109220000D03*
X165608000Y-79756000D03*
X178816000Y-78994000D03*
X176149000Y-84099400D03*
X175260000Y-79375000D03*
X185496200Y-80975200D03*
X189255400Y-79756000D03*
X181737000Y-109016800D03*
X184785000Y-108737400D03*
X168503600Y-93243400D03*
X167005000Y-94525000D03*
X163753800Y-101574600D03*
X166537640Y-97703640D03*
%TO.N,+3V3*%
X165847500Y-94273500D03*
%TO.N,/TXD*%
X198085000Y-79061700D03*
%TO.N,/RXD*%
X195066500Y-79148100D03*
X154037400Y-92760300D03*
%TO.N,/BUT1*%
X192988300Y-79149600D03*
X192910300Y-84677800D03*
X169212500Y-98572300D03*
%TO.N,/CS*%
X184230600Y-87947900D03*
%TO.N,/MOSI*%
X182431800Y-78954700D03*
X185360100Y-84415500D03*
%TO.N,/EXTCOMIN*%
X180693400Y-78859500D03*
X184238100Y-84389400D03*
%TO.N,/SCK*%
X176827700Y-79275100D03*
X183072700Y-88123000D03*
%TO.N,/BUT2*%
X177602300Y-80542100D03*
%TO.N,/BUT3*%
X162968100Y-78954300D03*
%TO.N,/BUT4*%
X195328100Y-101572800D03*
X165389400Y-110702000D03*
%TO.N,/BUT5*%
X158714400Y-79399300D03*
X170991500Y-98272000D03*
%TO.N,/EXTMODE*%
X164541500Y-91377300D03*
%TO.N,/LEDYellow*%
X186901500Y-79522800D03*
X205568800Y-102058300D03*
X181164300Y-101136000D03*
%TO.N,/LEDPink*%
X167687500Y-79254800D03*
%TO.N,/LEDYellow2*%
X166024300Y-81454600D03*
%TO.N,/LEDPink2*%
X173817300Y-79291600D03*
%TD*%
D17*
%TO.N,/DISPON*%
X186223000Y-82489500D02*
X186229500Y-82489500D01*
X186229500Y-82489500D02*
X187428600Y-83688600D01*
X185420000Y-82777500D02*
X185708000Y-82489500D01*
X185708000Y-82489500D02*
X186223000Y-82489500D01*
X185565000Y-78510300D02*
X185565000Y-79212000D01*
X185565000Y-79212000D02*
X186223000Y-79870000D01*
X186223000Y-79870000D02*
X186223000Y-82489500D01*
X185420000Y-82777500D02*
X184043600Y-82777500D01*
X184043600Y-82777500D02*
X181816300Y-85004800D01*
X181816300Y-85004800D02*
X181816300Y-86133800D01*
X185565000Y-76685000D02*
X185565000Y-78510300D01*
%TO.N,GND*%
X180340000Y-109728000D02*
X180340000Y-107442000D01*
X176276000Y-109728000D02*
X175768000Y-109220000D01*
X180340000Y-109728000D02*
X176276000Y-109728000D01*
X179816300Y-86133800D02*
X179316300Y-86133800D01*
X179316300Y-86133800D02*
X177878600Y-86133800D01*
X176149000Y-84404200D02*
X176149000Y-84099400D01*
X177878600Y-86133800D02*
X176149000Y-84404200D01*
X174040001Y-74027501D02*
X172847000Y-72834500D01*
X174040001Y-78155001D02*
X174040001Y-74027501D01*
X175260000Y-79375000D02*
X174040001Y-78155001D01*
X179291999Y-78518001D02*
X179291999Y-70021199D01*
X178816000Y-78994000D02*
X179291999Y-78518001D01*
X185420000Y-81051400D02*
X185496200Y-80975200D01*
X185420000Y-81052500D02*
X185420000Y-81051400D01*
X168286600Y-93243400D02*
X167005000Y-94525000D01*
X168503600Y-93243400D02*
X168286600Y-93243400D01*
X167017700Y-97223580D02*
X166537640Y-97703640D01*
X171526200Y-97223580D02*
X167017700Y-97223580D01*
%TO.N,+3V3*%
X185565000Y-72811500D02*
X185565000Y-74636800D01*
X181610000Y-83005000D02*
X184389700Y-80225300D01*
X184389700Y-80225300D02*
X184389700Y-75004000D01*
X184389700Y-75004000D02*
X184756900Y-74636800D01*
X184756900Y-74636800D02*
X185565000Y-74636800D01*
X181316300Y-83298700D02*
X181610000Y-83005000D01*
X181316300Y-86133800D02*
X181316300Y-87109100D01*
X181316300Y-87109100D02*
X178762200Y-89663200D01*
X178762200Y-89663200D02*
X170457800Y-89663200D01*
X170457800Y-89663200D02*
X165847500Y-94273500D01*
X181316300Y-85987000D02*
X181316300Y-86133800D01*
X203200000Y-95250000D02*
X204375300Y-95250000D01*
X205740000Y-94662300D02*
X204963000Y-94662300D01*
X204963000Y-94662300D02*
X204375300Y-95250000D01*
X205740000Y-94662300D02*
X205740000Y-94074700D01*
X205740000Y-95250000D02*
X205740000Y-94662300D01*
X181316300Y-85158500D02*
X181316300Y-83298700D01*
X181316300Y-83298700D02*
X179998700Y-83298700D01*
X179998700Y-83298700D02*
X179705000Y-83005000D01*
X179705000Y-83005000D02*
X177980000Y-81280000D01*
X177980000Y-81280000D02*
X174625000Y-81280000D01*
X181316300Y-85987000D02*
X181316300Y-85271100D01*
X205740000Y-94074700D02*
X207060300Y-92754400D01*
X207060300Y-92754400D02*
X207060300Y-75004000D01*
X207060300Y-75004000D02*
X206693100Y-74636800D01*
X206693100Y-74636800D02*
X205885000Y-74636800D01*
X205885000Y-72811500D02*
X205885000Y-74636800D01*
X205885000Y-72811500D02*
X205885000Y-70986200D01*
X185565000Y-72811500D02*
X185565000Y-70986200D01*
X185565000Y-70986200D02*
X205885000Y-70986200D01*
X181316300Y-85271100D02*
X181316300Y-85158500D01*
X180816300Y-86133800D02*
X180816300Y-85158500D01*
X181316300Y-85158500D02*
X180816300Y-85158500D01*
%TO.N,+5V*%
X203200000Y-99060000D02*
X203200000Y-97884700D01*
X203200000Y-97884700D02*
X202015000Y-96699700D01*
X202015000Y-96699700D02*
X202015000Y-79840300D01*
X202015000Y-79840300D02*
X203345000Y-78510300D01*
X203345000Y-78510300D02*
X203345000Y-76685000D01*
X203345000Y-78510300D02*
X205885000Y-78510300D01*
X205885000Y-76685000D02*
X205885000Y-78510300D01*
%TO.N,/SDA*%
X203345000Y-74636800D02*
X202536900Y-74636800D01*
X202536900Y-74636800D02*
X202169700Y-75004000D01*
X202169700Y-75004000D02*
X202169700Y-78139000D01*
X202169700Y-78139000D02*
X200396500Y-79912200D01*
X200396500Y-79912200D02*
X196650000Y-79912200D01*
X196650000Y-79912200D02*
X192184900Y-84377300D01*
X192184900Y-84377300D02*
X192184900Y-84575900D01*
X192184900Y-84575900D02*
X184841100Y-91919700D01*
X184841100Y-91919700D02*
X177424500Y-91919700D01*
X177424500Y-91919700D02*
X172902800Y-96441400D01*
X172902800Y-96441400D02*
X159479400Y-96441400D01*
X159479400Y-96441400D02*
X158655300Y-95617300D01*
X158655300Y-95617300D02*
X158655300Y-95250000D01*
X203345000Y-72811500D02*
X203345000Y-74636800D01*
X157480000Y-95250000D02*
X158655300Y-95250000D01*
%TO.N,/SCL*%
X200805000Y-72811500D02*
X200805000Y-74636800D01*
X160020000Y-95250000D02*
X173457300Y-95250000D01*
X173457300Y-95250000D02*
X178465300Y-90242000D01*
X178465300Y-90242000D02*
X185855400Y-90242000D01*
X185855400Y-90242000D02*
X191734500Y-84362900D01*
X191734500Y-84362900D02*
X191734500Y-83553900D01*
X191734500Y-83553900D02*
X196900400Y-78388000D01*
X196900400Y-78388000D02*
X196900400Y-75221200D01*
X196900400Y-75221200D02*
X197484800Y-74636800D01*
X197484800Y-74636800D02*
X200805000Y-74636800D01*
%TO.N,/TXD*%
X198085000Y-79061700D02*
X198265000Y-78881700D01*
X198265000Y-78881700D02*
X198265000Y-76685000D01*
%TO.N,/RXD*%
X195725000Y-76685000D02*
X195725000Y-78510300D01*
X195066500Y-79148100D02*
X195704300Y-78510300D01*
X195704300Y-78510300D02*
X195725000Y-78510300D01*
X154940000Y-95250000D02*
X154940000Y-93662900D01*
X154940000Y-93662900D02*
X154037400Y-92760300D01*
%TO.N,/BUT1*%
X192910300Y-92424600D02*
X198284100Y-92424600D01*
X198284100Y-92424600D02*
X200607100Y-94747600D01*
X200607100Y-94747600D02*
X200607100Y-95699800D01*
X200607100Y-95699800D02*
X198542200Y-97764700D01*
X198542200Y-97764700D02*
X177215000Y-97764700D01*
X177215000Y-97764700D02*
X175941600Y-99038100D01*
X175941600Y-99038100D02*
X169678300Y-99038100D01*
X169678300Y-99038100D02*
X169212500Y-98572300D01*
X190405300Y-95250000D02*
X190405300Y-94929600D01*
X190405300Y-94929600D02*
X192910300Y-92424600D01*
X192910300Y-92424600D02*
X192910300Y-84677800D01*
X192988300Y-79149600D02*
X193185000Y-78952900D01*
X193185000Y-78952900D02*
X193185000Y-76685000D01*
X189230000Y-95250000D02*
X190405300Y-95250000D01*
%TO.N,/CS*%
X188105000Y-76685000D02*
X188105000Y-78510300D01*
X184230600Y-87947900D02*
X184402700Y-87775800D01*
X184402700Y-87775800D02*
X184402700Y-86654500D01*
X184402700Y-86654500D02*
X186643300Y-84413900D01*
X186643300Y-84413900D02*
X187729100Y-84413900D01*
X187729100Y-84413900D02*
X188153900Y-83989100D01*
X188153900Y-83989100D02*
X188153900Y-78559200D01*
X188153900Y-78559200D02*
X188105000Y-78510300D01*
X184230600Y-87947900D02*
X184230600Y-87990900D01*
X184230600Y-87990900D02*
X183373200Y-88848300D01*
X183373200Y-88848300D02*
X182772300Y-88848300D01*
X182772300Y-88848300D02*
X182347400Y-88423400D01*
X182347400Y-88423400D02*
X182347400Y-87578000D01*
X182347400Y-87578000D02*
X182816300Y-87109100D01*
X182816300Y-86133800D02*
X182816300Y-87109100D01*
%TO.N,/MOSI*%
X183025000Y-72875000D02*
X183025000Y-74700300D01*
X182431800Y-78954700D02*
X181849700Y-78372600D01*
X181849700Y-78372600D02*
X181849700Y-74994100D01*
X181849700Y-74994100D02*
X182143500Y-74700300D01*
X182143500Y-74700300D02*
X183025000Y-74700300D01*
X183316300Y-86133800D02*
X183316300Y-85158500D01*
X183316300Y-85158500D02*
X184617100Y-85158500D01*
X184617100Y-85158500D02*
X185360100Y-84415500D01*
%TO.N,/EXTCOMIN*%
X180693400Y-78859500D02*
X180485000Y-78651100D01*
X180485000Y-78651100D02*
X180485000Y-76685000D01*
X182316300Y-86133800D02*
X182316300Y-85158500D01*
X182316300Y-85158500D02*
X183085400Y-84389400D01*
X183085400Y-84389400D02*
X184238100Y-84389400D01*
%TO.N,/SCK*%
X177927000Y-72834500D02*
X177927000Y-74659800D01*
X176827700Y-79275100D02*
X176769600Y-79217000D01*
X176769600Y-79217000D02*
X176769600Y-75021400D01*
X176769600Y-75021400D02*
X177131200Y-74659800D01*
X177131200Y-74659800D02*
X177927000Y-74659800D01*
X183816300Y-86133800D02*
X183816300Y-87109100D01*
X183816300Y-87109100D02*
X183072700Y-87852700D01*
X183072700Y-87852700D02*
X183072700Y-88123000D01*
%TO.N,/BUT2*%
X167785000Y-76685000D02*
X167785000Y-78510300D01*
X177602300Y-80542100D02*
X177526400Y-80466200D01*
X177526400Y-80466200D02*
X171206400Y-80466200D01*
X171206400Y-80466200D02*
X169250500Y-78510300D01*
X169250500Y-78510300D02*
X167785000Y-78510300D01*
%TO.N,/BUT3*%
X162968100Y-78954300D02*
X162705000Y-78691200D01*
X162705000Y-78691200D02*
X162705000Y-76685000D01*
%TO.N,/BUT4*%
X165389400Y-110702000D02*
X186198900Y-110702000D01*
X186198900Y-110702000D02*
X195328100Y-101572800D01*
X165389400Y-110702000D02*
X165025400Y-110702000D01*
X165025400Y-110702000D02*
X150755300Y-96431900D01*
X150755300Y-96431900D02*
X150755300Y-88912500D01*
X150755300Y-88912500D02*
X160165000Y-79502800D01*
X160165000Y-79502800D02*
X160165000Y-76685000D01*
%TO.N,/BUT5*%
X157607000Y-76708000D02*
X157607000Y-78533300D01*
X158714400Y-79399300D02*
X157848400Y-78533300D01*
X157848400Y-78533300D02*
X157607000Y-78533300D01*
X199390000Y-95250000D02*
X198214700Y-95250000D01*
X196517700Y-97314300D02*
X198214700Y-95617300D01*
X198214700Y-95617300D02*
X198214700Y-95250000D01*
X170991500Y-98272000D02*
X175665800Y-98272000D01*
X176670800Y-97459800D02*
X176816300Y-97314300D01*
X176478000Y-97459800D02*
X176670800Y-97459800D01*
X175665800Y-98272000D02*
X176478000Y-97459800D01*
X176816300Y-97314300D02*
X196517700Y-97314300D01*
%TO.N,/EXTMODE*%
X205740000Y-99060000D02*
X204564700Y-99060000D01*
X164541500Y-91377300D02*
X159647300Y-91377300D01*
X159647300Y-91377300D02*
X156298100Y-94726500D01*
X156298100Y-94726500D02*
X156298100Y-95808800D01*
X156298100Y-95808800D02*
X160750000Y-100260700D01*
X160750000Y-100260700D02*
X203729300Y-100260700D01*
X203729300Y-100260700D02*
X204564700Y-99425300D01*
X204564700Y-99425300D02*
X204564700Y-99060000D01*
X171450000Y-83105000D02*
X171450000Y-84468800D01*
X171450000Y-84468800D02*
X164541500Y-91377300D01*
X174625000Y-83105000D02*
X171450000Y-83105000D01*
X180316300Y-86133800D02*
X180316300Y-85158500D01*
X174625000Y-83105000D02*
X178262800Y-83105000D01*
X178262800Y-83105000D02*
X180316300Y-85158500D01*
%TO.N,/LEDYellow*%
X205568800Y-102058300D02*
X204358000Y-100847500D01*
X204358000Y-100847500D02*
X181452800Y-100847500D01*
X181452800Y-100847500D02*
X181164300Y-101136000D01*
X188105000Y-72811500D02*
X188105000Y-74636800D01*
X186901500Y-79522800D02*
X186901500Y-75032300D01*
X186901500Y-75032300D02*
X187297000Y-74636800D01*
X187297000Y-74636800D02*
X188105000Y-74636800D01*
%TO.N,/LEDPink*%
X162750500Y-72834500D02*
X162750500Y-74659800D01*
X167687500Y-79254800D02*
X167486000Y-79254800D01*
X167486000Y-79254800D02*
X166609600Y-78378400D01*
X166609600Y-78378400D02*
X166609600Y-75221200D01*
X166609600Y-75221200D02*
X166048200Y-74659800D01*
X166048200Y-74659800D02*
X162750500Y-74659800D01*
%TO.N,/LEDYellow2*%
X160147000Y-72834500D02*
X160147000Y-74659800D01*
X166024300Y-81454600D02*
X164375100Y-81454600D01*
X164375100Y-81454600D02*
X161529600Y-78609100D01*
X161529600Y-78609100D02*
X161529600Y-75234400D01*
X161529600Y-75234400D02*
X160955000Y-74659800D01*
X160955000Y-74659800D02*
X160147000Y-74659800D01*
%TO.N,/LEDPink2*%
X173817300Y-79291600D02*
X172620400Y-79291600D01*
X172620400Y-79291600D02*
X171689600Y-78360800D01*
X171689600Y-78360800D02*
X171689600Y-75187800D01*
X171689600Y-75187800D02*
X171361400Y-74859600D01*
X171361400Y-74859600D02*
X166904100Y-74859600D01*
X166904100Y-74859600D02*
X165227000Y-73182500D01*
X165227000Y-73182500D02*
X165227000Y-72834500D01*
%TD*%
D18*
%TO.N,GND*%
X213477869Y-48934722D02*
X213591246Y-48968953D01*
X213695819Y-49024555D01*
X213787596Y-49099407D01*
X213863091Y-49190664D01*
X213919419Y-49294844D01*
X213954440Y-49407976D01*
X213970000Y-49556022D01*
X213970001Y-114267711D01*
X213955278Y-114417869D01*
X213921047Y-114531246D01*
X213865446Y-114635817D01*
X213790594Y-114727595D01*
X213699335Y-114803091D01*
X213595160Y-114859419D01*
X213482024Y-114894440D01*
X213333979Y-114910000D01*
X149892279Y-114910000D01*
X149742131Y-114895278D01*
X149628754Y-114861047D01*
X149524183Y-114805446D01*
X149432405Y-114730594D01*
X149356909Y-114639335D01*
X149300581Y-114535160D01*
X149265560Y-114422024D01*
X149250000Y-114273979D01*
X149250000Y-112590344D01*
X149499000Y-112590344D01*
X149499000Y-112961656D01*
X149571439Y-113325834D01*
X149713534Y-113668882D01*
X149919825Y-113977618D01*
X150182382Y-114240175D01*
X150491118Y-114446466D01*
X150834166Y-114588561D01*
X151198344Y-114661000D01*
X151569656Y-114661000D01*
X151933834Y-114588561D01*
X152276882Y-114446466D01*
X152585618Y-114240175D01*
X152848175Y-113977618D01*
X153054466Y-113668882D01*
X153196561Y-113325834D01*
X153269000Y-112961656D01*
X153269000Y-112590344D01*
X209951000Y-112590344D01*
X209951000Y-112961656D01*
X210023439Y-113325834D01*
X210165534Y-113668882D01*
X210371825Y-113977618D01*
X210634382Y-114240175D01*
X210943118Y-114446466D01*
X211286166Y-114588561D01*
X211650344Y-114661000D01*
X212021656Y-114661000D01*
X212385834Y-114588561D01*
X212728882Y-114446466D01*
X213037618Y-114240175D01*
X213300175Y-113977618D01*
X213506466Y-113668882D01*
X213648561Y-113325834D01*
X213721000Y-112961656D01*
X213721000Y-112590344D01*
X213648561Y-112226166D01*
X213506466Y-111883118D01*
X213300175Y-111574382D01*
X213037618Y-111311825D01*
X212728882Y-111105534D01*
X212385834Y-110963439D01*
X212021656Y-110891000D01*
X211650344Y-110891000D01*
X211286166Y-110963439D01*
X210943118Y-111105534D01*
X210634382Y-111311825D01*
X210371825Y-111574382D01*
X210165534Y-111883118D01*
X210023439Y-112226166D01*
X209951000Y-112590344D01*
X153269000Y-112590344D01*
X153196561Y-112226166D01*
X153054466Y-111883118D01*
X152848175Y-111574382D01*
X152585618Y-111311825D01*
X152276882Y-111105534D01*
X151933834Y-110963439D01*
X151569656Y-110891000D01*
X151198344Y-110891000D01*
X150834166Y-110963439D01*
X150491118Y-111105534D01*
X150182382Y-111311825D01*
X149919825Y-111574382D01*
X149713534Y-111883118D01*
X149571439Y-112226166D01*
X149499000Y-112590344D01*
X149250000Y-112590344D01*
X149250000Y-88912500D01*
X149991624Y-88912500D01*
X149995301Y-88949832D01*
X149995300Y-96394578D01*
X149991624Y-96431900D01*
X149995300Y-96469222D01*
X149995300Y-96469232D01*
X150006297Y-96580885D01*
X150047272Y-96715964D01*
X150049754Y-96724146D01*
X150120326Y-96856176D01*
X150128122Y-96865675D01*
X150215299Y-96971901D01*
X150244303Y-96995704D01*
X164461601Y-111213003D01*
X164485399Y-111242001D01*
X164514397Y-111265799D01*
X164529758Y-111278406D01*
X164585463Y-111361774D01*
X164729626Y-111505937D01*
X164899144Y-111619205D01*
X165087502Y-111697226D01*
X165287461Y-111737000D01*
X165491339Y-111737000D01*
X165691298Y-111697226D01*
X165879656Y-111619205D01*
X166049174Y-111505937D01*
X166093111Y-111462000D01*
X186161578Y-111462000D01*
X186198900Y-111465676D01*
X186236222Y-111462000D01*
X186236233Y-111462000D01*
X186347886Y-111451003D01*
X186491147Y-111407546D01*
X186623176Y-111336974D01*
X186738901Y-111242001D01*
X186762704Y-111212997D01*
X195367903Y-102607800D01*
X195430039Y-102607800D01*
X195629998Y-102568026D01*
X195818356Y-102490005D01*
X195987874Y-102376737D01*
X196132037Y-102232574D01*
X196245305Y-102063056D01*
X196323326Y-101874698D01*
X196363100Y-101674739D01*
X196363100Y-101607500D01*
X204043199Y-101607500D01*
X204533800Y-102098102D01*
X204533800Y-102160239D01*
X204573574Y-102360198D01*
X204651595Y-102548556D01*
X204764863Y-102718074D01*
X204909026Y-102862237D01*
X205078544Y-102975505D01*
X205266902Y-103053526D01*
X205466861Y-103093300D01*
X205670739Y-103093300D01*
X205870698Y-103053526D01*
X206059056Y-102975505D01*
X206228574Y-102862237D01*
X206372737Y-102718074D01*
X206486005Y-102548556D01*
X206564026Y-102360198D01*
X206603800Y-102160239D01*
X206603800Y-101956361D01*
X206564026Y-101756402D01*
X206486005Y-101568044D01*
X206372737Y-101398526D01*
X206228574Y-101254363D01*
X206059056Y-101141095D01*
X205870698Y-101063074D01*
X205670739Y-101023300D01*
X205608602Y-101023300D01*
X204921804Y-100336503D01*
X204898001Y-100307499D01*
X204820723Y-100244079D01*
X204828112Y-100236690D01*
X205036589Y-100375990D01*
X205306842Y-100487932D01*
X205593740Y-100545000D01*
X205886260Y-100545000D01*
X206173158Y-100487932D01*
X206443411Y-100375990D01*
X206686632Y-100213475D01*
X206893475Y-100006632D01*
X207015195Y-99824466D01*
X207084822Y-99941355D01*
X207279731Y-100157588D01*
X207513080Y-100331641D01*
X207775901Y-100456825D01*
X207923110Y-100501476D01*
X208153000Y-100380155D01*
X208153000Y-99187000D01*
X208407000Y-99187000D01*
X208407000Y-100380155D01*
X208636890Y-100501476D01*
X208784099Y-100456825D01*
X209046920Y-100331641D01*
X209280269Y-100157588D01*
X209475178Y-99941355D01*
X209550000Y-99815745D01*
X209624822Y-99941355D01*
X209819731Y-100157588D01*
X210053080Y-100331641D01*
X210315901Y-100456825D01*
X210463110Y-100501476D01*
X210693000Y-100380155D01*
X210693000Y-99187000D01*
X210947000Y-99187000D01*
X210947000Y-100380155D01*
X211176890Y-100501476D01*
X211324099Y-100456825D01*
X211586920Y-100331641D01*
X211820269Y-100157588D01*
X212015178Y-99941355D01*
X212164157Y-99691252D01*
X212261481Y-99416891D01*
X212140814Y-99187000D01*
X210947000Y-99187000D01*
X210693000Y-99187000D01*
X208407000Y-99187000D01*
X208153000Y-99187000D01*
X208133000Y-99187000D01*
X208133000Y-98933000D01*
X208153000Y-98933000D01*
X208153000Y-97739845D01*
X208407000Y-97739845D01*
X208407000Y-98933000D01*
X210693000Y-98933000D01*
X210693000Y-97739845D01*
X210947000Y-97739845D01*
X210947000Y-98933000D01*
X212140814Y-98933000D01*
X212261481Y-98703109D01*
X212164157Y-98428748D01*
X212015178Y-98178645D01*
X211820269Y-97962412D01*
X211586920Y-97788359D01*
X211324099Y-97663175D01*
X211176890Y-97618524D01*
X210947000Y-97739845D01*
X210693000Y-97739845D01*
X210463110Y-97618524D01*
X210315901Y-97663175D01*
X210053080Y-97788359D01*
X209819731Y-97962412D01*
X209624822Y-98178645D01*
X209550000Y-98304255D01*
X209475178Y-98178645D01*
X209280269Y-97962412D01*
X209046920Y-97788359D01*
X208784099Y-97663175D01*
X208636890Y-97618524D01*
X208407000Y-97739845D01*
X208153000Y-97739845D01*
X207923110Y-97618524D01*
X207775901Y-97663175D01*
X207513080Y-97788359D01*
X207279731Y-97962412D01*
X207084822Y-98178645D01*
X207015195Y-98295534D01*
X206893475Y-98113368D01*
X206686632Y-97906525D01*
X206443411Y-97744010D01*
X206173158Y-97632068D01*
X205886260Y-97575000D01*
X205593740Y-97575000D01*
X205306842Y-97632068D01*
X205036589Y-97744010D01*
X204793368Y-97906525D01*
X204586525Y-98113368D01*
X204470000Y-98287760D01*
X204353475Y-98113368D01*
X204146632Y-97906525D01*
X203953089Y-97777204D01*
X203949003Y-97735714D01*
X203905546Y-97592453D01*
X203876066Y-97537300D01*
X203834974Y-97460423D01*
X203763799Y-97373697D01*
X203740001Y-97344699D01*
X203711003Y-97320901D01*
X203128173Y-96738072D01*
X204050000Y-96738072D01*
X204174482Y-96725812D01*
X204294180Y-96689502D01*
X204404494Y-96630537D01*
X204501185Y-96551185D01*
X204580537Y-96454494D01*
X204639502Y-96344180D01*
X204661513Y-96271620D01*
X204793368Y-96403475D01*
X205036589Y-96565990D01*
X205306842Y-96677932D01*
X205593740Y-96735000D01*
X205886260Y-96735000D01*
X206173158Y-96677932D01*
X206443411Y-96565990D01*
X206686632Y-96403475D01*
X206893475Y-96196632D01*
X207015195Y-96014466D01*
X207084822Y-96131355D01*
X207279731Y-96347588D01*
X207513080Y-96521641D01*
X207775901Y-96646825D01*
X207923110Y-96691476D01*
X208153000Y-96570155D01*
X208153000Y-95377000D01*
X208407000Y-95377000D01*
X208407000Y-96570155D01*
X208636890Y-96691476D01*
X208784099Y-96646825D01*
X209046920Y-96521641D01*
X209280269Y-96347588D01*
X209475178Y-96131355D01*
X209550000Y-96005745D01*
X209624822Y-96131355D01*
X209819731Y-96347588D01*
X210053080Y-96521641D01*
X210315901Y-96646825D01*
X210463110Y-96691476D01*
X210693000Y-96570155D01*
X210693000Y-95377000D01*
X210947000Y-95377000D01*
X210947000Y-96570155D01*
X211176890Y-96691476D01*
X211324099Y-96646825D01*
X211586920Y-96521641D01*
X211820269Y-96347588D01*
X212015178Y-96131355D01*
X212164157Y-95881252D01*
X212261481Y-95606891D01*
X212140814Y-95377000D01*
X210947000Y-95377000D01*
X210693000Y-95377000D01*
X208407000Y-95377000D01*
X208153000Y-95377000D01*
X208133000Y-95377000D01*
X208133000Y-95123000D01*
X208153000Y-95123000D01*
X208153000Y-93929845D01*
X208407000Y-93929845D01*
X208407000Y-95123000D01*
X210693000Y-95123000D01*
X210693000Y-93929845D01*
X210947000Y-93929845D01*
X210947000Y-95123000D01*
X212140814Y-95123000D01*
X212261481Y-94893109D01*
X212164157Y-94618748D01*
X212015178Y-94368645D01*
X211820269Y-94152412D01*
X211586920Y-93978359D01*
X211324099Y-93853175D01*
X211176890Y-93808524D01*
X210947000Y-93929845D01*
X210693000Y-93929845D01*
X210463110Y-93808524D01*
X210315901Y-93853175D01*
X210053080Y-93978359D01*
X209819731Y-94152412D01*
X209624822Y-94368645D01*
X209550000Y-94494255D01*
X209475178Y-94368645D01*
X209280269Y-94152412D01*
X209046920Y-93978359D01*
X208784099Y-93853175D01*
X208636890Y-93808524D01*
X208407000Y-93929845D01*
X208153000Y-93929845D01*
X207923110Y-93808524D01*
X207775901Y-93853175D01*
X207513080Y-93978359D01*
X207279731Y-94152412D01*
X207084822Y-94368645D01*
X207015195Y-94485534D01*
X206893475Y-94303368D01*
X206739804Y-94149697D01*
X207571304Y-93318198D01*
X207600301Y-93294401D01*
X207695274Y-93178676D01*
X207765846Y-93046647D01*
X207809303Y-92903386D01*
X207820300Y-92791733D01*
X207820300Y-92791724D01*
X207823976Y-92754401D01*
X207820300Y-92717078D01*
X207820300Y-75041322D01*
X207823976Y-75003999D01*
X207820300Y-74966676D01*
X207820300Y-74966667D01*
X207809303Y-74855014D01*
X207765846Y-74711753D01*
X207695274Y-74579724D01*
X207600301Y-74463999D01*
X207571297Y-74440196D01*
X207373072Y-74241971D01*
X207373072Y-71311500D01*
X207360812Y-71187018D01*
X207324502Y-71067320D01*
X207265537Y-70957006D01*
X207186185Y-70860315D01*
X207089494Y-70780963D01*
X206979180Y-70721998D01*
X206859482Y-70685688D01*
X206735000Y-70673428D01*
X206579575Y-70673428D01*
X206519974Y-70561924D01*
X206425001Y-70446199D01*
X206309276Y-70351226D01*
X206177247Y-70280654D01*
X206033986Y-70237197D01*
X205922333Y-70226200D01*
X205885000Y-70222523D01*
X205847667Y-70226200D01*
X185602333Y-70226200D01*
X185565000Y-70222523D01*
X185527667Y-70226200D01*
X185416014Y-70237197D01*
X185272753Y-70280654D01*
X185140724Y-70351226D01*
X185024999Y-70446199D01*
X184930026Y-70561924D01*
X184870425Y-70673428D01*
X184715000Y-70673428D01*
X184590518Y-70685688D01*
X184470820Y-70721998D01*
X184360506Y-70780963D01*
X184263815Y-70860315D01*
X184257776Y-70867673D01*
X184229494Y-70844463D01*
X184119180Y-70785498D01*
X183999482Y-70749188D01*
X183875000Y-70736928D01*
X182175000Y-70736928D01*
X182050518Y-70749188D01*
X181930820Y-70785498D01*
X181820506Y-70844463D01*
X181770189Y-70885757D01*
X181768185Y-70883315D01*
X181671494Y-70803963D01*
X181561180Y-70744998D01*
X181441482Y-70708688D01*
X181317000Y-70696428D01*
X179617000Y-70696428D01*
X179492518Y-70708688D01*
X179372820Y-70744998D01*
X179262506Y-70803963D01*
X179197000Y-70857722D01*
X179131494Y-70803963D01*
X179021180Y-70744998D01*
X178901482Y-70708688D01*
X178777000Y-70696428D01*
X177077000Y-70696428D01*
X176952518Y-70708688D01*
X176832820Y-70744998D01*
X176722506Y-70803963D01*
X176657000Y-70857722D01*
X176591494Y-70803963D01*
X176481180Y-70744998D01*
X176361482Y-70708688D01*
X176237000Y-70696428D01*
X174537000Y-70696428D01*
X174412518Y-70708688D01*
X174292820Y-70744998D01*
X174182506Y-70803963D01*
X174117000Y-70857722D01*
X174051494Y-70803963D01*
X173941180Y-70744998D01*
X173821482Y-70708688D01*
X173697000Y-70696428D01*
X173132750Y-70699500D01*
X172974000Y-70858250D01*
X172974000Y-72707500D01*
X172994000Y-72707500D01*
X172994000Y-72961500D01*
X172974000Y-72961500D01*
X172974000Y-72981500D01*
X172720000Y-72981500D01*
X172720000Y-72961500D01*
X172700000Y-72961500D01*
X172700000Y-72707500D01*
X172720000Y-72707500D01*
X172720000Y-70858250D01*
X172561250Y-70699500D01*
X171997000Y-70696428D01*
X171872518Y-70708688D01*
X171752820Y-70744998D01*
X171642506Y-70803963D01*
X171577000Y-70857722D01*
X171511494Y-70803963D01*
X171401180Y-70744998D01*
X171281482Y-70708688D01*
X171157000Y-70696428D01*
X169457000Y-70696428D01*
X169332518Y-70708688D01*
X169212820Y-70744998D01*
X169102506Y-70803963D01*
X169037000Y-70857722D01*
X168971494Y-70803963D01*
X168861180Y-70744998D01*
X168741482Y-70708688D01*
X168617000Y-70696428D01*
X166917000Y-70696428D01*
X166792518Y-70708688D01*
X166672820Y-70744998D01*
X166562506Y-70803963D01*
X166497000Y-70857722D01*
X166431494Y-70803963D01*
X166321180Y-70744998D01*
X166201482Y-70708688D01*
X166077000Y-70696428D01*
X164377000Y-70696428D01*
X164252518Y-70708688D01*
X164132820Y-70744998D01*
X164022506Y-70803963D01*
X163988750Y-70831666D01*
X163954994Y-70803963D01*
X163844680Y-70744998D01*
X163724982Y-70708688D01*
X163600500Y-70696428D01*
X161900500Y-70696428D01*
X161776018Y-70708688D01*
X161656320Y-70744998D01*
X161546006Y-70803963D01*
X161449315Y-70883315D01*
X161448750Y-70884003D01*
X161448185Y-70883315D01*
X161351494Y-70803963D01*
X161241180Y-70744998D01*
X161121482Y-70708688D01*
X160997000Y-70696428D01*
X159297000Y-70696428D01*
X159172518Y-70708688D01*
X159052820Y-70744998D01*
X158942506Y-70803963D01*
X158877000Y-70857722D01*
X158811494Y-70803963D01*
X158701180Y-70744998D01*
X158581482Y-70708688D01*
X158457000Y-70696428D01*
X157892750Y-70699500D01*
X157734000Y-70858250D01*
X157734000Y-72707500D01*
X157754000Y-72707500D01*
X157754000Y-72961500D01*
X157734000Y-72961500D01*
X157734000Y-72981500D01*
X157480000Y-72981500D01*
X157480000Y-72961500D01*
X156280750Y-72961500D01*
X156122000Y-73120250D01*
X156118928Y-74334500D01*
X156131188Y-74458982D01*
X156167498Y-74578680D01*
X156226463Y-74688994D01*
X156293969Y-74771250D01*
X156226463Y-74853506D01*
X156167498Y-74963820D01*
X156131188Y-75083518D01*
X156118928Y-75208000D01*
X156118928Y-78208000D01*
X156131188Y-78332482D01*
X156167498Y-78452180D01*
X156226463Y-78562494D01*
X156305815Y-78659185D01*
X156402506Y-78738537D01*
X156512820Y-78797502D01*
X156632518Y-78833812D01*
X156757000Y-78846072D01*
X156912425Y-78846072D01*
X156972026Y-78957576D01*
X157066999Y-79073301D01*
X157182724Y-79168274D01*
X157314753Y-79238846D01*
X157458014Y-79282303D01*
X157529658Y-79289359D01*
X157679400Y-79439101D01*
X157679400Y-79501239D01*
X157719174Y-79701198D01*
X157797195Y-79889556D01*
X157910463Y-80059074D01*
X158054626Y-80203237D01*
X158224144Y-80316505D01*
X158261160Y-80331838D01*
X150244298Y-88348701D01*
X150215300Y-88372499D01*
X150191502Y-88401497D01*
X150191501Y-88401498D01*
X150120326Y-88488224D01*
X150049754Y-88620254D01*
X150006298Y-88763515D01*
X149991624Y-88912500D01*
X149250000Y-88912500D01*
X149250000Y-71334500D01*
X156118928Y-71334500D01*
X156122000Y-72548750D01*
X156280750Y-72707500D01*
X157480000Y-72707500D01*
X157480000Y-70858250D01*
X157321250Y-70699500D01*
X156757000Y-70696428D01*
X156632518Y-70708688D01*
X156512820Y-70744998D01*
X156402506Y-70803963D01*
X156305815Y-70883315D01*
X156226463Y-70980006D01*
X156167498Y-71090320D01*
X156131188Y-71210018D01*
X156118928Y-71334500D01*
X149250000Y-71334500D01*
X149250000Y-49562279D01*
X149264722Y-49412131D01*
X149298953Y-49298754D01*
X149354555Y-49194181D01*
X149429407Y-49102404D01*
X149520664Y-49026909D01*
X149624844Y-48970581D01*
X149737976Y-48935560D01*
X149886022Y-48920000D01*
X213327721Y-48920000D01*
X213477869Y-48934722D01*
%TA.AperFunction,Conductor*%
D19*
G36*
X213477869Y-48934722D02*
G01*
X213591246Y-48968953D01*
X213695819Y-49024555D01*
X213787596Y-49099407D01*
X213863091Y-49190664D01*
X213919419Y-49294844D01*
X213954440Y-49407976D01*
X213970000Y-49556022D01*
X213970001Y-114267711D01*
X213955278Y-114417869D01*
X213921047Y-114531246D01*
X213865446Y-114635817D01*
X213790594Y-114727595D01*
X213699335Y-114803091D01*
X213595160Y-114859419D01*
X213482024Y-114894440D01*
X213333979Y-114910000D01*
X149892279Y-114910000D01*
X149742131Y-114895278D01*
X149628754Y-114861047D01*
X149524183Y-114805446D01*
X149432405Y-114730594D01*
X149356909Y-114639335D01*
X149300581Y-114535160D01*
X149265560Y-114422024D01*
X149250000Y-114273979D01*
X149250000Y-112590344D01*
X149499000Y-112590344D01*
X149499000Y-112961656D01*
X149571439Y-113325834D01*
X149713534Y-113668882D01*
X149919825Y-113977618D01*
X150182382Y-114240175D01*
X150491118Y-114446466D01*
X150834166Y-114588561D01*
X151198344Y-114661000D01*
X151569656Y-114661000D01*
X151933834Y-114588561D01*
X152276882Y-114446466D01*
X152585618Y-114240175D01*
X152848175Y-113977618D01*
X153054466Y-113668882D01*
X153196561Y-113325834D01*
X153269000Y-112961656D01*
X153269000Y-112590344D01*
X209951000Y-112590344D01*
X209951000Y-112961656D01*
X210023439Y-113325834D01*
X210165534Y-113668882D01*
X210371825Y-113977618D01*
X210634382Y-114240175D01*
X210943118Y-114446466D01*
X211286166Y-114588561D01*
X211650344Y-114661000D01*
X212021656Y-114661000D01*
X212385834Y-114588561D01*
X212728882Y-114446466D01*
X213037618Y-114240175D01*
X213300175Y-113977618D01*
X213506466Y-113668882D01*
X213648561Y-113325834D01*
X213721000Y-112961656D01*
X213721000Y-112590344D01*
X213648561Y-112226166D01*
X213506466Y-111883118D01*
X213300175Y-111574382D01*
X213037618Y-111311825D01*
X212728882Y-111105534D01*
X212385834Y-110963439D01*
X212021656Y-110891000D01*
X211650344Y-110891000D01*
X211286166Y-110963439D01*
X210943118Y-111105534D01*
X210634382Y-111311825D01*
X210371825Y-111574382D01*
X210165534Y-111883118D01*
X210023439Y-112226166D01*
X209951000Y-112590344D01*
X153269000Y-112590344D01*
X153196561Y-112226166D01*
X153054466Y-111883118D01*
X152848175Y-111574382D01*
X152585618Y-111311825D01*
X152276882Y-111105534D01*
X151933834Y-110963439D01*
X151569656Y-110891000D01*
X151198344Y-110891000D01*
X150834166Y-110963439D01*
X150491118Y-111105534D01*
X150182382Y-111311825D01*
X149919825Y-111574382D01*
X149713534Y-111883118D01*
X149571439Y-112226166D01*
X149499000Y-112590344D01*
X149250000Y-112590344D01*
X149250000Y-88912500D01*
X149991624Y-88912500D01*
X149995301Y-88949832D01*
X149995300Y-96394578D01*
X149991624Y-96431900D01*
X149995300Y-96469222D01*
X149995300Y-96469232D01*
X150006297Y-96580885D01*
X150047272Y-96715964D01*
X150049754Y-96724146D01*
X150120326Y-96856176D01*
X150128122Y-96865675D01*
X150215299Y-96971901D01*
X150244303Y-96995704D01*
X164461601Y-111213003D01*
X164485399Y-111242001D01*
X164514397Y-111265799D01*
X164529758Y-111278406D01*
X164585463Y-111361774D01*
X164729626Y-111505937D01*
X164899144Y-111619205D01*
X165087502Y-111697226D01*
X165287461Y-111737000D01*
X165491339Y-111737000D01*
X165691298Y-111697226D01*
X165879656Y-111619205D01*
X166049174Y-111505937D01*
X166093111Y-111462000D01*
X186161578Y-111462000D01*
X186198900Y-111465676D01*
X186236222Y-111462000D01*
X186236233Y-111462000D01*
X186347886Y-111451003D01*
X186491147Y-111407546D01*
X186623176Y-111336974D01*
X186738901Y-111242001D01*
X186762704Y-111212997D01*
X195367903Y-102607800D01*
X195430039Y-102607800D01*
X195629998Y-102568026D01*
X195818356Y-102490005D01*
X195987874Y-102376737D01*
X196132037Y-102232574D01*
X196245305Y-102063056D01*
X196323326Y-101874698D01*
X196363100Y-101674739D01*
X196363100Y-101607500D01*
X204043199Y-101607500D01*
X204533800Y-102098102D01*
X204533800Y-102160239D01*
X204573574Y-102360198D01*
X204651595Y-102548556D01*
X204764863Y-102718074D01*
X204909026Y-102862237D01*
X205078544Y-102975505D01*
X205266902Y-103053526D01*
X205466861Y-103093300D01*
X205670739Y-103093300D01*
X205870698Y-103053526D01*
X206059056Y-102975505D01*
X206228574Y-102862237D01*
X206372737Y-102718074D01*
X206486005Y-102548556D01*
X206564026Y-102360198D01*
X206603800Y-102160239D01*
X206603800Y-101956361D01*
X206564026Y-101756402D01*
X206486005Y-101568044D01*
X206372737Y-101398526D01*
X206228574Y-101254363D01*
X206059056Y-101141095D01*
X205870698Y-101063074D01*
X205670739Y-101023300D01*
X205608602Y-101023300D01*
X204921804Y-100336503D01*
X204898001Y-100307499D01*
X204820723Y-100244079D01*
X204828112Y-100236690D01*
X205036589Y-100375990D01*
X205306842Y-100487932D01*
X205593740Y-100545000D01*
X205886260Y-100545000D01*
X206173158Y-100487932D01*
X206443411Y-100375990D01*
X206686632Y-100213475D01*
X206893475Y-100006632D01*
X207015195Y-99824466D01*
X207084822Y-99941355D01*
X207279731Y-100157588D01*
X207513080Y-100331641D01*
X207775901Y-100456825D01*
X207923110Y-100501476D01*
X208153000Y-100380155D01*
X208153000Y-99187000D01*
X208407000Y-99187000D01*
X208407000Y-100380155D01*
X208636890Y-100501476D01*
X208784099Y-100456825D01*
X209046920Y-100331641D01*
X209280269Y-100157588D01*
X209475178Y-99941355D01*
X209550000Y-99815745D01*
X209624822Y-99941355D01*
X209819731Y-100157588D01*
X210053080Y-100331641D01*
X210315901Y-100456825D01*
X210463110Y-100501476D01*
X210693000Y-100380155D01*
X210693000Y-99187000D01*
X210947000Y-99187000D01*
X210947000Y-100380155D01*
X211176890Y-100501476D01*
X211324099Y-100456825D01*
X211586920Y-100331641D01*
X211820269Y-100157588D01*
X212015178Y-99941355D01*
X212164157Y-99691252D01*
X212261481Y-99416891D01*
X212140814Y-99187000D01*
X210947000Y-99187000D01*
X210693000Y-99187000D01*
X208407000Y-99187000D01*
X208153000Y-99187000D01*
X208133000Y-99187000D01*
X208133000Y-98933000D01*
X208153000Y-98933000D01*
X208153000Y-97739845D01*
X208407000Y-97739845D01*
X208407000Y-98933000D01*
X210693000Y-98933000D01*
X210693000Y-97739845D01*
X210947000Y-97739845D01*
X210947000Y-98933000D01*
X212140814Y-98933000D01*
X212261481Y-98703109D01*
X212164157Y-98428748D01*
X212015178Y-98178645D01*
X211820269Y-97962412D01*
X211586920Y-97788359D01*
X211324099Y-97663175D01*
X211176890Y-97618524D01*
X210947000Y-97739845D01*
X210693000Y-97739845D01*
X210463110Y-97618524D01*
X210315901Y-97663175D01*
X210053080Y-97788359D01*
X209819731Y-97962412D01*
X209624822Y-98178645D01*
X209550000Y-98304255D01*
X209475178Y-98178645D01*
X209280269Y-97962412D01*
X209046920Y-97788359D01*
X208784099Y-97663175D01*
X208636890Y-97618524D01*
X208407000Y-97739845D01*
X208153000Y-97739845D01*
X207923110Y-97618524D01*
X207775901Y-97663175D01*
X207513080Y-97788359D01*
X207279731Y-97962412D01*
X207084822Y-98178645D01*
X207015195Y-98295534D01*
X206893475Y-98113368D01*
X206686632Y-97906525D01*
X206443411Y-97744010D01*
X206173158Y-97632068D01*
X205886260Y-97575000D01*
X205593740Y-97575000D01*
X205306842Y-97632068D01*
X205036589Y-97744010D01*
X204793368Y-97906525D01*
X204586525Y-98113368D01*
X204470000Y-98287760D01*
X204353475Y-98113368D01*
X204146632Y-97906525D01*
X203953089Y-97777204D01*
X203949003Y-97735714D01*
X203905546Y-97592453D01*
X203876066Y-97537300D01*
X203834974Y-97460423D01*
X203763799Y-97373697D01*
X203740001Y-97344699D01*
X203711003Y-97320901D01*
X203128173Y-96738072D01*
X204050000Y-96738072D01*
X204174482Y-96725812D01*
X204294180Y-96689502D01*
X204404494Y-96630537D01*
X204501185Y-96551185D01*
X204580537Y-96454494D01*
X204639502Y-96344180D01*
X204661513Y-96271620D01*
X204793368Y-96403475D01*
X205036589Y-96565990D01*
X205306842Y-96677932D01*
X205593740Y-96735000D01*
X205886260Y-96735000D01*
X206173158Y-96677932D01*
X206443411Y-96565990D01*
X206686632Y-96403475D01*
X206893475Y-96196632D01*
X207015195Y-96014466D01*
X207084822Y-96131355D01*
X207279731Y-96347588D01*
X207513080Y-96521641D01*
X207775901Y-96646825D01*
X207923110Y-96691476D01*
X208153000Y-96570155D01*
X208153000Y-95377000D01*
X208407000Y-95377000D01*
X208407000Y-96570155D01*
X208636890Y-96691476D01*
X208784099Y-96646825D01*
X209046920Y-96521641D01*
X209280269Y-96347588D01*
X209475178Y-96131355D01*
X209550000Y-96005745D01*
X209624822Y-96131355D01*
X209819731Y-96347588D01*
X210053080Y-96521641D01*
X210315901Y-96646825D01*
X210463110Y-96691476D01*
X210693000Y-96570155D01*
X210693000Y-95377000D01*
X210947000Y-95377000D01*
X210947000Y-96570155D01*
X211176890Y-96691476D01*
X211324099Y-96646825D01*
X211586920Y-96521641D01*
X211820269Y-96347588D01*
X212015178Y-96131355D01*
X212164157Y-95881252D01*
X212261481Y-95606891D01*
X212140814Y-95377000D01*
X210947000Y-95377000D01*
X210693000Y-95377000D01*
X208407000Y-95377000D01*
X208153000Y-95377000D01*
X208133000Y-95377000D01*
X208133000Y-95123000D01*
X208153000Y-95123000D01*
X208153000Y-93929845D01*
X208407000Y-93929845D01*
X208407000Y-95123000D01*
X210693000Y-95123000D01*
X210693000Y-93929845D01*
X210947000Y-93929845D01*
X210947000Y-95123000D01*
X212140814Y-95123000D01*
X212261481Y-94893109D01*
X212164157Y-94618748D01*
X212015178Y-94368645D01*
X211820269Y-94152412D01*
X211586920Y-93978359D01*
X211324099Y-93853175D01*
X211176890Y-93808524D01*
X210947000Y-93929845D01*
X210693000Y-93929845D01*
X210463110Y-93808524D01*
X210315901Y-93853175D01*
X210053080Y-93978359D01*
X209819731Y-94152412D01*
X209624822Y-94368645D01*
X209550000Y-94494255D01*
X209475178Y-94368645D01*
X209280269Y-94152412D01*
X209046920Y-93978359D01*
X208784099Y-93853175D01*
X208636890Y-93808524D01*
X208407000Y-93929845D01*
X208153000Y-93929845D01*
X207923110Y-93808524D01*
X207775901Y-93853175D01*
X207513080Y-93978359D01*
X207279731Y-94152412D01*
X207084822Y-94368645D01*
X207015195Y-94485534D01*
X206893475Y-94303368D01*
X206739804Y-94149697D01*
X207571304Y-93318198D01*
X207600301Y-93294401D01*
X207695274Y-93178676D01*
X207765846Y-93046647D01*
X207809303Y-92903386D01*
X207820300Y-92791733D01*
X207820300Y-92791724D01*
X207823976Y-92754401D01*
X207820300Y-92717078D01*
X207820300Y-75041322D01*
X207823976Y-75003999D01*
X207820300Y-74966676D01*
X207820300Y-74966667D01*
X207809303Y-74855014D01*
X207765846Y-74711753D01*
X207695274Y-74579724D01*
X207600301Y-74463999D01*
X207571297Y-74440196D01*
X207373072Y-74241971D01*
X207373072Y-71311500D01*
X207360812Y-71187018D01*
X207324502Y-71067320D01*
X207265537Y-70957006D01*
X207186185Y-70860315D01*
X207089494Y-70780963D01*
X206979180Y-70721998D01*
X206859482Y-70685688D01*
X206735000Y-70673428D01*
X206579575Y-70673428D01*
X206519974Y-70561924D01*
X206425001Y-70446199D01*
X206309276Y-70351226D01*
X206177247Y-70280654D01*
X206033986Y-70237197D01*
X205922333Y-70226200D01*
X205885000Y-70222523D01*
X205847667Y-70226200D01*
X185602333Y-70226200D01*
X185565000Y-70222523D01*
X185527667Y-70226200D01*
X185416014Y-70237197D01*
X185272753Y-70280654D01*
X185140724Y-70351226D01*
X185024999Y-70446199D01*
X184930026Y-70561924D01*
X184870425Y-70673428D01*
X184715000Y-70673428D01*
X184590518Y-70685688D01*
X184470820Y-70721998D01*
X184360506Y-70780963D01*
X184263815Y-70860315D01*
X184257776Y-70867673D01*
X184229494Y-70844463D01*
X184119180Y-70785498D01*
X183999482Y-70749188D01*
X183875000Y-70736928D01*
X182175000Y-70736928D01*
X182050518Y-70749188D01*
X181930820Y-70785498D01*
X181820506Y-70844463D01*
X181770189Y-70885757D01*
X181768185Y-70883315D01*
X181671494Y-70803963D01*
X181561180Y-70744998D01*
X181441482Y-70708688D01*
X181317000Y-70696428D01*
X179617000Y-70696428D01*
X179492518Y-70708688D01*
X179372820Y-70744998D01*
X179262506Y-70803963D01*
X179197000Y-70857722D01*
X179131494Y-70803963D01*
X179021180Y-70744998D01*
X178901482Y-70708688D01*
X178777000Y-70696428D01*
X177077000Y-70696428D01*
X176952518Y-70708688D01*
X176832820Y-70744998D01*
X176722506Y-70803963D01*
X176657000Y-70857722D01*
X176591494Y-70803963D01*
X176481180Y-70744998D01*
X176361482Y-70708688D01*
X176237000Y-70696428D01*
X174537000Y-70696428D01*
X174412518Y-70708688D01*
X174292820Y-70744998D01*
X174182506Y-70803963D01*
X174117000Y-70857722D01*
X174051494Y-70803963D01*
X173941180Y-70744998D01*
X173821482Y-70708688D01*
X173697000Y-70696428D01*
X173132750Y-70699500D01*
X172974000Y-70858250D01*
X172974000Y-72707500D01*
X172994000Y-72707500D01*
X172994000Y-72961500D01*
X172974000Y-72961500D01*
X172974000Y-72981500D01*
X172720000Y-72981500D01*
X172720000Y-72961500D01*
X172700000Y-72961500D01*
X172700000Y-72707500D01*
X172720000Y-72707500D01*
X172720000Y-70858250D01*
X172561250Y-70699500D01*
X171997000Y-70696428D01*
X171872518Y-70708688D01*
X171752820Y-70744998D01*
X171642506Y-70803963D01*
X171577000Y-70857722D01*
X171511494Y-70803963D01*
X171401180Y-70744998D01*
X171281482Y-70708688D01*
X171157000Y-70696428D01*
X169457000Y-70696428D01*
X169332518Y-70708688D01*
X169212820Y-70744998D01*
X169102506Y-70803963D01*
X169037000Y-70857722D01*
X168971494Y-70803963D01*
X168861180Y-70744998D01*
X168741482Y-70708688D01*
X168617000Y-70696428D01*
X166917000Y-70696428D01*
X166792518Y-70708688D01*
X166672820Y-70744998D01*
X166562506Y-70803963D01*
X166497000Y-70857722D01*
X166431494Y-70803963D01*
X166321180Y-70744998D01*
X166201482Y-70708688D01*
X166077000Y-70696428D01*
X164377000Y-70696428D01*
X164252518Y-70708688D01*
X164132820Y-70744998D01*
X164022506Y-70803963D01*
X163988750Y-70831666D01*
X163954994Y-70803963D01*
X163844680Y-70744998D01*
X163724982Y-70708688D01*
X163600500Y-70696428D01*
X161900500Y-70696428D01*
X161776018Y-70708688D01*
X161656320Y-70744998D01*
X161546006Y-70803963D01*
X161449315Y-70883315D01*
X161448750Y-70884003D01*
X161448185Y-70883315D01*
X161351494Y-70803963D01*
X161241180Y-70744998D01*
X161121482Y-70708688D01*
X160997000Y-70696428D01*
X159297000Y-70696428D01*
X159172518Y-70708688D01*
X159052820Y-70744998D01*
X158942506Y-70803963D01*
X158877000Y-70857722D01*
X158811494Y-70803963D01*
X158701180Y-70744998D01*
X158581482Y-70708688D01*
X158457000Y-70696428D01*
X157892750Y-70699500D01*
X157734000Y-70858250D01*
X157734000Y-72707500D01*
X157754000Y-72707500D01*
X157754000Y-72961500D01*
X157734000Y-72961500D01*
X157734000Y-72981500D01*
X157480000Y-72981500D01*
X157480000Y-72961500D01*
X156280750Y-72961500D01*
X156122000Y-73120250D01*
X156118928Y-74334500D01*
X156131188Y-74458982D01*
X156167498Y-74578680D01*
X156226463Y-74688994D01*
X156293969Y-74771250D01*
X156226463Y-74853506D01*
X156167498Y-74963820D01*
X156131188Y-75083518D01*
X156118928Y-75208000D01*
X156118928Y-78208000D01*
X156131188Y-78332482D01*
X156167498Y-78452180D01*
X156226463Y-78562494D01*
X156305815Y-78659185D01*
X156402506Y-78738537D01*
X156512820Y-78797502D01*
X156632518Y-78833812D01*
X156757000Y-78846072D01*
X156912425Y-78846072D01*
X156972026Y-78957576D01*
X157066999Y-79073301D01*
X157182724Y-79168274D01*
X157314753Y-79238846D01*
X157458014Y-79282303D01*
X157529658Y-79289359D01*
X157679400Y-79439101D01*
X157679400Y-79501239D01*
X157719174Y-79701198D01*
X157797195Y-79889556D01*
X157910463Y-80059074D01*
X158054626Y-80203237D01*
X158224144Y-80316505D01*
X158261160Y-80331838D01*
X150244298Y-88348701D01*
X150215300Y-88372499D01*
X150191502Y-88401497D01*
X150191501Y-88401498D01*
X150120326Y-88488224D01*
X150049754Y-88620254D01*
X150006298Y-88763515D01*
X149991624Y-88912500D01*
X149250000Y-88912500D01*
X149250000Y-71334500D01*
X156118928Y-71334500D01*
X156122000Y-72548750D01*
X156280750Y-72707500D01*
X157480000Y-72707500D01*
X157480000Y-70858250D01*
X157321250Y-70699500D01*
X156757000Y-70696428D01*
X156632518Y-70708688D01*
X156512820Y-70744998D01*
X156402506Y-70803963D01*
X156305815Y-70883315D01*
X156226463Y-70980006D01*
X156167498Y-71090320D01*
X156131188Y-71210018D01*
X156118928Y-71334500D01*
X149250000Y-71334500D01*
X149250000Y-49562279D01*
X149264722Y-49412131D01*
X149298953Y-49298754D01*
X149354555Y-49194181D01*
X149429407Y-49102404D01*
X149520664Y-49026909D01*
X149624844Y-48970581D01*
X149737976Y-48935560D01*
X149886022Y-48920000D01*
X213327721Y-48920000D01*
X213477869Y-48934722D01*
G37*
%TD.AperFunction*%
D18*
X153993368Y-96403475D02*
X154236589Y-96565990D01*
X154506842Y-96677932D01*
X154793740Y-96735000D01*
X155086260Y-96735000D01*
X155373158Y-96677932D01*
X155643411Y-96565990D01*
X155845475Y-96430976D01*
X160186201Y-100771703D01*
X160209999Y-100800701D01*
X160325724Y-100895674D01*
X160457753Y-100966246D01*
X160601014Y-101009703D01*
X160712667Y-101020700D01*
X160712676Y-101020700D01*
X160749999Y-101024376D01*
X160787322Y-101020700D01*
X180131958Y-101020700D01*
X180129300Y-101034061D01*
X180129300Y-101237939D01*
X180169074Y-101437898D01*
X180247095Y-101626256D01*
X180360363Y-101795774D01*
X180504526Y-101939937D01*
X180674044Y-102053205D01*
X180862402Y-102131226D01*
X181062361Y-102171000D01*
X181266239Y-102171000D01*
X181466198Y-102131226D01*
X181654556Y-102053205D01*
X181824074Y-101939937D01*
X181968237Y-101795774D01*
X182081505Y-101626256D01*
X182089274Y-101607500D01*
X194218597Y-101607500D01*
X185884099Y-109942000D01*
X166093111Y-109942000D01*
X166049174Y-109898063D01*
X165879656Y-109784795D01*
X165691298Y-109706774D01*
X165491339Y-109667000D01*
X165287461Y-109667000D01*
X165102077Y-109703875D01*
X152136273Y-96738072D01*
X153250000Y-96738072D01*
X153374482Y-96725812D01*
X153494180Y-96689502D01*
X153604494Y-96630537D01*
X153701185Y-96551185D01*
X153780537Y-96454494D01*
X153839502Y-96344180D01*
X153861513Y-96271620D01*
X153993368Y-96403475D01*
%TA.AperFunction,Conductor*%
D19*
G36*
X153993368Y-96403475D02*
G01*
X154236589Y-96565990D01*
X154506842Y-96677932D01*
X154793740Y-96735000D01*
X155086260Y-96735000D01*
X155373158Y-96677932D01*
X155643411Y-96565990D01*
X155845475Y-96430976D01*
X160186201Y-100771703D01*
X160209999Y-100800701D01*
X160325724Y-100895674D01*
X160457753Y-100966246D01*
X160601014Y-101009703D01*
X160712667Y-101020700D01*
X160712676Y-101020700D01*
X160749999Y-101024376D01*
X160787322Y-101020700D01*
X180131958Y-101020700D01*
X180129300Y-101034061D01*
X180129300Y-101237939D01*
X180169074Y-101437898D01*
X180247095Y-101626256D01*
X180360363Y-101795774D01*
X180504526Y-101939937D01*
X180674044Y-102053205D01*
X180862402Y-102131226D01*
X181062361Y-102171000D01*
X181266239Y-102171000D01*
X181466198Y-102131226D01*
X181654556Y-102053205D01*
X181824074Y-101939937D01*
X181968237Y-101795774D01*
X182081505Y-101626256D01*
X182089274Y-101607500D01*
X194218597Y-101607500D01*
X185884099Y-109942000D01*
X166093111Y-109942000D01*
X166049174Y-109898063D01*
X165879656Y-109784795D01*
X165691298Y-109706774D01*
X165491339Y-109667000D01*
X165287461Y-109667000D01*
X165102077Y-109703875D01*
X152136273Y-96738072D01*
X153250000Y-96738072D01*
X153374482Y-96725812D01*
X153494180Y-96689502D01*
X153604494Y-96630537D01*
X153701185Y-96551185D01*
X153780537Y-96454494D01*
X153839502Y-96344180D01*
X153861513Y-96271620D01*
X153993368Y-96403475D01*
G37*
%TD.AperFunction*%
D18*
X174686000Y-96323804D02*
X174689058Y-96354849D01*
X174689037Y-96357805D01*
X174690038Y-96368018D01*
X174695072Y-96415916D01*
X174696635Y-96431784D01*
X174696796Y-96432313D01*
X174700238Y-96465067D01*
X174713638Y-96530344D01*
X174726116Y-96595759D01*
X174729082Y-96605584D01*
X174757938Y-96698803D01*
X174783780Y-96760278D01*
X174808711Y-96821984D01*
X174813528Y-96831045D01*
X174859941Y-96916883D01*
X174897196Y-96972115D01*
X174933669Y-97027851D01*
X174940155Y-97035804D01*
X175002357Y-97110993D01*
X175049641Y-97157948D01*
X175096230Y-97205524D01*
X175104137Y-97212065D01*
X175104142Y-97212070D01*
X175104148Y-97212074D01*
X175179758Y-97273741D01*
X175235256Y-97310614D01*
X175290219Y-97348248D01*
X175299246Y-97353129D01*
X175385407Y-97398941D01*
X175441102Y-97421897D01*
X175350999Y-97512000D01*
X171695211Y-97512000D01*
X171651274Y-97468063D01*
X171481756Y-97354795D01*
X171293398Y-97276774D01*
X171093439Y-97237000D01*
X170889561Y-97237000D01*
X170689602Y-97276774D01*
X170501244Y-97354795D01*
X170331726Y-97468063D01*
X170187563Y-97612226D01*
X170074295Y-97781744D01*
X170018712Y-97915931D01*
X170016437Y-97912526D01*
X169872274Y-97768363D01*
X169702756Y-97655095D01*
X169514398Y-97577074D01*
X169314439Y-97537300D01*
X169110561Y-97537300D01*
X168910602Y-97577074D01*
X168722244Y-97655095D01*
X168552726Y-97768363D01*
X168408563Y-97912526D01*
X168295295Y-98082044D01*
X168217274Y-98270402D01*
X168177500Y-98470361D01*
X168177500Y-98674239D01*
X168217274Y-98874198D01*
X168295295Y-99062556D01*
X168408563Y-99232074D01*
X168552726Y-99376237D01*
X168722244Y-99489505D01*
X168749271Y-99500700D01*
X161064802Y-99500700D01*
X158145708Y-96581607D01*
X158183411Y-96565990D01*
X158390689Y-96427491D01*
X158915605Y-96952408D01*
X158939399Y-96981401D01*
X158968392Y-97005195D01*
X158968396Y-97005199D01*
X159034141Y-97059154D01*
X159055124Y-97076374D01*
X159187153Y-97146946D01*
X159330414Y-97190403D01*
X159442067Y-97201400D01*
X159442076Y-97201400D01*
X159479399Y-97205076D01*
X159516722Y-97201400D01*
X172865478Y-97201400D01*
X172902800Y-97205076D01*
X172940122Y-97201400D01*
X172940133Y-97201400D01*
X173051786Y-97190403D01*
X173195047Y-97146946D01*
X173327076Y-97076374D01*
X173442801Y-96981401D01*
X173466604Y-96952397D01*
X174686000Y-95733001D01*
X174686000Y-96323804D01*
%TA.AperFunction,Conductor*%
D19*
G36*
X174686000Y-96323804D02*
G01*
X174689058Y-96354849D01*
X174689037Y-96357805D01*
X174690038Y-96368018D01*
X174695072Y-96415916D01*
X174696635Y-96431784D01*
X174696796Y-96432313D01*
X174700238Y-96465067D01*
X174713638Y-96530344D01*
X174726116Y-96595759D01*
X174729082Y-96605584D01*
X174757938Y-96698803D01*
X174783780Y-96760278D01*
X174808711Y-96821984D01*
X174813528Y-96831045D01*
X174859941Y-96916883D01*
X174897196Y-96972115D01*
X174933669Y-97027851D01*
X174940155Y-97035804D01*
X175002357Y-97110993D01*
X175049641Y-97157948D01*
X175096230Y-97205524D01*
X175104137Y-97212065D01*
X175104142Y-97212070D01*
X175104148Y-97212074D01*
X175179758Y-97273741D01*
X175235256Y-97310614D01*
X175290219Y-97348248D01*
X175299246Y-97353129D01*
X175385407Y-97398941D01*
X175441102Y-97421897D01*
X175350999Y-97512000D01*
X171695211Y-97512000D01*
X171651274Y-97468063D01*
X171481756Y-97354795D01*
X171293398Y-97276774D01*
X171093439Y-97237000D01*
X170889561Y-97237000D01*
X170689602Y-97276774D01*
X170501244Y-97354795D01*
X170331726Y-97468063D01*
X170187563Y-97612226D01*
X170074295Y-97781744D01*
X170018712Y-97915931D01*
X170016437Y-97912526D01*
X169872274Y-97768363D01*
X169702756Y-97655095D01*
X169514398Y-97577074D01*
X169314439Y-97537300D01*
X169110561Y-97537300D01*
X168910602Y-97577074D01*
X168722244Y-97655095D01*
X168552726Y-97768363D01*
X168408563Y-97912526D01*
X168295295Y-98082044D01*
X168217274Y-98270402D01*
X168177500Y-98470361D01*
X168177500Y-98674239D01*
X168217274Y-98874198D01*
X168295295Y-99062556D01*
X168408563Y-99232074D01*
X168552726Y-99376237D01*
X168722244Y-99489505D01*
X168749271Y-99500700D01*
X161064802Y-99500700D01*
X158145708Y-96581607D01*
X158183411Y-96565990D01*
X158390689Y-96427491D01*
X158915605Y-96952408D01*
X158939399Y-96981401D01*
X158968392Y-97005195D01*
X158968396Y-97005199D01*
X159034141Y-97059154D01*
X159055124Y-97076374D01*
X159187153Y-97146946D01*
X159330414Y-97190403D01*
X159442067Y-97201400D01*
X159442076Y-97201400D01*
X159479399Y-97205076D01*
X159516722Y-97201400D01*
X172865478Y-97201400D01*
X172902800Y-97205076D01*
X172940122Y-97201400D01*
X172940133Y-97201400D01*
X173051786Y-97190403D01*
X173195047Y-97146946D01*
X173327076Y-97076374D01*
X173442801Y-96981401D01*
X173466604Y-96952397D01*
X174686000Y-95733001D01*
X174686000Y-96323804D01*
G37*
%TD.AperFunction*%
D18*
X173142499Y-94490000D02*
X166859713Y-94490000D01*
X166882500Y-94375439D01*
X166882500Y-94313301D01*
X170772602Y-90423200D01*
X177209298Y-90423200D01*
X173142499Y-94490000D01*
%TA.AperFunction,Conductor*%
D19*
G36*
X173142499Y-94490000D02*
G01*
X166859713Y-94490000D01*
X166882500Y-94375439D01*
X166882500Y-94313301D01*
X170772602Y-90423200D01*
X177209298Y-90423200D01*
X173142499Y-94490000D01*
G37*
%TD.AperFunction*%
D18*
X173768377Y-83974123D02*
X173901058Y-84083012D01*
X174052433Y-84163923D01*
X174216684Y-84213748D01*
X174387500Y-84230572D01*
X174862500Y-84230572D01*
X175033316Y-84213748D01*
X175197567Y-84163923D01*
X175348942Y-84083012D01*
X175481623Y-83974123D01*
X175571178Y-83865000D01*
X177947999Y-83865000D01*
X178964626Y-84881627D01*
X178912482Y-84898384D01*
X178803150Y-84959150D01*
X178707774Y-85040078D01*
X178630018Y-85138058D01*
X178572872Y-85249325D01*
X178538530Y-85369602D01*
X178528314Y-85494268D01*
X178531300Y-85848050D01*
X178690048Y-86006798D01*
X178531300Y-86006798D01*
X178531300Y-86128910D01*
X178430682Y-86098388D01*
X178306200Y-86086128D01*
X175606200Y-86086128D01*
X175481718Y-86098388D01*
X175362020Y-86134698D01*
X175251706Y-86193663D01*
X175155015Y-86273015D01*
X175075663Y-86369706D01*
X175016698Y-86480020D01*
X174980388Y-86599718D01*
X174968128Y-86724200D01*
X174968128Y-88024200D01*
X174980388Y-88148682D01*
X175016698Y-88268380D01*
X175075663Y-88378694D01*
X175155015Y-88475385D01*
X175251706Y-88554737D01*
X175362020Y-88613702D01*
X175481718Y-88650012D01*
X175606200Y-88662272D01*
X176315828Y-88662272D01*
X176315828Y-88903200D01*
X170495125Y-88903200D01*
X170457800Y-88899524D01*
X170420475Y-88903200D01*
X170420467Y-88903200D01*
X170308814Y-88914197D01*
X170165553Y-88957654D01*
X170033524Y-89028226D01*
X169917799Y-89123199D01*
X169894001Y-89152197D01*
X165807699Y-93238500D01*
X165745561Y-93238500D01*
X165545602Y-93278274D01*
X165357244Y-93356295D01*
X165187726Y-93469563D01*
X165043563Y-93613726D01*
X164930295Y-93783244D01*
X164852274Y-93971602D01*
X164812500Y-94171561D01*
X164812500Y-94375439D01*
X164835287Y-94490000D01*
X161298178Y-94490000D01*
X161173475Y-94303368D01*
X160966632Y-94096525D01*
X160723411Y-93934010D01*
X160453158Y-93822068D01*
X160166260Y-93765000D01*
X159873740Y-93765000D01*
X159586842Y-93822068D01*
X159316589Y-93934010D01*
X159073368Y-94096525D01*
X158866525Y-94303368D01*
X158750000Y-94477760D01*
X158633475Y-94303368D01*
X158426632Y-94096525D01*
X158183411Y-93934010D01*
X158170669Y-93928732D01*
X159962102Y-92137300D01*
X163837789Y-92137300D01*
X163881726Y-92181237D01*
X164051244Y-92294505D01*
X164239602Y-92372526D01*
X164439561Y-92412300D01*
X164643439Y-92412300D01*
X164843398Y-92372526D01*
X165031756Y-92294505D01*
X165201274Y-92181237D01*
X165345437Y-92037074D01*
X165458705Y-91867556D01*
X165536726Y-91679198D01*
X165576500Y-91479239D01*
X165576500Y-91417101D01*
X171961008Y-85032595D01*
X171990001Y-85008801D01*
X172013795Y-84979808D01*
X172013799Y-84979804D01*
X172084973Y-84893077D01*
X172095222Y-84873903D01*
X172155546Y-84761047D01*
X172199003Y-84617786D01*
X172210000Y-84506133D01*
X172210000Y-84506124D01*
X172213676Y-84468801D01*
X172210000Y-84431478D01*
X172210000Y-84053420D01*
X172306623Y-83974123D01*
X172396178Y-83865000D01*
X173678822Y-83865000D01*
X173768377Y-83974123D01*
%TA.AperFunction,Conductor*%
D19*
G36*
X173768377Y-83974123D02*
G01*
X173901058Y-84083012D01*
X174052433Y-84163923D01*
X174216684Y-84213748D01*
X174387500Y-84230572D01*
X174862500Y-84230572D01*
X175033316Y-84213748D01*
X175197567Y-84163923D01*
X175348942Y-84083012D01*
X175481623Y-83974123D01*
X175571178Y-83865000D01*
X177947999Y-83865000D01*
X178964626Y-84881627D01*
X178912482Y-84898384D01*
X178803150Y-84959150D01*
X178707774Y-85040078D01*
X178630018Y-85138058D01*
X178572872Y-85249325D01*
X178538530Y-85369602D01*
X178528314Y-85494268D01*
X178531300Y-85848050D01*
X178690048Y-86006798D01*
X178531300Y-86006798D01*
X178531300Y-86128910D01*
X178430682Y-86098388D01*
X178306200Y-86086128D01*
X175606200Y-86086128D01*
X175481718Y-86098388D01*
X175362020Y-86134698D01*
X175251706Y-86193663D01*
X175155015Y-86273015D01*
X175075663Y-86369706D01*
X175016698Y-86480020D01*
X174980388Y-86599718D01*
X174968128Y-86724200D01*
X174968128Y-88024200D01*
X174980388Y-88148682D01*
X175016698Y-88268380D01*
X175075663Y-88378694D01*
X175155015Y-88475385D01*
X175251706Y-88554737D01*
X175362020Y-88613702D01*
X175481718Y-88650012D01*
X175606200Y-88662272D01*
X176315828Y-88662272D01*
X176315828Y-88903200D01*
X170495125Y-88903200D01*
X170457800Y-88899524D01*
X170420475Y-88903200D01*
X170420467Y-88903200D01*
X170308814Y-88914197D01*
X170165553Y-88957654D01*
X170033524Y-89028226D01*
X169917799Y-89123199D01*
X169894001Y-89152197D01*
X165807699Y-93238500D01*
X165745561Y-93238500D01*
X165545602Y-93278274D01*
X165357244Y-93356295D01*
X165187726Y-93469563D01*
X165043563Y-93613726D01*
X164930295Y-93783244D01*
X164852274Y-93971602D01*
X164812500Y-94171561D01*
X164812500Y-94375439D01*
X164835287Y-94490000D01*
X161298178Y-94490000D01*
X161173475Y-94303368D01*
X160966632Y-94096525D01*
X160723411Y-93934010D01*
X160453158Y-93822068D01*
X160166260Y-93765000D01*
X159873740Y-93765000D01*
X159586842Y-93822068D01*
X159316589Y-93934010D01*
X159073368Y-94096525D01*
X158866525Y-94303368D01*
X158750000Y-94477760D01*
X158633475Y-94303368D01*
X158426632Y-94096525D01*
X158183411Y-93934010D01*
X158170669Y-93928732D01*
X159962102Y-92137300D01*
X163837789Y-92137300D01*
X163881726Y-92181237D01*
X164051244Y-92294505D01*
X164239602Y-92372526D01*
X164439561Y-92412300D01*
X164643439Y-92412300D01*
X164843398Y-92372526D01*
X165031756Y-92294505D01*
X165201274Y-92181237D01*
X165345437Y-92037074D01*
X165458705Y-91867556D01*
X165536726Y-91679198D01*
X165576500Y-91479239D01*
X165576500Y-91417101D01*
X171961008Y-85032595D01*
X171990001Y-85008801D01*
X172013795Y-84979808D01*
X172013799Y-84979804D01*
X172084973Y-84893077D01*
X172095222Y-84873903D01*
X172155546Y-84761047D01*
X172199003Y-84617786D01*
X172210000Y-84506133D01*
X172210000Y-84506124D01*
X172213676Y-84468801D01*
X172210000Y-84431478D01*
X172210000Y-84053420D01*
X172306623Y-83974123D01*
X172396178Y-83865000D01*
X173678822Y-83865000D01*
X173768377Y-83974123D01*
G37*
%TD.AperFunction*%
D18*
X165372000Y-76558000D02*
X165392000Y-76558000D01*
X165392000Y-76812000D01*
X165372000Y-76812000D01*
X165372000Y-78661250D01*
X165530750Y-78820000D01*
X165990900Y-78822505D01*
X165993396Y-78825547D01*
X166069599Y-78918401D01*
X166098602Y-78942203D01*
X166687104Y-79530706D01*
X166692274Y-79556698D01*
X166770295Y-79745056D01*
X166883563Y-79914574D01*
X167027726Y-80058737D01*
X167197244Y-80172005D01*
X167385602Y-80250026D01*
X167585561Y-80289800D01*
X167789439Y-80289800D01*
X167989398Y-80250026D01*
X168177756Y-80172005D01*
X168347274Y-80058737D01*
X168491437Y-79914574D01*
X168604705Y-79745056D01*
X168682726Y-79556698D01*
X168722500Y-79356739D01*
X168722500Y-79270300D01*
X168935699Y-79270300D01*
X170347774Y-80682376D01*
X170336928Y-80792500D01*
X170340000Y-80994250D01*
X170498750Y-81153000D01*
X170879082Y-81153000D01*
X170914153Y-81171746D01*
X171057414Y-81215203D01*
X171169067Y-81226200D01*
X171169076Y-81226200D01*
X171206399Y-81229876D01*
X171243722Y-81226200D01*
X173511928Y-81226200D01*
X173511928Y-81530000D01*
X173528752Y-81700816D01*
X173578577Y-81865067D01*
X173659488Y-82016442D01*
X173768377Y-82149123D01*
X173821232Y-82192500D01*
X173768377Y-82235877D01*
X173678822Y-82345000D01*
X172396178Y-82345000D01*
X172326188Y-82259717D01*
X172376185Y-82218685D01*
X172455537Y-82121994D01*
X172514502Y-82011680D01*
X172550812Y-81891982D01*
X172563072Y-81767500D01*
X172560000Y-81565750D01*
X172401250Y-81407000D01*
X171577000Y-81407000D01*
X171577000Y-81427000D01*
X171323000Y-81427000D01*
X171323000Y-81407000D01*
X170498750Y-81407000D01*
X170340000Y-81565750D01*
X170336928Y-81767500D01*
X170349188Y-81891982D01*
X170385498Y-82011680D01*
X170444463Y-82121994D01*
X170523815Y-82218685D01*
X170573812Y-82259717D01*
X170484488Y-82368558D01*
X170403577Y-82519933D01*
X170353752Y-82684184D01*
X170336928Y-82855000D01*
X170336928Y-83355000D01*
X170353752Y-83525816D01*
X170403577Y-83690067D01*
X170484488Y-83841442D01*
X170593377Y-83974123D01*
X170690001Y-84053420D01*
X170690001Y-84153996D01*
X164501699Y-90342300D01*
X164439561Y-90342300D01*
X164239602Y-90382074D01*
X164051244Y-90460095D01*
X163881726Y-90573363D01*
X163837789Y-90617300D01*
X159684622Y-90617300D01*
X159647299Y-90613624D01*
X159609976Y-90617300D01*
X159609967Y-90617300D01*
X159498314Y-90628297D01*
X159373112Y-90666276D01*
X159355053Y-90671754D01*
X159223023Y-90742326D01*
X159145682Y-90805799D01*
X159107299Y-90837299D01*
X159083501Y-90866297D01*
X155866635Y-94083164D01*
X155700000Y-93971822D01*
X155700000Y-93700222D01*
X155703676Y-93662899D01*
X155700000Y-93625576D01*
X155700000Y-93625567D01*
X155689003Y-93513914D01*
X155645546Y-93370653D01*
X155574974Y-93238624D01*
X155480001Y-93122899D01*
X155451003Y-93099101D01*
X155072400Y-92720498D01*
X155072400Y-92658361D01*
X155032626Y-92458402D01*
X154954605Y-92270044D01*
X154841337Y-92100526D01*
X154697174Y-91956363D01*
X154527656Y-91843095D01*
X154339298Y-91765074D01*
X154139339Y-91725300D01*
X153935461Y-91725300D01*
X153735502Y-91765074D01*
X153547144Y-91843095D01*
X153377626Y-91956363D01*
X153233463Y-92100526D01*
X153120195Y-92270044D01*
X153042174Y-92458402D01*
X153002400Y-92658361D01*
X153002400Y-92862239D01*
X153042174Y-93062198D01*
X153120195Y-93250556D01*
X153233463Y-93420074D01*
X153377626Y-93564237D01*
X153547144Y-93677505D01*
X153735502Y-93755526D01*
X153935461Y-93795300D01*
X153997598Y-93795300D01*
X154176475Y-93974177D01*
X153993368Y-94096525D01*
X153861513Y-94228380D01*
X153839502Y-94155820D01*
X153780537Y-94045506D01*
X153701185Y-93948815D01*
X153604494Y-93869463D01*
X153494180Y-93810498D01*
X153374482Y-93774188D01*
X153250000Y-93761928D01*
X151550000Y-93761928D01*
X151515300Y-93765346D01*
X151515300Y-89227301D01*
X160676004Y-80066598D01*
X160705001Y-80042801D01*
X160799974Y-79927076D01*
X160870546Y-79795047D01*
X160914003Y-79651786D01*
X160925000Y-79540133D01*
X160925000Y-79540124D01*
X160928676Y-79502801D01*
X160925000Y-79465478D01*
X160925000Y-79070386D01*
X160989599Y-79149101D01*
X161018603Y-79172904D01*
X163811301Y-81965603D01*
X163835099Y-81994601D01*
X163950824Y-82089574D01*
X164082853Y-82160146D01*
X164226114Y-82203603D01*
X164337767Y-82214600D01*
X164337775Y-82214600D01*
X164375100Y-82218276D01*
X164412425Y-82214600D01*
X165320589Y-82214600D01*
X165364526Y-82258537D01*
X165534044Y-82371805D01*
X165722402Y-82449826D01*
X165922361Y-82489600D01*
X166126239Y-82489600D01*
X166326198Y-82449826D01*
X166514556Y-82371805D01*
X166684074Y-82258537D01*
X166828237Y-82114374D01*
X166941505Y-81944856D01*
X167019526Y-81756498D01*
X167059300Y-81556539D01*
X167059300Y-81352661D01*
X167019526Y-81152702D01*
X166941505Y-80964344D01*
X166828237Y-80794826D01*
X166684074Y-80650663D01*
X166514556Y-80537395D01*
X166326198Y-80459374D01*
X166126239Y-80419600D01*
X165922361Y-80419600D01*
X165722402Y-80459374D01*
X165534044Y-80537395D01*
X165364526Y-80650663D01*
X165320589Y-80694600D01*
X164689902Y-80694600D01*
X163690706Y-79695405D01*
X163772037Y-79614074D01*
X163885305Y-79444556D01*
X163963326Y-79256198D01*
X164003100Y-79056239D01*
X164003100Y-78852361D01*
X163966567Y-78668698D01*
X163975000Y-78661778D01*
X164040506Y-78715537D01*
X164150820Y-78774502D01*
X164270518Y-78810812D01*
X164395000Y-78823072D01*
X164959250Y-78820000D01*
X165118000Y-78661250D01*
X165118000Y-76812000D01*
X165098000Y-76812000D01*
X165098000Y-76558000D01*
X165118000Y-76558000D01*
X165118000Y-76538000D01*
X165372000Y-76538000D01*
X165372000Y-76558000D01*
%TA.AperFunction,Conductor*%
D19*
G36*
X165372000Y-76558000D02*
G01*
X165392000Y-76558000D01*
X165392000Y-76812000D01*
X165372000Y-76812000D01*
X165372000Y-78661250D01*
X165530750Y-78820000D01*
X165990900Y-78822505D01*
X165993396Y-78825547D01*
X166069599Y-78918401D01*
X166098602Y-78942203D01*
X166687104Y-79530706D01*
X166692274Y-79556698D01*
X166770295Y-79745056D01*
X166883563Y-79914574D01*
X167027726Y-80058737D01*
X167197244Y-80172005D01*
X167385602Y-80250026D01*
X167585561Y-80289800D01*
X167789439Y-80289800D01*
X167989398Y-80250026D01*
X168177756Y-80172005D01*
X168347274Y-80058737D01*
X168491437Y-79914574D01*
X168604705Y-79745056D01*
X168682726Y-79556698D01*
X168722500Y-79356739D01*
X168722500Y-79270300D01*
X168935699Y-79270300D01*
X170347774Y-80682376D01*
X170336928Y-80792500D01*
X170340000Y-80994250D01*
X170498750Y-81153000D01*
X170879082Y-81153000D01*
X170914153Y-81171746D01*
X171057414Y-81215203D01*
X171169067Y-81226200D01*
X171169076Y-81226200D01*
X171206399Y-81229876D01*
X171243722Y-81226200D01*
X173511928Y-81226200D01*
X173511928Y-81530000D01*
X173528752Y-81700816D01*
X173578577Y-81865067D01*
X173659488Y-82016442D01*
X173768377Y-82149123D01*
X173821232Y-82192500D01*
X173768377Y-82235877D01*
X173678822Y-82345000D01*
X172396178Y-82345000D01*
X172326188Y-82259717D01*
X172376185Y-82218685D01*
X172455537Y-82121994D01*
X172514502Y-82011680D01*
X172550812Y-81891982D01*
X172563072Y-81767500D01*
X172560000Y-81565750D01*
X172401250Y-81407000D01*
X171577000Y-81407000D01*
X171577000Y-81427000D01*
X171323000Y-81427000D01*
X171323000Y-81407000D01*
X170498750Y-81407000D01*
X170340000Y-81565750D01*
X170336928Y-81767500D01*
X170349188Y-81891982D01*
X170385498Y-82011680D01*
X170444463Y-82121994D01*
X170523815Y-82218685D01*
X170573812Y-82259717D01*
X170484488Y-82368558D01*
X170403577Y-82519933D01*
X170353752Y-82684184D01*
X170336928Y-82855000D01*
X170336928Y-83355000D01*
X170353752Y-83525816D01*
X170403577Y-83690067D01*
X170484488Y-83841442D01*
X170593377Y-83974123D01*
X170690001Y-84053420D01*
X170690001Y-84153996D01*
X164501699Y-90342300D01*
X164439561Y-90342300D01*
X164239602Y-90382074D01*
X164051244Y-90460095D01*
X163881726Y-90573363D01*
X163837789Y-90617300D01*
X159684622Y-90617300D01*
X159647299Y-90613624D01*
X159609976Y-90617300D01*
X159609967Y-90617300D01*
X159498314Y-90628297D01*
X159373112Y-90666276D01*
X159355053Y-90671754D01*
X159223023Y-90742326D01*
X159145682Y-90805799D01*
X159107299Y-90837299D01*
X159083501Y-90866297D01*
X155866635Y-94083164D01*
X155700000Y-93971822D01*
X155700000Y-93700222D01*
X155703676Y-93662899D01*
X155700000Y-93625576D01*
X155700000Y-93625567D01*
X155689003Y-93513914D01*
X155645546Y-93370653D01*
X155574974Y-93238624D01*
X155480001Y-93122899D01*
X155451003Y-93099101D01*
X155072400Y-92720498D01*
X155072400Y-92658361D01*
X155032626Y-92458402D01*
X154954605Y-92270044D01*
X154841337Y-92100526D01*
X154697174Y-91956363D01*
X154527656Y-91843095D01*
X154339298Y-91765074D01*
X154139339Y-91725300D01*
X153935461Y-91725300D01*
X153735502Y-91765074D01*
X153547144Y-91843095D01*
X153377626Y-91956363D01*
X153233463Y-92100526D01*
X153120195Y-92270044D01*
X153042174Y-92458402D01*
X153002400Y-92658361D01*
X153002400Y-92862239D01*
X153042174Y-93062198D01*
X153120195Y-93250556D01*
X153233463Y-93420074D01*
X153377626Y-93564237D01*
X153547144Y-93677505D01*
X153735502Y-93755526D01*
X153935461Y-93795300D01*
X153997598Y-93795300D01*
X154176475Y-93974177D01*
X153993368Y-94096525D01*
X153861513Y-94228380D01*
X153839502Y-94155820D01*
X153780537Y-94045506D01*
X153701185Y-93948815D01*
X153604494Y-93869463D01*
X153494180Y-93810498D01*
X153374482Y-93774188D01*
X153250000Y-93761928D01*
X151550000Y-93761928D01*
X151515300Y-93765346D01*
X151515300Y-89227301D01*
X160676004Y-80066598D01*
X160705001Y-80042801D01*
X160799974Y-79927076D01*
X160870546Y-79795047D01*
X160914003Y-79651786D01*
X160925000Y-79540133D01*
X160925000Y-79540124D01*
X160928676Y-79502801D01*
X160925000Y-79465478D01*
X160925000Y-79070386D01*
X160989599Y-79149101D01*
X161018603Y-79172904D01*
X163811301Y-81965603D01*
X163835099Y-81994601D01*
X163950824Y-82089574D01*
X164082853Y-82160146D01*
X164226114Y-82203603D01*
X164337767Y-82214600D01*
X164337775Y-82214600D01*
X164375100Y-82218276D01*
X164412425Y-82214600D01*
X165320589Y-82214600D01*
X165364526Y-82258537D01*
X165534044Y-82371805D01*
X165722402Y-82449826D01*
X165922361Y-82489600D01*
X166126239Y-82489600D01*
X166326198Y-82449826D01*
X166514556Y-82371805D01*
X166684074Y-82258537D01*
X166828237Y-82114374D01*
X166941505Y-81944856D01*
X167019526Y-81756498D01*
X167059300Y-81556539D01*
X167059300Y-81352661D01*
X167019526Y-81152702D01*
X166941505Y-80964344D01*
X166828237Y-80794826D01*
X166684074Y-80650663D01*
X166514556Y-80537395D01*
X166326198Y-80459374D01*
X166126239Y-80419600D01*
X165922361Y-80419600D01*
X165722402Y-80459374D01*
X165534044Y-80537395D01*
X165364526Y-80650663D01*
X165320589Y-80694600D01*
X164689902Y-80694600D01*
X163690706Y-79695405D01*
X163772037Y-79614074D01*
X163885305Y-79444556D01*
X163963326Y-79256198D01*
X164003100Y-79056239D01*
X164003100Y-78852361D01*
X163966567Y-78668698D01*
X163975000Y-78661778D01*
X164040506Y-78715537D01*
X164150820Y-78774502D01*
X164270518Y-78810812D01*
X164395000Y-78823072D01*
X164959250Y-78820000D01*
X165118000Y-78661250D01*
X165118000Y-76812000D01*
X165098000Y-76812000D01*
X165098000Y-76558000D01*
X165118000Y-76558000D01*
X165118000Y-76538000D01*
X165372000Y-76538000D01*
X165372000Y-76558000D01*
G37*
%TD.AperFunction*%
D18*
X190772000Y-76558000D02*
X190792000Y-76558000D01*
X190792000Y-76812000D01*
X190772000Y-76812000D01*
X190772000Y-78661250D01*
X190930750Y-78820000D01*
X191495000Y-78823072D01*
X191619482Y-78810812D01*
X191739180Y-78774502D01*
X191849494Y-78715537D01*
X191915000Y-78661778D01*
X191980506Y-78715537D01*
X192035617Y-78744995D01*
X191993074Y-78847702D01*
X191953300Y-79047661D01*
X191953300Y-79251539D01*
X191993074Y-79451498D01*
X192071095Y-79639856D01*
X192184363Y-79809374D01*
X192328526Y-79953537D01*
X192498044Y-80066805D01*
X192686402Y-80144826D01*
X192886361Y-80184600D01*
X193090239Y-80184600D01*
X193290198Y-80144826D01*
X193478556Y-80066805D01*
X193648074Y-79953537D01*
X193792237Y-79809374D01*
X193905505Y-79639856D01*
X193983526Y-79451498D01*
X194023300Y-79251539D01*
X194023300Y-79047661D01*
X193983526Y-78847702D01*
X193973324Y-78823072D01*
X194035000Y-78823072D01*
X194082805Y-78818364D01*
X194071274Y-78846202D01*
X194031500Y-79046161D01*
X194031500Y-79250039D01*
X194071274Y-79449998D01*
X194149295Y-79638356D01*
X194262563Y-79807874D01*
X194334144Y-79879455D01*
X191223498Y-82990101D01*
X191194500Y-83013899D01*
X191170702Y-83042897D01*
X191170701Y-83042898D01*
X191099526Y-83129624D01*
X191028954Y-83261654D01*
X191017717Y-83298700D01*
X190985498Y-83404914D01*
X190974500Y-83516567D01*
X190974500Y-83516578D01*
X190970824Y-83553900D01*
X190974500Y-83591222D01*
X190974500Y-84048098D01*
X188240672Y-86781927D01*
X188240672Y-86724200D01*
X188228412Y-86599718D01*
X188192102Y-86480020D01*
X188133137Y-86369706D01*
X188053785Y-86273015D01*
X187957094Y-86193663D01*
X187846780Y-86134698D01*
X187727082Y-86098388D01*
X187602600Y-86086128D01*
X186045873Y-86086128D01*
X186958102Y-85173900D01*
X187691778Y-85173900D01*
X187729100Y-85177576D01*
X187766422Y-85173900D01*
X187766433Y-85173900D01*
X187878086Y-85162903D01*
X188021347Y-85119446D01*
X188153376Y-85048874D01*
X188269101Y-84953901D01*
X188292904Y-84924897D01*
X188664898Y-84552903D01*
X188693901Y-84529101D01*
X188756950Y-84452276D01*
X188788874Y-84413377D01*
X188859446Y-84281347D01*
X188863945Y-84266514D01*
X188902903Y-84138086D01*
X188913900Y-84026433D01*
X188913900Y-84026423D01*
X188917576Y-83989100D01*
X188913900Y-83951777D01*
X188913900Y-78823072D01*
X188955000Y-78823072D01*
X189079482Y-78810812D01*
X189199180Y-78774502D01*
X189309494Y-78715537D01*
X189375000Y-78661778D01*
X189440506Y-78715537D01*
X189550820Y-78774502D01*
X189670518Y-78810812D01*
X189795000Y-78823072D01*
X190359250Y-78820000D01*
X190518000Y-78661250D01*
X190518000Y-76812000D01*
X190498000Y-76812000D01*
X190498000Y-76558000D01*
X190518000Y-76558000D01*
X190518000Y-76538000D01*
X190772000Y-76538000D01*
X190772000Y-76558000D01*
%TA.AperFunction,Conductor*%
D19*
G36*
X190772000Y-76558000D02*
G01*
X190792000Y-76558000D01*
X190792000Y-76812000D01*
X190772000Y-76812000D01*
X190772000Y-78661250D01*
X190930750Y-78820000D01*
X191495000Y-78823072D01*
X191619482Y-78810812D01*
X191739180Y-78774502D01*
X191849494Y-78715537D01*
X191915000Y-78661778D01*
X191980506Y-78715537D01*
X192035617Y-78744995D01*
X191993074Y-78847702D01*
X191953300Y-79047661D01*
X191953300Y-79251539D01*
X191993074Y-79451498D01*
X192071095Y-79639856D01*
X192184363Y-79809374D01*
X192328526Y-79953537D01*
X192498044Y-80066805D01*
X192686402Y-80144826D01*
X192886361Y-80184600D01*
X193090239Y-80184600D01*
X193290198Y-80144826D01*
X193478556Y-80066805D01*
X193648074Y-79953537D01*
X193792237Y-79809374D01*
X193905505Y-79639856D01*
X193983526Y-79451498D01*
X194023300Y-79251539D01*
X194023300Y-79047661D01*
X193983526Y-78847702D01*
X193973324Y-78823072D01*
X194035000Y-78823072D01*
X194082805Y-78818364D01*
X194071274Y-78846202D01*
X194031500Y-79046161D01*
X194031500Y-79250039D01*
X194071274Y-79449998D01*
X194149295Y-79638356D01*
X194262563Y-79807874D01*
X194334144Y-79879455D01*
X191223498Y-82990101D01*
X191194500Y-83013899D01*
X191170702Y-83042897D01*
X191170701Y-83042898D01*
X191099526Y-83129624D01*
X191028954Y-83261654D01*
X191017717Y-83298700D01*
X190985498Y-83404914D01*
X190974500Y-83516567D01*
X190974500Y-83516578D01*
X190970824Y-83553900D01*
X190974500Y-83591222D01*
X190974500Y-84048098D01*
X188240672Y-86781927D01*
X188240672Y-86724200D01*
X188228412Y-86599718D01*
X188192102Y-86480020D01*
X188133137Y-86369706D01*
X188053785Y-86273015D01*
X187957094Y-86193663D01*
X187846780Y-86134698D01*
X187727082Y-86098388D01*
X187602600Y-86086128D01*
X186045873Y-86086128D01*
X186958102Y-85173900D01*
X187691778Y-85173900D01*
X187729100Y-85177576D01*
X187766422Y-85173900D01*
X187766433Y-85173900D01*
X187878086Y-85162903D01*
X188021347Y-85119446D01*
X188153376Y-85048874D01*
X188269101Y-84953901D01*
X188292904Y-84924897D01*
X188664898Y-84552903D01*
X188693901Y-84529101D01*
X188756950Y-84452276D01*
X188788874Y-84413377D01*
X188859446Y-84281347D01*
X188863945Y-84266514D01*
X188902903Y-84138086D01*
X188913900Y-84026433D01*
X188913900Y-84026423D01*
X188917576Y-83989100D01*
X188913900Y-83951777D01*
X188913900Y-78823072D01*
X188955000Y-78823072D01*
X189079482Y-78810812D01*
X189199180Y-78774502D01*
X189309494Y-78715537D01*
X189375000Y-78661778D01*
X189440506Y-78715537D01*
X189550820Y-78774502D01*
X189670518Y-78810812D01*
X189795000Y-78823072D01*
X190359250Y-78820000D01*
X190518000Y-78661250D01*
X190518000Y-76812000D01*
X190498000Y-76812000D01*
X190498000Y-76558000D01*
X190518000Y-76558000D01*
X190518000Y-76538000D01*
X190772000Y-76538000D01*
X190772000Y-76558000D01*
G37*
%TD.AperFunction*%
D18*
X179463300Y-86260800D02*
X179169300Y-86260800D01*
X179169300Y-86006800D01*
X179463300Y-86006800D01*
X179463300Y-86260800D01*
%TA.AperFunction,Conductor*%
D19*
G36*
X179463300Y-86260800D02*
G01*
X179169300Y-86260800D01*
X179169300Y-86006800D01*
X179463300Y-86006800D01*
X179463300Y-86260800D01*
G37*
%TD.AperFunction*%
D18*
X179280506Y-78715537D02*
X179390820Y-78774502D01*
X179510518Y-78810812D01*
X179635000Y-78823072D01*
X179658400Y-78823072D01*
X179658400Y-78961439D01*
X179698174Y-79161398D01*
X179776195Y-79349756D01*
X179889463Y-79519274D01*
X180033626Y-79663437D01*
X180203144Y-79776705D01*
X180391502Y-79854726D01*
X180591461Y-79894500D01*
X180795339Y-79894500D01*
X180995298Y-79854726D01*
X181183656Y-79776705D01*
X181353174Y-79663437D01*
X181497337Y-79519274D01*
X181530795Y-79469201D01*
X181627863Y-79614474D01*
X181772026Y-79758637D01*
X181941544Y-79871905D01*
X182129902Y-79949926D01*
X182329861Y-79989700D01*
X182533739Y-79989700D01*
X182733698Y-79949926D01*
X182922056Y-79871905D01*
X183091574Y-79758637D01*
X183235737Y-79614474D01*
X183349005Y-79444956D01*
X183427026Y-79256598D01*
X183466800Y-79056639D01*
X183466800Y-78852761D01*
X183460446Y-78820815D01*
X183629700Y-78821736D01*
X183629700Y-79910497D01*
X182722150Y-80818048D01*
X182723072Y-80742500D01*
X182710812Y-80618018D01*
X182674502Y-80498320D01*
X182615537Y-80388006D01*
X182536185Y-80291315D01*
X182439494Y-80211963D01*
X182329180Y-80152998D01*
X182209482Y-80116688D01*
X182085000Y-80104428D01*
X181895750Y-80107500D01*
X181737000Y-80266250D01*
X181737000Y-81153000D01*
X181757000Y-81153000D01*
X181757000Y-81407000D01*
X181737000Y-81407000D01*
X181737000Y-81427000D01*
X181483000Y-81427000D01*
X181483000Y-81407000D01*
X180658750Y-81407000D01*
X180657500Y-81408250D01*
X180656250Y-81407000D01*
X179832000Y-81407000D01*
X179832000Y-81427000D01*
X179578000Y-81427000D01*
X179578000Y-81407000D01*
X179558000Y-81407000D01*
X179558000Y-81153000D01*
X179578000Y-81153000D01*
X179578000Y-80266250D01*
X179832000Y-80266250D01*
X179832000Y-81153000D01*
X180656250Y-81153000D01*
X180657500Y-81151750D01*
X180658750Y-81153000D01*
X181483000Y-81153000D01*
X181483000Y-80266250D01*
X181324250Y-80107500D01*
X181135000Y-80104428D01*
X181010518Y-80116688D01*
X180890820Y-80152998D01*
X180780506Y-80211963D01*
X180683815Y-80291315D01*
X180657500Y-80323380D01*
X180631185Y-80291315D01*
X180534494Y-80211963D01*
X180424180Y-80152998D01*
X180304482Y-80116688D01*
X180180000Y-80104428D01*
X179990750Y-80107500D01*
X179832000Y-80266250D01*
X179578000Y-80266250D01*
X179419250Y-80107500D01*
X179230000Y-80104428D01*
X179105518Y-80116688D01*
X178985820Y-80152998D01*
X178875506Y-80211963D01*
X178778815Y-80291315D01*
X178699463Y-80388006D01*
X178640498Y-80498320D01*
X178637300Y-80508862D01*
X178637300Y-80440161D01*
X178597526Y-80240202D01*
X178519505Y-80051844D01*
X178406237Y-79882326D01*
X178262074Y-79738163D01*
X178092556Y-79624895D01*
X177904198Y-79546874D01*
X177831783Y-79532470D01*
X177862700Y-79377039D01*
X177862700Y-79173161D01*
X177822926Y-78973202D01*
X177760740Y-78823072D01*
X178795000Y-78823072D01*
X178919482Y-78810812D01*
X179039180Y-78774502D01*
X179149494Y-78715537D01*
X179215000Y-78661778D01*
X179280506Y-78715537D01*
%TA.AperFunction,Conductor*%
D19*
G36*
X179280506Y-78715537D02*
G01*
X179390820Y-78774502D01*
X179510518Y-78810812D01*
X179635000Y-78823072D01*
X179658400Y-78823072D01*
X179658400Y-78961439D01*
X179698174Y-79161398D01*
X179776195Y-79349756D01*
X179889463Y-79519274D01*
X180033626Y-79663437D01*
X180203144Y-79776705D01*
X180391502Y-79854726D01*
X180591461Y-79894500D01*
X180795339Y-79894500D01*
X180995298Y-79854726D01*
X181183656Y-79776705D01*
X181353174Y-79663437D01*
X181497337Y-79519274D01*
X181530795Y-79469201D01*
X181627863Y-79614474D01*
X181772026Y-79758637D01*
X181941544Y-79871905D01*
X182129902Y-79949926D01*
X182329861Y-79989700D01*
X182533739Y-79989700D01*
X182733698Y-79949926D01*
X182922056Y-79871905D01*
X183091574Y-79758637D01*
X183235737Y-79614474D01*
X183349005Y-79444956D01*
X183427026Y-79256598D01*
X183466800Y-79056639D01*
X183466800Y-78852761D01*
X183460446Y-78820815D01*
X183629700Y-78821736D01*
X183629700Y-79910497D01*
X182722150Y-80818048D01*
X182723072Y-80742500D01*
X182710812Y-80618018D01*
X182674502Y-80498320D01*
X182615537Y-80388006D01*
X182536185Y-80291315D01*
X182439494Y-80211963D01*
X182329180Y-80152998D01*
X182209482Y-80116688D01*
X182085000Y-80104428D01*
X181895750Y-80107500D01*
X181737000Y-80266250D01*
X181737000Y-81153000D01*
X181757000Y-81153000D01*
X181757000Y-81407000D01*
X181737000Y-81407000D01*
X181737000Y-81427000D01*
X181483000Y-81427000D01*
X181483000Y-81407000D01*
X180658750Y-81407000D01*
X180657500Y-81408250D01*
X180656250Y-81407000D01*
X179832000Y-81407000D01*
X179832000Y-81427000D01*
X179578000Y-81427000D01*
X179578000Y-81407000D01*
X179558000Y-81407000D01*
X179558000Y-81153000D01*
X179578000Y-81153000D01*
X179578000Y-80266250D01*
X179832000Y-80266250D01*
X179832000Y-81153000D01*
X180656250Y-81153000D01*
X180657500Y-81151750D01*
X180658750Y-81153000D01*
X181483000Y-81153000D01*
X181483000Y-80266250D01*
X181324250Y-80107500D01*
X181135000Y-80104428D01*
X181010518Y-80116688D01*
X180890820Y-80152998D01*
X180780506Y-80211963D01*
X180683815Y-80291315D01*
X180657500Y-80323380D01*
X180631185Y-80291315D01*
X180534494Y-80211963D01*
X180424180Y-80152998D01*
X180304482Y-80116688D01*
X180180000Y-80104428D01*
X179990750Y-80107500D01*
X179832000Y-80266250D01*
X179578000Y-80266250D01*
X179419250Y-80107500D01*
X179230000Y-80104428D01*
X179105518Y-80116688D01*
X178985820Y-80152998D01*
X178875506Y-80211963D01*
X178778815Y-80291315D01*
X178699463Y-80388006D01*
X178640498Y-80498320D01*
X178637300Y-80508862D01*
X178637300Y-80440161D01*
X178597526Y-80240202D01*
X178519505Y-80051844D01*
X178406237Y-79882326D01*
X178262074Y-79738163D01*
X178092556Y-79624895D01*
X177904198Y-79546874D01*
X177831783Y-79532470D01*
X177862700Y-79377039D01*
X177862700Y-79173161D01*
X177822926Y-78973202D01*
X177760740Y-78823072D01*
X178795000Y-78823072D01*
X178919482Y-78810812D01*
X179039180Y-78774502D01*
X179149494Y-78715537D01*
X179215000Y-78661778D01*
X179280506Y-78715537D01*
G37*
%TD.AperFunction*%
D18*
X185463001Y-81199500D02*
X185293000Y-81199500D01*
X185293000Y-81179500D01*
X185273000Y-81179500D01*
X185273000Y-80925500D01*
X185293000Y-80925500D01*
X185293000Y-80905500D01*
X185463001Y-80905500D01*
X185463001Y-81199500D01*
%TA.AperFunction,Conductor*%
D19*
G36*
X185463001Y-81199500D02*
G01*
X185293000Y-81199500D01*
X185293000Y-81179500D01*
X185273000Y-81179500D01*
X185273000Y-80925500D01*
X185293000Y-80925500D01*
X185293000Y-80905500D01*
X185463001Y-80905500D01*
X185463001Y-81199500D01*
G37*
%TD.AperFunction*%
D18*
X175832474Y-78973202D02*
X175792700Y-79173161D01*
X175792700Y-79377039D01*
X175832474Y-79576998D01*
X175885992Y-79706200D01*
X174765843Y-79706200D01*
X174812526Y-79593498D01*
X174852300Y-79393539D01*
X174852300Y-79189661D01*
X174812526Y-78989702D01*
X174743505Y-78823072D01*
X175894660Y-78823072D01*
X175832474Y-78973202D01*
%TA.AperFunction,Conductor*%
D19*
G36*
X175832474Y-78973202D02*
G01*
X175792700Y-79173161D01*
X175792700Y-79377039D01*
X175832474Y-79576998D01*
X175885992Y-79706200D01*
X174765843Y-79706200D01*
X174812526Y-79593498D01*
X174852300Y-79393539D01*
X174852300Y-79189661D01*
X174812526Y-78989702D01*
X174743505Y-78823072D01*
X175894660Y-78823072D01*
X175832474Y-78973202D01*
G37*
%TD.AperFunction*%
D18*
X170452000Y-76558000D02*
X170472000Y-76558000D01*
X170472000Y-76812000D01*
X170452000Y-76812000D01*
X170452000Y-76832000D01*
X170198000Y-76832000D01*
X170198000Y-76812000D01*
X170178000Y-76812000D01*
X170178000Y-76558000D01*
X170198000Y-76558000D01*
X170198000Y-76538000D01*
X170452000Y-76538000D01*
X170452000Y-76558000D01*
%TA.AperFunction,Conductor*%
D19*
G36*
X170452000Y-76558000D02*
G01*
X170472000Y-76558000D01*
X170472000Y-76812000D01*
X170452000Y-76812000D01*
X170452000Y-76832000D01*
X170198000Y-76832000D01*
X170198000Y-76812000D01*
X170178000Y-76812000D01*
X170178000Y-76558000D01*
X170198000Y-76558000D01*
X170198000Y-76538000D01*
X170452000Y-76538000D01*
X170452000Y-76558000D01*
G37*
%TD.AperFunction*%
D18*
X183152000Y-76558000D02*
X183172000Y-76558000D01*
X183172000Y-76812000D01*
X183152000Y-76812000D01*
X183152000Y-76832000D01*
X182898000Y-76832000D01*
X182898000Y-76812000D01*
X182878000Y-76812000D01*
X182878000Y-76558000D01*
X182898000Y-76558000D01*
X182898000Y-76538000D01*
X183152000Y-76538000D01*
X183152000Y-76558000D01*
%TA.AperFunction,Conductor*%
D19*
G36*
X183152000Y-76558000D02*
G01*
X183172000Y-76558000D01*
X183172000Y-76812000D01*
X183152000Y-76812000D01*
X183152000Y-76832000D01*
X182898000Y-76832000D01*
X182898000Y-76812000D01*
X182878000Y-76812000D01*
X182878000Y-76558000D01*
X182898000Y-76558000D01*
X182898000Y-76538000D01*
X183152000Y-76538000D01*
X183152000Y-76558000D01*
G37*
%TD.AperFunction*%
D18*
X200932000Y-76558000D02*
X200952000Y-76558000D01*
X200952000Y-76812000D01*
X200932000Y-76812000D01*
X200932000Y-76832000D01*
X200678000Y-76832000D01*
X200678000Y-76812000D01*
X200658000Y-76812000D01*
X200658000Y-76558000D01*
X200678000Y-76558000D01*
X200678000Y-76538000D01*
X200932000Y-76538000D01*
X200932000Y-76558000D01*
%TA.AperFunction,Conductor*%
D19*
G36*
X200932000Y-76558000D02*
G01*
X200952000Y-76558000D01*
X200952000Y-76812000D01*
X200932000Y-76812000D01*
X200932000Y-76832000D01*
X200678000Y-76832000D01*
X200678000Y-76812000D01*
X200658000Y-76812000D01*
X200658000Y-76558000D01*
X200678000Y-76558000D01*
X200678000Y-76538000D01*
X200932000Y-76538000D01*
X200932000Y-76558000D01*
G37*
%TD.AperFunction*%
D18*
X195852000Y-72684500D02*
X195872000Y-72684500D01*
X195872000Y-72938500D01*
X195852000Y-72938500D01*
X195852000Y-72958500D01*
X195598000Y-72958500D01*
X195598000Y-72938500D01*
X195578000Y-72938500D01*
X195578000Y-72684500D01*
X195598000Y-72684500D01*
X195598000Y-72664500D01*
X195852000Y-72664500D01*
X195852000Y-72684500D01*
%TA.AperFunction,Conductor*%
D19*
G36*
X195852000Y-72684500D02*
G01*
X195872000Y-72684500D01*
X195872000Y-72938500D01*
X195852000Y-72938500D01*
X195852000Y-72958500D01*
X195598000Y-72958500D01*
X195598000Y-72938500D01*
X195578000Y-72938500D01*
X195578000Y-72684500D01*
X195598000Y-72684500D01*
X195598000Y-72664500D01*
X195852000Y-72664500D01*
X195852000Y-72684500D01*
G37*
%TD.AperFunction*%
%TD*%
M02*
