M48
; DRILL file {KiCad (5.1.9)-1} date 11/21/21 17:51:28
; FORMAT={-:-/ absolute / metric / decimal}
; #@! TF.CreationDate,2021-11-21T17:51:28+01:00
; #@! TF.GenerationSoftware,Kicad,Pcbnew,(5.1.9)-1
; #@! TF.FileFunction,Plated,1,2,PTH
FMAT,2
METRIC
T1C0.400
T2C1.000
%
G90
G05
T1
X154.037Y-92.76
X158.714Y-79.399
X162.968Y-78.954
X163.754Y-101.575
X164.541Y-91.377
X164.846Y-75.692
X165.389Y-110.702
X165.608Y-79.756
X165.847Y-94.273
X166.024Y-81.455
X166.538Y-97.704
X167.005Y-94.525
X167.688Y-79.255
X168.504Y-93.243
X169.213Y-98.572
X170.18Y-76.2
X170.992Y-98.272
X171.526Y-97.224
X172.974Y-73.66
X173.817Y-79.292
X174.498Y-111.76
X175.26Y-79.375
X175.768Y-109.22
X176.022Y-101.854
X176.149Y-84.099
X176.828Y-79.275
X177.602Y-80.542
X178.816Y-78.994
X180.34Y-107.442
X180.34Y-109.728
X180.693Y-78.859
X181.164Y-101.136
X181.737Y-109.017
X182.372Y-104.14
X182.432Y-78.955
X183.073Y-88.123
X183.134Y-75.692
X184.231Y-87.948
X184.238Y-84.389
X184.785Y-108.737
X185.36Y-84.415
X185.496Y-80.975
X186.901Y-79.523
X187.429Y-83.689
X189.255Y-79.756
X190.754Y-75.946
X192.91Y-84.678
X192.988Y-79.15
X195.066Y-79.148
X195.328Y-101.573
X195.834Y-73.152
X198.085Y-79.062
X200.66Y-76.708
X205.569Y-102.058
T2
X152.4Y-95.25
X154.94Y-95.25
X157.48Y-95.25
X160.02Y-95.25
X187.96Y-99.06
X189.23Y-95.25
X190.5Y-99.06
X191.77Y-95.25
X193.04Y-99.06
X194.31Y-95.25
X195.58Y-99.06
X196.85Y-95.25
X198.12Y-99.06
X199.39Y-95.25
X200.66Y-99.06
X203.2Y-95.25
X203.2Y-99.06
X205.74Y-95.25
X205.74Y-99.06
X208.28Y-95.25
X208.28Y-99.06
X210.82Y-95.25
X210.82Y-99.06
T0
M30
