%TF.GenerationSoftware,KiCad,Pcbnew,(5.1.9)-1*%
%TF.CreationDate,2021-11-21T17:51:23+01:00*%
%TF.ProjectId,MemoryBrakout,4d656d6f-7279-4427-9261-6b6f75742e6b,rev?*%
%TF.SameCoordinates,Original*%
%TF.FileFunction,Paste,Bot*%
%TF.FilePolarity,Positive*%
%FSLAX46Y46*%
G04 Gerber Fmt 4.6, Leading zero omitted, Abs format (unit mm)*
G04 Created by KiCad (PCBNEW (5.1.9)-1) date 2021-11-21 17:51:23*
%MOMM*%
%LPD*%
G01*
G04 APERTURE LIST*
%ADD10R,1.700000X3.000000*%
%ADD11R,0.300000X1.300000*%
%ADD12R,2.700000X1.300000*%
%ADD13R,1.300000X2.200000*%
G04 APERTURE END LIST*
%TO.C,C1*%
G36*
G01*
X185657500Y-83315000D02*
X185182500Y-83315000D01*
G75*
G02*
X184945000Y-83077500I0J237500D01*
G01*
X184945000Y-82477500D01*
G75*
G02*
X185182500Y-82240000I237500J0D01*
G01*
X185657500Y-82240000D01*
G75*
G02*
X185895000Y-82477500I0J-237500D01*
G01*
X185895000Y-83077500D01*
G75*
G02*
X185657500Y-83315000I-237500J0D01*
G01*
G37*
G36*
G01*
X185657500Y-81590000D02*
X185182500Y-81590000D01*
G75*
G02*
X184945000Y-81352500I0J237500D01*
G01*
X184945000Y-80752500D01*
G75*
G02*
X185182500Y-80515000I237500J0D01*
G01*
X185657500Y-80515000D01*
G75*
G02*
X185895000Y-80752500I0J-237500D01*
G01*
X185895000Y-81352500D01*
G75*
G02*
X185657500Y-81590000I-237500J0D01*
G01*
G37*
%TD*%
%TO.C,C2*%
G36*
G01*
X181847500Y-81817500D02*
X181372500Y-81817500D01*
G75*
G02*
X181135000Y-81580000I0J237500D01*
G01*
X181135000Y-80980000D01*
G75*
G02*
X181372500Y-80742500I237500J0D01*
G01*
X181847500Y-80742500D01*
G75*
G02*
X182085000Y-80980000I0J-237500D01*
G01*
X182085000Y-81580000D01*
G75*
G02*
X181847500Y-81817500I-237500J0D01*
G01*
G37*
G36*
G01*
X181847500Y-83542500D02*
X181372500Y-83542500D01*
G75*
G02*
X181135000Y-83305000I0J237500D01*
G01*
X181135000Y-82705000D01*
G75*
G02*
X181372500Y-82467500I237500J0D01*
G01*
X181847500Y-82467500D01*
G75*
G02*
X182085000Y-82705000I0J-237500D01*
G01*
X182085000Y-83305000D01*
G75*
G02*
X181847500Y-83542500I-237500J0D01*
G01*
G37*
%TD*%
%TO.C,C3*%
G36*
G01*
X179942500Y-83542500D02*
X179467500Y-83542500D01*
G75*
G02*
X179230000Y-83305000I0J237500D01*
G01*
X179230000Y-82705000D01*
G75*
G02*
X179467500Y-82467500I237500J0D01*
G01*
X179942500Y-82467500D01*
G75*
G02*
X180180000Y-82705000I0J-237500D01*
G01*
X180180000Y-83305000D01*
G75*
G02*
X179942500Y-83542500I-237500J0D01*
G01*
G37*
G36*
G01*
X179942500Y-81817500D02*
X179467500Y-81817500D01*
G75*
G02*
X179230000Y-81580000I0J237500D01*
G01*
X179230000Y-80980000D01*
G75*
G02*
X179467500Y-80742500I237500J0D01*
G01*
X179942500Y-80742500D01*
G75*
G02*
X180180000Y-80980000I0J-237500D01*
G01*
X180180000Y-81580000D01*
G75*
G02*
X179942500Y-81817500I-237500J0D01*
G01*
G37*
%TD*%
D10*
%TO.C,J1*%
X205885000Y-76685000D03*
X205885000Y-72811500D03*
X203345000Y-76685000D03*
X203345000Y-72811500D03*
X200805000Y-76685000D03*
X200805000Y-72811500D03*
X198265000Y-76685000D03*
X198265000Y-72811500D03*
X195725000Y-76685000D03*
X195725000Y-72811500D03*
X193185000Y-76685000D03*
X193185000Y-72811500D03*
X190645000Y-76685000D03*
X190645000Y-72811500D03*
X188105000Y-76685000D03*
X188105000Y-72811500D03*
X185565000Y-76685000D03*
X185565000Y-72811500D03*
X183025000Y-76685000D03*
X183025000Y-72875000D03*
X180485000Y-76685000D03*
X180467000Y-72834500D03*
X177945000Y-76685000D03*
X177927000Y-72834500D03*
X175405000Y-76685000D03*
X175387000Y-72834500D03*
X172865000Y-76685000D03*
X172847000Y-72834500D03*
X170325000Y-76685000D03*
X170307000Y-72834500D03*
X167785000Y-76685000D03*
X167767000Y-72834500D03*
X165245000Y-76685000D03*
X165227000Y-72834500D03*
X162705000Y-76685000D03*
X162750500Y-72834500D03*
X160165000Y-76685000D03*
X160147000Y-72834500D03*
X157607000Y-76708000D03*
X157607000Y-72834500D03*
%TD*%
%TO.C,R1*%
G36*
G01*
X174862500Y-81767500D02*
X174387500Y-81767500D01*
G75*
G02*
X174150000Y-81530000I0J237500D01*
G01*
X174150000Y-81030000D01*
G75*
G02*
X174387500Y-80792500I237500J0D01*
G01*
X174862500Y-80792500D01*
G75*
G02*
X175100000Y-81030000I0J-237500D01*
G01*
X175100000Y-81530000D01*
G75*
G02*
X174862500Y-81767500I-237500J0D01*
G01*
G37*
G36*
G01*
X174862500Y-83592500D02*
X174387500Y-83592500D01*
G75*
G02*
X174150000Y-83355000I0J237500D01*
G01*
X174150000Y-82855000D01*
G75*
G02*
X174387500Y-82617500I237500J0D01*
G01*
X174862500Y-82617500D01*
G75*
G02*
X175100000Y-82855000I0J-237500D01*
G01*
X175100000Y-83355000D01*
G75*
G02*
X174862500Y-83592500I-237500J0D01*
G01*
G37*
%TD*%
%TO.C,R7*%
G36*
G01*
X171687500Y-83592500D02*
X171212500Y-83592500D01*
G75*
G02*
X170975000Y-83355000I0J237500D01*
G01*
X170975000Y-82855000D01*
G75*
G02*
X171212500Y-82617500I237500J0D01*
G01*
X171687500Y-82617500D01*
G75*
G02*
X171925000Y-82855000I0J-237500D01*
G01*
X171925000Y-83355000D01*
G75*
G02*
X171687500Y-83592500I-237500J0D01*
G01*
G37*
G36*
G01*
X171687500Y-81767500D02*
X171212500Y-81767500D01*
G75*
G02*
X170975000Y-81530000I0J237500D01*
G01*
X170975000Y-81030000D01*
G75*
G02*
X171212500Y-80792500I237500J0D01*
G01*
X171687500Y-80792500D01*
G75*
G02*
X171925000Y-81030000I0J-237500D01*
G01*
X171925000Y-81530000D01*
G75*
G02*
X171687500Y-81767500I-237500J0D01*
G01*
G37*
%TD*%
D11*
%TO.C,U1*%
X180316300Y-86133800D03*
X183816300Y-86133800D03*
X180816300Y-86133800D03*
X181816300Y-86133800D03*
X179816300Y-86133800D03*
X179316300Y-86133800D03*
X182816300Y-86133800D03*
X183316300Y-86133800D03*
X182316300Y-86133800D03*
X181316300Y-86133800D03*
D12*
X176956200Y-87374200D03*
D13*
X177603900Y-88237800D03*
D12*
X186252600Y-87374200D03*
D13*
X185579500Y-88237800D03*
%TD*%
M02*
